<svg width="223" height="192" viewBox="0 0 223 192" fill="none" xmlns="http://www.w3.org/2000/svg">
<g filter="url(#filter0_d_195_34)">
<path fill-rule="evenodd" clip-rule="evenodd" d="M116.283 5.87666C137.12 6.76992 159.748 -0.760419 177.127 10.7085C194.709 22.3107 199.287 45.118 205.933 65.0369C212.626 85.0936 224.529 106.932 215.639 126.125C206.829 145.148 181.119 147.326 162.932 157.881C147.164 167.033 134.491 182.474 116.283 183.791C97.4757 185.152 81.3258 173.333 64.4268 165.01C43.5317 154.719 14.8359 151.137 6.22098 129.585C-2.37677 108.076 16.2124 85.9932 24.1427 64.2321C31.7395 43.386 32.7016 17.232 51.505 5.32327C70.1768 -6.5022 94.1683 4.92864 116.283 5.87666Z" fill="#9DD3E7"/>
</g>
<defs>
<filter id="filter0_d_195_34" x="0" y="0" width="222.815" height="191.899" filterUnits="userSpaceOnUse" color-interpolation-filters="sRGB">
<feFlood flood-opacity="0" result="BackgroundImageFix"/>
<feColorMatrix in="SourceAlpha" type="matrix" values="0 0 0 0 0 0 0 0 0 0 0 0 0 0 0 0 0 0 127 0" result="hardAlpha"/>
<feOffset dy="4"/>
<feGaussianBlur stdDeviation="2"/>
<feComposite in2="hardAlpha" operator="out"/>
<feColorMatrix type="matrix" values="0 0 0 0 0 0 0 0 0 0 0 0 0 0 0 0 0 0 0.25 0"/>
<feBlend mode="normal" in2="BackgroundImageFix" result="effect1_dropShadow_195_34"/>
<feBlend mode="normal" in="SourceGraphic" in2="effect1_dropShadow_195_34" result="shape"/>
</filter>
</defs>
</svg>
