<svg width="205" height="60" viewBox="0 0 205 60" fill="none" xmlns="http://www.w3.org/2000/svg">
<path d="M0.0160972 1.48486C0.0160972 0.977833 0.373957 0.724321 0.869302 0.724321H16.0559C16.5512 0.724321 16.7989 0.977833 16.7989 1.48486C16.7989 1.95567 16.7989 2.43855 16.7989 2.9335C16.7989 3.41638 16.7868 3.89322 16.7627 4.36403C16.7264 4.84691 16.4788 5.08835 16.0197 5.08835H5.72613C5.58115 5.08835 5.50866 5.16079 5.50866 5.30565C5.50866 6.28348 5.50866 7.26132 5.50866 8.23915C5.52074 9.20491 5.52678 10.1767 5.52678 11.1545C5.52678 11.2994 5.59927 11.3718 5.74425 11.3718H14.6605C15.1558 11.3718 15.4035 11.6193 15.4035 12.1143V14.5951C15.4035 15.09 15.1558 15.3375 14.6605 15.3375H5.74425C5.59927 15.3375 5.52678 15.4099 5.52678 15.5548C5.52678 16.5447 5.52074 17.5406 5.50866 18.5426C5.50866 19.5325 5.50866 20.5285 5.50866 21.5304C5.50866 21.6753 5.58115 21.7477 5.72613 21.7477H16.4546C16.9137 21.7477 17.1614 21.9892 17.1976 22.4721C17.2218 22.9429 17.2339 23.4257 17.2339 23.9207C17.2459 24.4036 17.252 24.8804 17.252 25.3512C17.252 25.8583 17.0043 26.1118 16.509 26.1118H0.996182C0.500837 26.1118 0.0161088 25.8583 0.0161088 25.3512C0.0161088 24.6873 0.00402141 23.8834 0.016103 23.2316C0.0402662 22.5676 0.0040272 21.9773 0.0161088 21.3134C0.0523536 18.5368 0.0161088 15.7656 0.0161088 13.0011C0.0161088 11.0575 0.0523536 9.16599 0.0161088 7.24654C-0.020136 5.31502 0.0160972 3.41638 0.0160972 1.48486Z" fill="#1743BD"/>
<path d="M27.2012 26.4558C25.5581 26.4558 24.1747 26.0695 23.0511 25.2969C21.9276 24.5243 21.0758 23.4921 20.4959 22.2004C19.916 20.9087 19.626 19.4963 19.626 17.9632C19.626 16.2972 19.9341 14.8124 20.5503 13.5086C21.1785 12.1927 22.0907 11.1545 23.2867 10.394C24.4828 9.63347 25.9507 9.2532 27.6905 9.2532C29.6115 9.2532 31.2848 9.80851 32.7104 10.9191C32.8191 11.0036 32.9037 11.0459 32.9641 11.0459C33.0366 11.0459 33.0789 11.0036 33.091 10.9191C33.103 10.8346 33.1091 10.7743 33.1091 10.7381C33.1091 9.60329 33.1091 8.47456 33.1091 7.35186C33.1212 6.22916 33.1332 5.10043 33.1453 3.96566C33.1574 3.43449 33.1574 2.89728 33.1453 2.35404C33.1332 1.79873 33.1453 1.26153 33.1816 0.742429C33.2178 0.247476 33.4655 0 33.9246 0H36.7517C37.247 0 37.4947 0.253512 37.4947 0.760537C37.4947 1.4245 37.4826 2.08846 37.4585 2.75242C37.4464 3.40431 37.4343 4.06223 37.4222 4.72619C37.386 7.49069 37.3678 10.2672 37.3678 13.0559C37.3678 15.8324 37.386 18.609 37.4222 21.3856C37.4343 22.0495 37.4464 22.7135 37.4585 23.3775C37.4826 24.0293 37.4947 24.6873 37.4947 25.3512C37.4947 25.8583 37.247 26.1118 36.7517 26.1118H33.8883C33.4413 26.1118 33.2057 25.9428 33.1816 25.6047C33.1695 25.2667 33.1574 24.9408 33.1453 24.6269C33.1453 24.5907 33.1393 24.5364 33.1272 24.4639C33.1151 24.3794 33.0789 24.3372 33.0185 24.3372C32.9581 24.3372 32.8735 24.3794 32.7647 24.4639C31.9553 25.1038 31.0854 25.5987 30.1551 25.9488C29.2248 26.2868 28.2402 26.4558 27.2012 26.4558ZM28.5241 22.4539C29.5873 22.4539 30.5236 22.2125 31.3331 21.7296C32.1425 21.2467 32.7345 20.4922 33.1091 19.4661C33.097 19.0436 33.091 18.6271 33.091 18.2167C33.091 17.8062 33.091 17.3958 33.091 16.9853C33.091 16.7922 33.097 16.5809 33.1091 16.3515C33.1212 16.1222 33.1151 15.917 33.091 15.7359C33.0789 15.6031 33.0124 15.428 32.8916 15.2107C32.7708 14.9934 32.6802 14.8305 32.6198 14.7218C32.1727 14.0458 31.5747 13.5448 30.8257 13.2189C30.0887 12.8808 29.3215 12.7118 28.5241 12.7118C27.6059 12.7118 26.8025 12.9412 26.1138 13.3999C25.4373 13.8587 24.9117 14.4623 24.5372 15.2107C24.1747 15.9592 23.9935 16.7741 23.9935 17.6553C23.9935 18.4883 24.1868 19.273 24.5734 20.0094C24.9721 20.7337 25.5158 21.3252 26.2044 21.784C26.8931 22.2306 27.6663 22.4539 28.5241 22.4539Z" fill="#1743BD"/>
<path d="M54.7653 26.1118C54.3425 26.1118 54.0948 25.8945 54.0223 25.4599C53.9861 25.2184 53.9498 24.977 53.9136 24.7356C53.8894 24.482 53.8653 24.2346 53.8411 23.9931C53.8411 23.9569 53.829 23.8966 53.8049 23.812C53.7807 23.7155 53.7384 23.6672 53.678 23.6672C53.6297 23.6672 53.5753 23.6974 53.5149 23.7577C53.4666 23.806 53.4303 23.8483 53.4062 23.8845C52.6088 24.802 51.6362 25.4599 50.4885 25.8583C49.3528 26.2566 48.1869 26.4558 46.9908 26.4558C46.0122 26.4558 45.0638 26.2868 44.1456 25.9488C43.2395 25.5987 42.4904 25.0675 41.8984 24.3553C41.3185 23.643 41.0286 22.7376 41.0286 21.6391C41.0286 20.2387 41.0346 18.8384 41.0467 17.438C41.0708 16.0256 41.0829 14.6252 41.0829 13.237V10.4302C41.0829 9.93527 41.3306 9.68779 41.8259 9.68779H44.6168C45.1121 9.68779 45.3598 9.93527 45.3598 10.4302V13.2732C45.3598 14.408 45.3538 15.5488 45.3417 16.6956C45.3296 17.8424 45.3296 18.9893 45.3417 20.1361C45.3659 21.0898 45.6739 21.7658 46.2659 22.1642C46.87 22.5505 47.607 22.7437 48.4769 22.7437C49.5642 22.7437 50.4885 22.4539 51.2496 21.8745C52.0107 21.295 52.5907 20.5526 52.9893 19.6472C53.4001 18.7297 53.6055 17.776 53.6055 16.7861V10.4302C53.6055 9.93527 53.8532 9.68779 54.3485 9.68779H57.1213C57.6166 9.68779 57.8643 9.93527 57.8643 10.4302C57.8643 10.9493 57.8582 11.4684 57.8461 11.9875C57.8461 12.5066 57.8461 13.0257 57.8461 13.5448C57.8461 14.8727 57.8522 16.2067 57.8643 17.5467C57.8884 18.8867 57.9066 20.2206 57.9186 21.5485C57.9307 22.1763 57.9428 22.8101 57.9549 23.4499C57.979 24.0776 57.9911 24.7114 57.9911 25.3512C57.9911 25.8583 57.7435 26.1118 57.2481 26.1118H54.7653Z" fill="#1743BD"/>
<path d="M61.1625 26.1118C60.9934 26.1118 60.8122 26.0876 60.6189 26.0393C60.4256 25.979 60.3289 25.8341 60.3289 25.6047C60.3289 25.5082 60.347 25.4116 60.3833 25.315C60.4195 25.2184 60.4558 25.1279 60.492 25.0434C61.5552 22.7497 62.6063 20.456 63.6453 18.1623C64.6964 15.8687 65.7294 13.5629 66.7442 11.2451C67.5779 9.3377 68.4055 7.43033 69.227 5.52295C70.0486 3.6035 70.4704 2.84525 71.3402 0.962015C71.3765 0.889583 71.7098 0.109481 71.9802 0.109481C72.2505 0.109481 72.5838 0.889583 72.6201 0.962015C73.4899 2.84525 73.8422 3.6035 74.6637 5.52295C75.4853 7.43033 76.3129 9.3377 77.1465 11.2451C78.1614 13.5629 79.1883 15.8687 80.2273 18.1623C81.2784 20.456 82.3355 22.7497 83.3987 25.0434C83.435 25.1279 83.4712 25.2184 83.5075 25.315C83.5437 25.4116 83.5618 25.5082 83.5618 25.6047C83.5618 25.8341 83.4652 25.979 83.2719 26.0393C83.0786 26.0876 82.8973 26.1118 82.7282 26.1118H79.0675C78.7654 26.1118 78.5359 25.9609 78.3788 25.6591C78.2822 25.4659 78.1916 25.2607 78.107 25.0434C78.0224 24.8261 77.9378 24.6209 77.8533 24.4277C77.5875 23.8241 77.3277 23.2085 77.074 22.5807C76.8324 21.953 76.5726 21.3373 76.2947 20.7337C76.2585 20.6371 76.1921 20.5888 76.0954 20.5888H67.1248C67.0282 20.5888 66.9617 20.6371 66.9255 20.7337C66.6355 21.3373 66.3576 21.953 66.0918 22.5807C65.8381 23.2085 65.5723 23.8302 65.2944 24.4458C65.2099 24.639 65.1193 24.8442 65.0226 25.0615C64.938 25.2788 64.8414 25.484 64.7327 25.6772C64.5756 25.9669 64.3521 26.1118 64.0621 26.1118H61.1625ZM68.629 16.8042H74.6637C74.1805 15.597 73.6912 14.3959 73.1958 13.2007C72.7005 11.9935 72.2051 10.7863 71.7098 9.57914C71.2024 10.7863 70.6889 11.9935 70.1694 13.2007C69.6619 14.3959 69.1485 15.597 68.629 16.8042Z" fill="#1743BD"/>
<path d="M92.8043 26.4558C91.1612 26.4558 89.7778 26.0695 88.6542 25.2969C87.5306 24.5243 86.6789 23.4921 86.099 22.2004C85.5191 20.9087 85.2291 19.4963 85.2291 17.9632C85.2291 16.2972 85.5372 14.8124 86.1533 13.5086C86.7816 12.1927 87.6937 11.1545 88.8898 10.394C90.0859 9.63347 91.5538 9.2532 93.2936 9.2532C95.2145 9.2532 96.8878 9.80851 98.3135 10.9191C98.4222 11.0036 98.5068 11.0459 98.5672 11.0459C98.6397 11.0459 98.6819 11.0036 98.694 10.9191C98.7061 10.8346 98.7122 10.7743 98.7122 10.7381C98.7122 9.60329 98.7122 8.47456 98.7122 7.35186C98.7242 6.22916 98.7363 5.10043 98.7484 3.96566C98.7605 3.43449 98.7605 2.89728 98.7484 2.35404C98.7363 1.79873 98.7484 1.26153 98.7846 0.742429C98.8209 0.247476 99.0686 0 99.5277 0H102.355C102.85 0 103.098 0.253512 103.098 0.760537C103.098 1.4245 103.086 2.08846 103.062 2.75242C103.049 3.40431 103.037 4.06223 103.025 4.72619C102.989 7.49069 102.971 10.2672 102.971 13.0559C102.971 15.8324 102.989 18.609 103.025 21.3856C103.037 22.0495 103.049 22.7135 103.062 23.3775C103.086 24.0293 103.098 24.6873 103.098 25.3512C103.098 25.8583 102.85 26.1118 102.355 26.1118H99.4914C99.0444 26.1118 98.8088 25.9428 98.7846 25.6047C98.7726 25.2667 98.7605 24.9408 98.7484 24.6269C98.7484 24.5907 98.7424 24.5364 98.7303 24.4639C98.7182 24.3794 98.6819 24.3372 98.6215 24.3372C98.5611 24.3372 98.4766 24.3794 98.3678 24.4639C97.5584 25.1038 96.6885 25.5987 95.7582 25.9488C94.8279 26.2868 93.8433 26.4558 92.8043 26.4558ZM94.1272 22.4539C95.1904 22.4539 96.1267 22.2125 96.9362 21.7296C97.7456 21.2467 98.3376 20.4922 98.7122 19.4661C98.7001 19.0436 98.694 18.6271 98.694 18.2167C98.694 17.8062 98.694 17.3958 98.694 16.9853C98.694 16.7922 98.7001 16.5809 98.7122 16.3515C98.7242 16.1222 98.7182 15.917 98.694 15.7359C98.6819 15.6031 98.6155 15.428 98.4947 15.2107C98.3739 14.9934 98.2833 14.8305 98.2228 14.7218C97.7758 14.0458 97.1778 13.5448 96.4287 13.2189C95.6917 12.8808 94.9246 12.7118 94.1272 12.7118C93.209 12.7118 92.4056 12.9412 91.7169 13.3999C91.0403 13.8587 90.5148 14.4623 90.1403 15.2107C89.7778 15.9592 89.5966 16.7741 89.5966 17.6553C89.5966 18.4883 89.7899 19.273 90.1765 20.0094C90.5752 20.7337 91.1189 21.3252 91.8075 21.784C92.4962 22.2306 93.2694 22.4539 94.1272 22.4539Z" fill="#1743BD"/>
<path d="M113.047 26.4558C111.476 26.4558 110.159 26.0816 109.096 25.3331C108.033 24.5847 107.23 23.5948 106.686 22.3634C106.154 21.12 105.889 19.774 105.889 18.3253V18.0356C105.913 16.5145 106.227 15.084 106.831 13.744C107.447 12.404 108.335 11.3236 109.495 10.5027C110.655 9.66968 112.056 9.2532 113.699 9.2532C114.714 9.2532 115.657 9.44635 116.526 9.83266C117.408 10.2069 118.23 10.7199 118.991 11.3718C119.076 11.4563 119.148 11.4986 119.209 11.4986C119.354 11.4986 119.42 11.3477 119.408 11.0459C119.408 10.7441 119.45 10.4423 119.535 10.1405C119.631 9.83869 119.873 9.68779 120.26 9.68779H122.815C123.31 9.68779 123.558 9.93527 123.558 10.4302C123.558 10.9493 123.552 11.4684 123.54 11.9875C123.54 12.5066 123.54 13.0257 123.54 13.5448C123.54 14.8727 123.546 16.2067 123.558 17.5467C123.582 18.8867 123.6 20.2206 123.612 21.5485C123.624 22.1763 123.636 22.8101 123.649 23.4499C123.673 24.0776 123.685 24.7114 123.685 25.3512C123.685 25.8583 123.437 26.1118 122.942 26.1118H120.097C119.77 26.1118 119.559 26.0092 119.462 25.8039C119.366 25.5866 119.323 25.3331 119.335 25.0434C119.348 24.7537 119.348 24.4941 119.335 24.2648C119.335 24.2285 119.329 24.1682 119.317 24.0837C119.305 23.9992 119.269 23.9569 119.209 23.9569C119.16 23.9569 119.112 23.975 119.064 24.0112C119.027 24.0475 118.991 24.0776 118.955 24.1018C118.109 24.814 117.197 25.3874 116.218 25.822C115.24 26.2446 114.183 26.4558 113.047 26.4558ZM114.895 22.5988C115.753 22.5988 116.545 22.4238 117.269 22.0737C118.006 21.7115 118.58 21.1441 118.991 20.3715C119.015 20.3232 119.07 20.2025 119.154 20.0094C119.251 19.8041 119.299 19.6774 119.299 19.6291C119.299 19.2066 119.293 18.7841 119.281 18.3615C119.281 17.939 119.281 17.5225 119.281 17.1121C119.281 16.9189 119.287 16.7077 119.299 16.4783C119.311 16.2369 119.305 16.0256 119.281 15.8445C119.269 15.76 119.221 15.6333 119.136 15.4643C119.064 15.2952 119.009 15.1745 118.973 15.1021C118.55 14.3416 117.952 13.7742 117.179 13.3999C116.406 13.0257 115.596 12.8386 114.75 12.8386C113.856 12.8386 113.071 13.0619 112.395 13.5086C111.718 13.9552 111.186 14.5468 110.8 15.2832C110.425 16.0075 110.238 16.8042 110.238 17.6734C110.238 18.5426 110.437 19.3514 110.836 20.0999C111.235 20.8484 111.784 21.452 112.485 21.9107C113.198 22.3694 114.001 22.5988 114.895 22.5988Z" fill="#1743BD"/>
<path d="M136.824 26.4558C135.905 26.4558 135.023 26.311 134.178 26.0212C133.344 25.7315 132.571 25.2848 131.858 24.6812C131.822 24.6571 131.779 24.6269 131.731 24.5907C131.695 24.5424 131.647 24.5183 131.586 24.5183C131.526 24.5183 131.49 24.5666 131.477 24.6631C131.465 24.7476 131.459 24.808 131.459 24.8442C131.435 25.6289 131.423 26.4196 131.423 27.2164C131.423 28.0252 131.411 28.8219 131.387 29.6066C131.387 29.8963 131.387 30.1921 131.387 30.4939C131.399 30.8078 131.393 31.1096 131.369 31.3993C131.345 31.6408 131.278 31.8218 131.169 31.9426C131.073 32.0633 130.891 32.1236 130.626 32.1236H127.708C127.225 32.1236 126.88 31.9063 126.88 31.3993C126.88 30.4698 126.843 29.611 126.88 28.6694C126.928 27.7278 126.855 26.603 126.88 25.6855C126.928 23.7178 126.855 21.9469 126.88 19.9913C126.904 18.0235 126.88 15.9309 126.88 13.9632C126.88 13.3716 126.892 12.7079 126.88 12.1164C126.88 11.5249 126.88 10.9855 126.88 10.394C126.88 9.89905 127.521 9.68779 128.016 9.68779H130.354C130.728 9.68779 130.958 9.83869 131.042 10.1405C131.139 10.4423 131.194 10.7441 131.206 11.0459C131.218 11.3356 131.29 11.4805 131.423 11.4805C131.471 11.4805 131.538 11.4503 131.622 11.3899C132.504 10.7139 133.423 10.1888 134.377 9.81455C135.331 9.44032 136.37 9.2532 137.494 9.2532C139.198 9.2532 140.629 9.65158 141.789 10.4483C142.949 11.2451 143.825 12.3074 144.417 13.6353C145.009 14.9633 145.305 16.4179 145.305 17.9994C145.305 19.7257 144.954 21.2226 144.254 22.4902C143.565 23.7577 142.586 24.7356 141.318 25.4237C140.049 26.1118 138.551 26.4558 136.824 26.4558ZM135.972 22.7437C136.89 22.7437 137.724 22.5324 138.473 22.1099C139.234 21.6874 139.838 21.114 140.285 20.3896C140.744 19.6532 140.974 18.8263 140.974 17.9088C140.974 16.4723 140.508 15.2952 139.578 14.3778C138.648 13.4482 137.464 12.9835 136.026 12.9835C134.999 12.9835 134.087 13.243 133.29 13.7621C132.492 14.2812 131.912 15.0236 131.55 15.9894C131.55 16.593 131.544 17.1966 131.532 17.8002C131.532 18.4038 131.532 19.0074 131.532 19.611C131.532 19.6713 131.568 19.7981 131.641 19.9913C131.725 20.1844 131.779 20.3112 131.804 20.3715C132.19 21.1562 132.77 21.7477 133.543 22.1461C134.317 22.5445 135.126 22.7437 135.972 22.7437Z" fill="#1743BD"/>
<path d="M150.035 9.43428C150.035 8.39609 150.029 7.36393 150.017 6.33781C150.005 5.29961 149.999 4.26746 149.999 3.24134C149.999 2.74638 150.246 2.49891 150.742 2.49891H153.587C154.082 2.49891 154.33 2.74638 154.33 3.24134C154.33 4.26746 154.324 5.29961 154.312 6.33781C154.312 7.36393 154.312 8.39609 154.312 9.43428C154.312 9.57914 154.39 9.65158 154.547 9.65158H156.794C157.289 9.65158 157.434 9.94859 157.434 10.4435C157.434 10.8178 157.446 11.1229 157.434 11.5092C157.434 11.8834 157.434 12.1886 157.434 12.5749C157.434 13.0698 157.289 13.4362 156.794 13.4362L154.547 13.418C154.39 13.418 154.312 13.4905 154.312 13.6353C154.312 15.591 154.318 17.5467 154.33 19.5023C154.342 21.458 154.348 23.4137 154.348 25.3693C154.348 25.8643 154.1 26.1118 153.605 26.1118H150.723C150.228 26.1118 149.98 25.8643 149.98 25.3693C149.98 23.4137 149.986 21.458 149.999 19.5023C150.023 17.5467 150.035 15.591 150.035 13.6353C150.035 13.4543 149.908 13.3698 149.654 13.3818C149.4 13.3818 149.111 13.3999 148.784 13.4362C148.475 13.418 147.914 13.418 147.622 13.418C147.368 13.3335 147.195 13.1622 147.195 12.788V10.4435C147.195 9.94859 147.419 9.65158 147.914 9.65158H149.799C149.956 9.65158 150.035 9.57914 150.035 9.43428Z" fill="#1743BD"/>
<path d="M126.88 31.3993C126.88 30.9044 127.213 32.1236 127.708 32.1236H129.167H130.626C131.121 32.1236 131.387 29.999 131.387 30.4939C131.387 32.4858 131.363 39.1256 131.351 41.1175C131.339 43.1094 131.332 45.1013 131.332 47.0931C131.332 49.085 131.339 51.0769 131.351 53.0688C131.363 55.0607 131.369 57.0526 131.369 59.0444C131.369 59.5394 131.121 59.7869 130.626 59.7869H127.491C126.995 59.7869 126.88 59.5394 126.88 59.0444C126.88 57.0526 126.867 55.0607 126.88 53.0688C126.892 51.0769 126.88 49.085 126.88 47.0931C126.88 45.1013 126.892 43.1094 126.88 41.1175C126.867 39.1256 126.88 33.3912 126.88 31.3993Z" fill="#1743BD"/>
<path d="M133.87 35.16C133.87 34.6529 134.117 34.3994 134.613 34.3994H149.98C150.476 34.3994 150.723 34.6529 150.723 35.16C150.723 35.6308 150.723 36.1136 150.723 36.6086C150.736 37.0915 150.723 37.5683 150.687 38.0391C150.651 38.522 150.403 38.7635 149.944 38.7635H144.689C144.544 38.7635 144.471 38.8359 144.471 38.9807C144.471 40.2604 144.465 41.54 144.453 42.8196C144.453 44.0872 144.453 45.3608 144.453 46.6404C144.453 48.7048 144.459 50.7751 144.471 52.8515C144.483 54.9158 144.489 56.9801 144.489 59.0444C144.489 59.5394 144.242 59.7869 143.746 59.7869H140.611C140.116 59.7869 139.868 59.5394 139.868 59.0444C139.868 56.9198 139.874 54.7951 139.886 52.6704C139.91 50.5457 139.922 48.4271 139.922 46.3145L139.904 38.9807C139.904 38.8359 139.826 38.7635 139.669 38.7635H134.649C134.19 38.7635 133.942 38.522 133.906 38.0391C133.87 37.5683 133.851 37.0915 133.851 36.6086C133.864 36.1136 133.87 35.6308 133.87 35.16Z" fill="#1743BD"/>
<path d="M154.348 59.7869C153.853 59.7869 153.605 59.5334 153.605 59.0263C153.605 58.3624 153.617 57.6984 153.641 57.0344C153.677 56.3705 153.702 55.7065 153.714 55.0426C153.75 53.6422 153.774 52.2479 153.786 50.8596C153.798 49.4593 153.804 48.0649 153.804 46.6767C153.804 44.9141 153.792 43.1516 153.768 41.3891C153.744 39.6266 153.708 37.8701 153.659 36.1197V35.9386C153.659 35.842 153.671 35.6247 153.695 35.2867C153.732 34.9487 153.847 34.7797 154.04 34.7797C154.209 34.7797 154.39 34.9004 154.583 35.1418C154.777 35.3833 154.916 35.5583 155 35.667C156.861 38.19 158.655 40.7734 160.383 43.4172C162.11 46.0489 163.88 48.6444 165.693 51.2037C165.753 51.2882 165.813 51.3304 165.874 51.3304C165.934 51.3304 165.995 51.2882 166.055 51.2037C167.916 48.6323 169.728 46.0248 171.492 43.381C173.268 40.7372 175.104 38.1478 177.001 35.6127C177.085 35.504 177.224 35.335 177.418 35.1056C177.623 34.8642 177.804 34.7435 177.961 34.7435C178.167 34.7435 178.282 34.9125 178.306 35.2505C178.33 35.5885 178.342 35.8058 178.342 35.9024V36.0835C178.294 37.846 178.257 39.6145 178.233 41.3891C178.209 43.1516 178.197 44.9141 178.197 46.6767C178.197 48.0649 178.203 49.4593 178.215 50.8596C178.227 52.2479 178.251 53.6422 178.288 55.0426C178.312 55.7065 178.336 56.3705 178.36 57.0344C178.384 57.6984 178.396 58.3624 178.396 59.0263C178.396 59.5334 178.149 59.7869 177.653 59.7869H174.536C174.27 59.7869 174.083 59.7265 173.974 59.6058C173.878 59.4851 173.817 59.304 173.793 59.0625C173.781 58.8935 173.775 58.7125 173.775 58.5193C173.775 58.3141 173.775 58.1209 173.775 57.9398L173.739 55.3142C173.715 53.9983 173.697 52.6825 173.684 51.3666C173.672 50.0508 173.666 48.7349 173.666 47.4191C173.666 47.3949 173.66 47.3225 173.648 47.2018C173.648 47.069 173.618 47.0026 173.558 47.0026C173.509 47.0026 173.455 47.0509 173.395 47.1475C173.334 47.232 173.292 47.2863 173.268 47.3104C172.482 48.5176 171.703 49.7369 170.93 50.9683C170.169 52.1875 169.396 53.4068 168.61 54.6261C168.296 55.121 167.982 55.622 167.668 56.129C167.354 56.6361 167.028 57.131 166.689 57.6139C166.617 57.7105 166.532 57.8191 166.436 57.9398C166.339 58.0485 166.218 58.1028 166.073 58.1028C165.94 58.1028 165.819 58.0545 165.711 57.958C165.614 57.8493 165.529 57.7467 165.457 57.6501C165.155 57.2276 164.853 56.799 164.551 56.3644C164.261 55.9299 163.971 55.4953 163.681 55.0607C162.835 53.8293 161.99 52.5919 161.144 51.3485C160.31 50.093 159.458 48.8557 158.589 47.6364C158.576 47.6122 158.54 47.5639 158.48 47.4915C158.419 47.407 158.365 47.3648 158.317 47.3648C158.256 47.3648 158.22 47.4251 158.208 47.5458C158.196 47.6666 158.19 47.739 158.19 47.7631C158.19 49.0428 158.184 50.3224 158.172 51.602C158.16 52.8696 158.142 54.1432 158.117 55.4228L158.081 57.9761C158.081 58.1451 158.081 58.3261 158.081 58.5193C158.093 58.7125 158.087 58.8935 158.063 59.0625C158.039 59.304 157.978 59.4851 157.882 59.6058C157.785 59.7265 157.598 59.7869 157.32 59.7869H154.348Z" fill="#1743BD"/>
<path d="M180.338 47.1475C180.338 45.4574 180.611 43.8551 181.191 42.3099C181.783 40.7526 182.79 39.3308 183.853 38.1116C184.929 36.8923 186.197 35.9326 187.659 35.2324C189.133 34.5201 190.752 34.164 192.516 34.164C194.28 34.164 196.355 34.5382 197.829 35.2505C199.303 35.9627 200.806 36.8802 201.881 38.1116C202.969 39.3308 203.555 40.43 204.147 41.9873C204.751 43.5446 205 45.6256 205 47.3156C205 49.0057 204.751 50.8856 204.147 52.4308C203.555 53.964 202.969 54.9581 201.881 56.1653C200.794 57.3725 199.303 58.3624 197.829 59.0625C196.355 59.7627 194.888 60 193.136 60C191.348 60 189.097 59.7144 187.623 59.0263C186.161 58.3261 184.814 57.3708 183.751 56.1636C182.688 54.9564 181.771 53.6593 181.191 52.1141C180.611 50.5568 180.338 48.8617 180.338 47.1475ZM192.679 55.6945C194.226 55.6945 195.912 55.29 196.976 54.445C198.051 53.6 198.979 52.6825 199.535 51.3666C200.103 50.0508 200.388 48.4633 200.388 47.075C200.388 45.6505 200.115 44.3166 199.535 43.0007C198.955 41.6849 198.075 40.6044 196.976 39.7594C195.888 38.9023 194.093 38.4918 192.534 38.4918C191.012 38.4918 189.695 38.9143 188.583 39.7594C187.484 40.6044 186.476 41.6849 185.884 43.0007C185.292 44.3045 185.031 45.5902 185.031 47.0026C185.031 48.4271 185.28 49.9336 185.884 51.2615C186.5 52.5774 187.55 53.6 188.674 54.445C189.798 55.278 191.133 55.6945 192.679 55.6945Z" fill="#1743BD"/>
<path d="M104.961 35.3802V32.6094V31.2241C104.961 31.2241 104.961 30.8019 104.961 30.5314C104.961 30.2609 105.093 30.1327 105.174 30.0518C105.255 29.9709 105.383 29.8387 105.654 29.8387C105.925 29.8387 106.347 29.8387 106.347 29.8387H107.734H110.507L114.346 36.2327L118.186 29.8387H120.959H122.345C122.345 29.8387 122.768 29.8387 123.038 29.8387C123.309 29.8387 123.518 30.0518 123.518 30.0518C123.518 30.0518 123.732 30.2609 123.732 30.5314C123.732 30.8019 123.732 31.2241 123.732 31.2241V32.6094V35.3802L117.332 39.2166L123.732 43.053V45.8237V47.2091C123.732 47.2091 123.732 47.6312 123.732 47.9018C123.732 48.1723 123.518 48.3813 123.518 48.3813C123.518 48.3813 123.305 48.5944 123.038 48.5944C122.772 48.5944 122.345 48.5944 122.345 48.5944H120.959H118.186L114.346 42.2004L110.507 48.5944H107.734H106.347C106.347 48.5944 105.921 48.5944 105.654 48.5944C105.388 48.5944 105.29 48.4971 105.174 48.3813C105.058 48.2655 104.961 48.1723 104.961 47.9018C104.961 47.6312 104.961 47.2091 104.961 47.2091V45.8237V43.053L111.36 39.2166L104.961 35.3802Z" fill="#1743BD"/>
</svg>
