<svg width="59" height="59" viewBox="0 0 59 59" fill="none" xmlns="http://www.w3.org/2000/svg">
<rect width="59" height="59" rx="10" fill="#D9DFEE"/>
<g clip-path="url(#clip0_385_4)">
<path d="M38.3336 36.3333L32.0003 30M32.0003 30L25.667 36.3333M32.0003 30V44.25M45.2845 40.1175C46.8288 39.2756 48.0487 37.9434 48.7518 36.3312C49.4548 34.7189 49.601 32.9185 49.1671 31.2139C48.7333 29.5094 47.7442 27.9979 46.3559 26.918C44.9676 25.838 43.2592 25.2512 41.5003 25.25H39.5053C39.0261 23.3963 38.1328 21.6754 36.8927 20.2166C35.6526 18.7578 34.098 17.5991 32.3456 16.8276C30.5933 16.0562 28.6888 15.692 26.7755 15.7625C24.8621 15.833 22.9897 16.3363 21.2988 17.2347C19.608 18.133 18.1428 19.4029 17.0135 20.949C15.8841 22.4951 15.1199 24.2771 14.7784 26.1611C14.4368 28.045 14.5268 29.9819 15.0416 31.826C15.5563 33.6702 16.4824 35.3736 17.7503 36.8083" stroke="#688FF0" stroke-width="4" stroke-linecap="round" stroke-linejoin="round"/>
</g>
<defs>
<clipPath id="clip0_385_4">
<rect width="38" height="38" fill="white" transform="translate(13 11)"/>
</clipPath>
</defs>
</svg>
