<svg width="707" height="195" viewBox="0 0 707 195" fill="none" xmlns="http://www.w3.org/2000/svg">
<path d="M17.136 113.44V130H13.32V116.932H6.3V130H2.484V113.44H17.136ZM20.8412 121.72C20.8412 120.016 21.2252 118.516 21.9932 117.22C22.7852 115.924 23.8532 114.916 25.1972 114.196C26.5412 113.452 28.0652 113.08 29.7692 113.08C31.4732 113.08 32.9852 113.452 34.3052 114.196C35.6492 114.916 36.7172 115.924 37.5092 117.22C38.3012 118.516 38.6972 120.016 38.6972 121.72C38.6972 123.4 38.3012 124.9 37.5092 126.22C36.7172 127.516 35.6492 128.536 34.3052 129.28C32.9852 130 31.4732 130.36 29.7692 130.36C28.0652 130.36 26.5412 130 25.1972 129.28C23.8532 128.536 22.7852 127.516 21.9932 126.22C21.2252 124.9 20.8412 123.4 20.8412 121.72ZM24.8372 121.72C24.8372 122.752 25.0532 123.664 25.4852 124.456C25.9172 125.224 26.5052 125.836 27.2492 126.292C27.9932 126.724 28.8332 126.94 29.7692 126.94C30.6812 126.94 31.5092 126.724 32.2532 126.292C33.0212 125.836 33.6212 125.224 34.0532 124.456C34.4852 123.664 34.7012 122.752 34.7012 121.72C34.7012 120.688 34.4852 119.776 34.0532 118.984C33.6212 118.192 33.0212 117.58 32.2532 117.148C31.5092 116.716 30.6812 116.5 29.7692 116.5C28.8332 116.5 27.9932 116.716 27.2492 117.148C26.5052 117.58 25.9172 118.192 25.4852 118.984C25.0532 119.776 24.8372 120.688 24.8372 121.72ZM58.1543 130L55.6343 117.58L57.6863 112.18L62.2943 130H58.1543ZM50.0543 126.616L57.6863 112.18L58.0463 118.552L51.1343 131.116L50.0543 126.616ZM51.1343 131.116L44.2943 118.552L44.6543 112.18L52.2143 126.616L51.1343 131.116ZM40.0823 130L44.6543 112.18L46.7423 117.58L44.2223 130H40.0823ZM63.6967 121.72C63.6967 120.016 64.0807 118.516 64.8487 117.22C65.6407 115.924 66.7087 114.916 68.0527 114.196C69.3967 113.452 70.9207 113.08 72.6247 113.08C74.3287 113.08 75.8407 113.452 77.1607 114.196C78.5047 114.916 79.5727 115.924 80.3647 117.22C81.1567 118.516 81.5527 120.016 81.5527 121.72C81.5527 123.4 81.1567 124.9 80.3647 126.22C79.5727 127.516 78.5047 128.536 77.1607 129.28C75.8407 130 74.3287 130.36 72.6247 130.36C70.9207 130.36 69.3967 130 68.0527 129.28C66.7087 128.536 65.6407 127.516 64.8487 126.22C64.0807 124.9 63.6967 123.4 63.6967 121.72ZM67.6927 121.72C67.6927 122.752 67.9087 123.664 68.3407 124.456C68.7727 125.224 69.3607 125.836 70.1047 126.292C70.8487 126.724 71.6887 126.94 72.6247 126.94C73.5367 126.94 74.3647 126.724 75.1087 126.292C75.8767 125.836 76.4767 125.224 76.9087 124.456C77.3407 123.664 77.5567 122.752 77.5567 121.72C77.5567 120.688 77.3407 119.776 76.9087 118.984C76.4767 118.192 75.8767 117.58 75.1087 117.148C74.3647 116.716 73.5367 116.5 72.6247 116.5C71.6887 116.5 70.8487 116.716 70.1047 117.148C69.3607 117.58 68.7727 118.192 68.3407 118.984C67.9087 119.776 67.6927 120.688 67.6927 121.72ZM99.1018 126.58H105.33V113.44H109.182V126.58H112.062V133.42H108.498V130H85.2418V113.44H89.0578V126.58H95.2858V113.44H99.1018V126.58ZM117.239 122.872V119.668H129.911V122.872H117.239ZM127.823 113.44H131.639V130H127.823V113.44ZM115.547 113.44H119.363V130H115.547V113.44ZM151.617 117.04L136.749 131.26L136.929 126.4L151.797 112.18L151.617 117.04ZM140.565 113.44V126.868L136.749 131.26V113.44H140.565ZM151.797 112.18V130H147.981V116.572L151.797 112.18ZM156.781 113.44H160.597V130H156.781V113.44ZM166.681 113.44H171.433L164.305 120.28L172.153 130H167.437L159.517 120.28L166.681 113.44ZM195.119 119.02L190.619 128.92L186.587 128.488L195.119 112.18L203.651 128.488L199.619 128.92L195.119 119.02ZM201.959 130H188.459V133.24H184.499V126.688H205.739V133.24H201.959V130ZM225.496 113.44V130H221.68V117.04H214.156V124.24C214.156 125.536 213.94 126.616 213.508 127.48C213.076 128.32 212.38 128.956 211.42 129.388C210.484 129.796 209.248 130 207.712 130V126.472C208.432 126.472 209.044 126.28 209.548 125.896C210.076 125.512 210.34 124.78 210.34 123.7V113.44H225.496ZM234.243 130H230.103L235.791 121.792H239.751L234.243 130ZM245.007 130H241.083V113.44H245.007V130ZM242.523 120.676V123.628H237.375C236.247 123.628 235.203 123.46 234.243 123.124C233.283 122.764 232.515 122.212 231.939 121.468C231.363 120.7 231.075 119.704 231.075 118.48C231.075 117.256 231.363 116.284 231.939 115.564C232.515 114.82 233.283 114.28 234.243 113.944C235.203 113.608 236.247 113.44 237.375 113.44H242.523V116.68H237.699C237.099 116.68 236.595 116.752 236.187 116.896C235.779 117.04 235.467 117.256 235.251 117.544C235.035 117.832 234.927 118.204 234.927 118.66C234.927 119.14 235.035 119.524 235.251 119.812C235.467 120.1 235.779 120.316 236.187 120.46C236.595 120.604 237.099 120.676 237.699 120.676H242.523ZM17.496 169.04L2.628 183.26L2.808 178.4L17.676 164.18L17.496 169.04ZM6.444 165.44V178.868L2.628 183.26V165.44H6.444ZM17.676 164.18V182H13.86V168.572L17.676 164.18ZM24.4963 174.872V171.668H37.1683V174.872H24.4963ZM35.0803 165.44H38.8963V182H35.0803V165.44ZM22.8043 165.44H26.6203V182H22.8043V165.44ZM42.6029 173.72C42.6029 172.016 42.9869 170.516 43.7549 169.22C44.5469 167.924 45.6149 166.916 46.9589 166.196C48.3029 165.452 49.8269 165.08 51.5309 165.08C53.2349 165.08 54.7469 165.452 56.0669 166.196C57.4109 166.916 58.4789 167.924 59.2709 169.22C60.0629 170.516 60.4589 172.016 60.4589 173.72C60.4589 175.4 60.0629 176.9 59.2709 178.22C58.4789 179.516 57.4109 180.536 56.0669 181.28C54.7469 182 53.2349 182.36 51.5309 182.36C49.8269 182.36 48.3029 182 46.9589 181.28C45.6149 180.536 44.5469 179.516 43.7549 178.22C42.9869 176.9 42.6029 175.4 42.6029 173.72ZM46.5989 173.72C46.5989 174.752 46.8149 175.664 47.2469 176.456C47.6789 177.224 48.2669 177.836 49.0109 178.292C49.7549 178.724 50.5949 178.94 51.5309 178.94C52.4429 178.94 53.2709 178.724 54.0149 178.292C54.7829 177.836 55.3829 177.224 55.8149 176.456C56.2469 175.664 56.4629 174.752 56.4629 173.72C56.4629 172.688 56.2469 171.776 55.8149 170.984C55.3829 170.192 54.7829 169.58 54.0149 169.148C53.2709 168.716 52.4429 168.5 51.5309 168.5C50.5949 168.5 49.7549 168.716 49.0109 169.148C48.2669 169.58 47.6789 170.192 47.2469 170.984C46.8149 171.776 46.5989 172.688 46.5989 173.72ZM66.7401 173.72C66.7401 174.776 66.9681 175.7 67.4241 176.492C67.8801 177.26 68.4921 177.872 69.2601 178.328C70.0521 178.784 70.9281 179.012 71.8881 179.012C72.6801 179.012 73.4361 178.892 74.1561 178.652C74.8761 178.412 75.5121 178.076 76.0641 177.644C76.6161 177.212 77.0241 176.732 77.2881 176.204V180.488C76.7121 181.064 75.9321 181.52 74.9481 181.856C73.9641 182.192 72.8841 182.36 71.7081 182.36C70.0041 182.36 68.4681 182 67.1001 181.28C65.7561 180.536 64.6881 179.516 63.8961 178.22C63.1281 176.9 62.7441 175.4 62.7441 173.72C62.7441 172.016 63.1281 170.516 63.8961 169.22C64.6881 167.924 65.7561 166.916 67.1001 166.196C68.4681 165.452 70.0041 165.08 71.7081 165.08C72.8841 165.08 73.9641 165.248 74.9481 165.584C75.9321 165.92 76.7121 166.376 77.2881 166.952V171.236C77.0241 170.684 76.6041 170.204 76.0281 169.796C75.4761 169.364 74.8401 169.028 74.1201 168.788C73.4001 168.548 72.6561 168.428 71.8881 168.428C70.9281 168.428 70.0521 168.656 69.2601 169.112C68.4921 169.568 67.8801 170.192 67.4241 170.984C66.9681 171.776 66.7401 172.688 66.7401 173.72ZM79.2816 165.44H89.7576V168.86H79.2816V165.44ZM82.6296 166.16H86.4456V182H82.6296V166.16ZM96.1937 189.92H92.2697V165.44H96.1937V189.92ZM109.91 173.72C109.91 175.544 109.538 177.116 108.794 178.436C108.05 179.732 107.066 180.728 105.842 181.424C104.618 182.096 103.286 182.432 101.846 182.432C100.43 182.432 99.1937 182.084 98.1377 181.388C97.1057 180.668 96.3017 179.66 95.7257 178.364C95.1737 177.044 94.8977 175.496 94.8977 173.72C94.8977 171.92 95.1737 170.372 95.7257 169.076C96.3017 167.78 97.1057 166.784 98.1377 166.088C99.1937 165.368 100.43 165.008 101.846 165.008C103.286 165.008 104.618 165.356 105.842 166.052C107.066 166.724 108.05 167.708 108.794 169.004C109.538 170.3 109.91 171.872 109.91 173.72ZM105.878 173.72C105.878 172.616 105.65 171.68 105.194 170.912C104.738 170.12 104.126 169.532 103.358 169.148C102.614 168.74 101.786 168.536 100.874 168.536C100.13 168.536 99.3977 168.74 98.6777 169.148C97.9577 169.532 97.3577 170.108 96.8777 170.876C96.4217 171.644 96.1937 172.592 96.1937 173.72C96.1937 174.848 96.4217 175.796 96.8777 176.564C97.3577 177.332 97.9577 177.92 98.6777 178.328C99.3977 178.712 100.13 178.904 100.874 178.904C101.786 178.904 102.614 178.712 103.358 178.328C104.126 177.92 104.738 177.332 105.194 176.564C105.65 175.772 105.878 174.824 105.878 173.72ZM116.061 177.104C116.061 177.608 116.193 178.028 116.457 178.364C116.745 178.7 117.117 178.964 117.573 179.156C118.029 179.324 118.545 179.408 119.121 179.408C119.961 179.408 120.717 179.276 121.389 179.012C122.061 178.748 122.589 178.328 122.973 177.752C123.357 177.176 123.549 176.408 123.549 175.448L124.125 177.32C124.125 178.376 123.849 179.288 123.297 180.056C122.745 180.8 122.001 181.376 121.065 181.784C120.129 182.168 119.085 182.36 117.933 182.36C116.853 182.36 115.869 182.168 114.981 181.784C114.117 181.4 113.421 180.836 112.893 180.092C112.389 179.324 112.137 178.376 112.137 177.248C112.137 176.12 112.425 175.148 113.001 174.332C113.577 173.516 114.393 172.892 115.449 172.46C116.529 172.028 117.789 171.812 119.229 171.812C120.189 171.812 121.041 171.932 121.785 172.172C122.553 172.412 123.189 172.688 123.693 173C124.197 173.312 124.545 173.588 124.737 173.828V175.88C123.993 175.328 123.237 174.932 122.469 174.692C121.701 174.428 120.813 174.296 119.805 174.296C118.989 174.296 118.293 174.416 117.717 174.656C117.165 174.872 116.745 175.196 116.457 175.628C116.193 176.036 116.061 176.528 116.061 177.104ZM115.197 169.796L113.649 167.024C114.393 166.568 115.341 166.124 116.493 165.692C117.645 165.26 118.965 165.044 120.453 165.044C121.821 165.044 123.021 165.248 124.053 165.656C125.085 166.064 125.889 166.652 126.465 167.42C127.065 168.164 127.365 169.088 127.365 170.192V182H123.549V170.624C123.549 169.856 123.225 169.268 122.577 168.86C121.953 168.428 121.185 168.212 120.273 168.212C119.481 168.212 118.749 168.308 118.077 168.5C117.405 168.692 116.817 168.92 116.313 169.184C115.833 169.424 115.461 169.628 115.197 169.796ZM133.621 174.872V171.668H146.293V174.872H133.621ZM144.205 165.44H148.021V182H144.205V165.44ZM131.929 165.44H135.745V182H131.929V165.44ZM154.68 174.872V171.668H167.352V174.872H154.68ZM165.264 165.44H169.08V182H165.264V165.44ZM152.988 165.44H156.804V182H152.988V165.44ZM190.103 165.44H194.027V182H190.103V165.44ZM174.047 165.44H177.935V182H174.047V165.44ZM176.747 174.368V171.452H181.895C183.599 171.452 185.027 171.872 186.179 172.712C187.355 173.528 187.943 174.824 187.943 176.6C187.943 177.776 187.679 178.772 187.151 179.588C186.623 180.38 185.903 180.98 184.991 181.388C184.079 181.796 183.047 182 181.895 182H176.747V178.796H181.535C182.111 178.796 182.591 178.712 182.975 178.544C183.359 178.376 183.659 178.124 183.875 177.788C184.091 177.452 184.199 177.056 184.199 176.6C184.199 175.88 183.971 175.328 183.515 174.944C183.059 174.56 182.399 174.368 181.535 174.368H176.747ZM208.512 165.44H212.868L206.928 173.468L213.228 182H208.872L204.876 176.312L200.952 182H196.488L202.824 173.468L196.848 165.44H201.312L204.876 170.624L208.512 165.44ZM229.092 173.72C229.092 174.776 229.32 175.7 229.776 176.492C230.232 177.26 230.844 177.872 231.612 178.328C232.404 178.784 233.28 179.012 234.24 179.012C235.032 179.012 235.788 178.892 236.508 178.652C237.228 178.412 237.864 178.076 238.416 177.644C238.968 177.212 239.376 176.732 239.64 176.204V180.488C239.064 181.064 238.284 181.52 237.3 181.856C236.316 182.192 235.236 182.36 234.06 182.36C232.356 182.36 230.82 182 229.452 181.28C228.108 180.536 227.04 179.516 226.248 178.22C225.48 176.9 225.096 175.4 225.096 173.72C225.096 172.016 225.48 170.516 226.248 169.22C227.04 167.924 228.108 166.916 229.452 166.196C230.82 165.452 232.356 165.08 234.06 165.08C235.236 165.08 236.316 165.248 237.3 165.584C238.284 165.92 239.064 166.376 239.64 166.952V171.236C239.376 170.684 238.956 170.204 238.38 169.796C237.828 169.364 237.192 169.028 236.472 168.788C235.752 168.548 235.008 168.428 234.24 168.428C233.28 168.428 232.404 168.656 231.612 169.112C230.844 169.568 230.232 170.192 229.776 170.984C229.32 171.776 229.092 172.688 229.092 173.72ZM241.633 165.44H252.109V168.86H241.633V165.44ZM244.981 166.16H248.797V182H244.981V166.16ZM270.507 165.44L259.707 189.92H255.567L259.887 180.056L253.227 165.44H257.691L262.983 178.544L261.147 178.436L266.331 165.44H270.507ZM280.267 171.02L275.767 180.92L271.735 180.488L280.267 164.18L288.799 180.488L284.767 180.92L280.267 171.02ZM287.107 182H273.607V185.24H269.647V178.688H290.887V185.24H287.107V182ZM296.028 174.62V171.956H306.432C306.336 171.164 306.12 170.48 305.784 169.904C305.472 169.304 305.028 168.848 304.452 168.536C303.876 168.2 303.168 168.032 302.328 168.032C301.464 168.032 300.684 168.224 299.988 168.608C299.292 168.968 298.74 169.508 298.332 170.228C297.924 170.924 297.72 171.752 297.72 172.712L297.648 173.72C297.648 174.944 297.84 175.964 298.224 176.78C298.632 177.572 299.184 178.172 299.88 178.58C300.6 178.964 301.428 179.156 302.364 179.156C303.132 179.156 303.804 179.048 304.38 178.832C304.98 178.616 305.508 178.316 305.964 177.932C306.42 177.524 306.804 177.056 307.116 176.528L310.464 177.896C309.912 178.784 309.276 179.564 308.556 180.236C307.86 180.908 306.996 181.436 305.964 181.82C304.956 182.18 303.696 182.36 302.184 182.36C300.48 182.36 298.992 181.988 297.72 181.244C296.448 180.5 295.464 179.48 294.768 178.184C294.072 176.864 293.724 175.376 293.724 173.72C293.724 173.408 293.736 173.108 293.76 172.82C293.784 172.532 293.82 172.244 293.868 171.956C294.108 170.588 294.588 169.388 295.308 168.356C296.052 167.324 297.024 166.52 298.224 165.944C299.424 165.368 300.804 165.08 302.364 165.08C304.068 165.08 305.532 165.428 306.756 166.124C308.004 166.796 308.964 167.768 309.636 169.04C310.308 170.288 310.644 171.788 310.644 173.54C310.644 173.684 310.644 173.852 310.644 174.044C310.644 174.212 310.62 174.404 310.572 174.62H296.028ZM316.082 174.872V171.668H328.754V174.872H316.082ZM326.666 165.44H330.482V182H326.666V165.44ZM314.39 165.44H318.206V182H314.39V165.44ZM333.145 165.44H343.621V168.86H333.145V165.44ZM336.493 166.16H340.309V182H336.493V166.16ZM344.49 173.72C344.49 172.016 344.874 170.516 345.642 169.22C346.434 167.924 347.502 166.916 348.846 166.196C350.19 165.452 351.714 165.08 353.418 165.08C355.122 165.08 356.634 165.452 357.954 166.196C359.298 166.916 360.366 167.924 361.158 169.22C361.95 170.516 362.346 172.016 362.346 173.72C362.346 175.4 361.95 176.9 361.158 178.22C360.366 179.516 359.298 180.536 357.954 181.28C356.634 182 355.122 182.36 353.418 182.36C351.714 182.36 350.19 182 348.846 181.28C347.502 180.536 346.434 179.516 345.642 178.22C344.874 176.9 344.49 175.4 344.49 173.72ZM348.486 173.72C348.486 174.752 348.702 175.664 349.134 176.456C349.566 177.224 350.154 177.836 350.898 178.292C351.642 178.724 352.482 178.94 353.418 178.94C354.33 178.94 355.158 178.724 355.902 178.292C356.67 177.836 357.27 177.224 357.702 176.456C358.134 175.664 358.35 174.752 358.35 173.72C358.35 172.688 358.134 171.776 357.702 170.984C357.27 170.192 356.67 169.58 355.902 169.148C355.158 168.716 354.33 168.5 353.418 168.5C352.482 168.5 351.642 168.716 350.898 169.148C350.154 169.58 349.566 170.192 349.134 170.984C348.702 171.776 348.486 172.688 348.486 173.72ZM368.519 173.36H373.775C374.927 173.36 375.959 173.48 376.871 173.72C377.783 173.96 378.503 174.38 379.031 174.98C379.559 175.58 379.823 176.42 379.823 177.5C379.823 178.748 379.403 179.816 378.563 180.704C377.747 181.568 376.391 182 374.495 182H368.519V179.12H373.307C374.267 179.12 374.963 178.916 375.395 178.508C375.827 178.1 376.043 177.62 376.043 177.068C376.043 176.78 375.983 176.516 375.863 176.276C375.743 176.036 375.575 175.82 375.359 175.628C375.167 175.436 374.891 175.292 374.531 175.196C374.195 175.1 373.787 175.052 373.307 175.052H368.519V173.36ZM368.519 174.08V172.208H372.947C373.307 172.208 373.631 172.16 373.919 172.064C374.231 171.968 374.483 171.824 374.675 171.632C374.867 171.44 375.023 171.224 375.143 170.984C375.263 170.744 375.323 170.492 375.323 170.228C375.323 169.676 375.107 169.22 374.675 168.86C374.267 168.5 373.691 168.32 372.947 168.32H368.519V165.44H373.415C374.447 165.44 375.383 165.596 376.223 165.908C377.087 166.196 377.783 166.676 378.311 167.348C378.839 167.996 379.103 168.86 379.103 169.94C379.103 170.876 378.839 171.656 378.311 172.28C377.783 172.88 377.087 173.336 376.223 173.648C375.383 173.936 374.447 174.08 373.415 174.08H368.519ZM366.251 165.44H370.067V182H366.251V165.44Z" fill="#161312"/>
<path d="M87.0487 4.50407C87.0487 2.96609 88.131 2.19711 89.6291 2.19711H135.559C137.057 2.19711 137.806 2.96609 137.806 4.50407C137.806 5.93219 137.806 7.39693 137.806 8.89828C137.806 10.363 137.77 11.8094 137.697 13.2376C137.587 14.7023 136.838 15.4347 135.45 15.4347H104.318C103.88 15.4347 103.66 15.6544 103.66 16.0938C103.66 19.0599 103.66 22.026 103.66 24.9921C103.697 27.9216 103.715 30.8694 103.715 33.8354C103.715 34.2749 103.934 34.4946 104.373 34.4946H131.339C132.837 34.4946 133.586 35.2453 133.586 36.7466V44.2717C133.586 45.7731 132.837 46.5237 131.339 46.5237H104.373C103.934 46.5237 103.715 46.7434 103.715 47.1829C103.715 50.1856 103.697 53.2066 103.66 56.2459C103.66 59.2486 103.66 62.2697 103.66 65.309C103.66 65.7484 103.88 65.9681 104.318 65.9681H136.765C138.154 65.9681 138.903 66.7005 139.012 68.1652C139.085 69.5934 139.122 71.0581 139.122 72.5595C139.158 74.0242 139.177 75.4706 139.177 76.8987C139.177 78.4367 138.428 79.2057 136.93 79.2057H90.0129C88.5147 79.2057 87.0487 78.4367 87.0487 76.8987C87.0487 74.8847 87.0122 72.4464 87.0487 70.469C87.1218 68.455 87.0122 66.6645 87.0487 64.6505C87.1583 56.2283 87.0487 47.8224 87.0487 39.4368C87.0487 33.5412 87.1583 27.8035 87.0487 21.9812C86.9391 16.1222 87.0487 10.363 87.0487 4.50407Z" fill="#1743BD"/>
<path d="M169.267 80.2493C164.298 80.2493 160.114 79.0775 156.716 76.734C153.317 74.3904 150.741 71.2595 148.988 67.3413C147.234 63.4231 146.357 59.1388 146.357 54.4883C146.357 49.4349 147.288 44.9308 149.152 40.976C151.052 36.9846 153.811 33.8354 157.428 31.5285C161.046 29.2215 165.485 28.068 170.747 28.068C176.557 28.068 181.617 29.7525 185.929 33.1214C186.258 33.3777 186.514 33.5059 186.696 33.5059C186.916 33.5059 187.043 33.3777 187.08 33.1214C187.116 32.8651 187.135 32.682 187.135 32.5721C187.135 29.13 187.135 25.7062 187.135 22.3006C187.171 18.8951 187.208 15.4713 187.244 12.0292C187.281 10.4179 187.281 8.78843 187.244 7.1406C187.208 5.45615 187.244 3.82663 187.354 2.25203C187.464 0.750678 188.213 0 189.601 0H198.151C199.65 0 200.399 0.768987 200.399 2.30696C200.399 4.32098 200.362 6.33499 200.289 8.34901C200.252 10.3264 200.216 12.3221 200.179 14.3361C200.07 22.7217 200.015 31.144 200.015 39.6029C200.015 48.0251 200.07 56.4473 200.179 64.8696C200.216 66.8836 200.252 68.8976 200.289 70.9116C200.362 72.889 200.399 74.8847 200.399 76.8987C200.399 78.4367 199.65 79.2057 198.151 79.2057H189.492C188.14 79.2057 187.427 78.693 187.354 77.6677C187.317 76.6424 187.281 75.6537 187.244 74.7016C187.244 74.5918 187.226 74.427 187.19 74.2073C187.153 73.951 187.043 73.8228 186.861 73.8228C186.678 73.8228 186.422 73.951 186.093 74.2073C183.645 76.1481 181.014 77.6494 178.201 78.7113C175.387 79.7367 172.409 80.2493 169.267 80.2493ZM173.268 68.1103C176.484 68.1103 179.315 67.3779 181.763 65.9132C184.212 64.4485 186.002 62.1598 187.135 59.0472C187.098 57.7656 187.08 56.5023 187.08 55.2572C187.08 54.0122 187.08 52.7672 187.08 51.5222C187.08 50.9363 187.098 50.2954 187.135 49.5997C187.171 48.9039 187.153 48.2814 187.08 47.7321C187.043 47.3293 186.842 46.7984 186.477 46.1392C186.112 45.4801 185.838 44.9858 185.655 44.6562C184.303 42.6056 182.494 41.0859 180.229 40.0972C178 39.0719 175.68 38.5592 173.268 38.5592C170.491 38.5592 168.061 39.255 165.978 40.6465C163.932 42.038 162.343 43.8689 161.21 46.1392C160.114 48.4096 159.566 50.8813 159.566 53.5545C159.566 56.0812 160.15 58.4613 161.32 60.6951C162.525 62.8922 164.17 64.6865 166.252 66.078C168.335 67.4329 170.674 68.1103 173.268 68.1103Z" fill="#1743BD"/>
<path d="M252.632 79.2057C251.353 79.2057 250.604 78.5466 250.385 77.2283C250.275 76.4959 250.165 75.7636 250.056 75.0312C249.983 74.2622 249.91 73.5115 249.836 72.7792C249.836 72.6693 249.8 72.4862 249.727 72.2299C249.654 71.9369 249.526 71.7905 249.343 71.7905C249.197 71.7905 249.033 71.882 248.85 72.0651C248.704 72.2116 248.594 72.3397 248.521 72.4496C246.109 75.2326 243.168 77.2283 239.697 78.4367C236.262 79.6451 232.736 80.2493 229.119 80.2493C226.159 80.2493 223.291 79.7367 220.514 78.7113C217.773 77.6494 215.508 76.0382 213.717 73.8777C211.963 71.7172 211.086 68.9708 211.086 65.6386C211.086 61.3908 211.105 57.1431 211.141 52.8953C211.214 48.611 211.251 44.3632 211.251 40.1521V31.6383C211.251 30.137 212 29.3863 213.498 29.3863H221.939C223.437 29.3863 224.186 30.137 224.186 31.6383V40.262C224.186 43.7041 224.168 47.1646 224.131 50.6433C224.094 54.1221 224.094 57.6008 224.131 61.0796C224.204 63.9724 225.136 66.0231 226.926 67.2315C228.753 68.4033 230.982 68.9892 233.613 68.9892C236.902 68.9892 239.697 68.1103 241.999 66.3526C244.301 64.5949 246.055 62.3429 247.26 59.5965C248.503 56.8135 249.124 53.9207 249.124 50.9179V31.6383C249.124 30.137 249.873 29.3863 251.371 29.3863H259.757C261.255 29.3863 262.004 30.137 262.004 31.6383C262.004 33.2129 261.986 34.7875 261.949 36.3621C261.949 37.9367 261.949 39.5113 261.949 41.0859C261.949 45.1139 261.968 49.1603 262.004 53.2249C262.077 57.2896 262.132 61.3359 262.169 65.3639C262.205 67.2681 262.242 69.1906 262.278 71.1313C262.351 73.0355 262.388 74.958 262.388 76.8987C262.388 78.4367 261.639 79.2057 260.141 79.2057H252.632Z" fill="#1743BD"/>
<path d="M271.979 79.2057C271.468 79.2057 270.92 79.1325 270.335 78.986C269.751 78.8029 269.458 78.3635 269.458 77.6677C269.458 77.3748 269.513 77.0818 269.623 76.7889C269.732 76.4959 269.842 76.2213 269.951 75.965C273.167 69.0075 276.346 62.05 279.488 55.0925C282.667 48.1349 285.791 41.1408 288.861 34.1101C291.382 28.3244 293.885 22.5387 296.37 16.7529C298.854 10.9306 300.13 8.63059 302.761 2.91811C302.87 2.6984 303.878 0.332091 304.696 0.332091C305.514 0.332091 306.522 2.6984 306.631 2.91811C309.262 8.63059 310.328 10.9306 312.812 16.7529C315.297 22.5387 317.8 28.3244 320.321 34.1101C323.39 41.1408 326.496 48.1349 329.639 55.0925C332.818 62.05 336.015 69.0075 339.23 75.965C339.34 76.2213 339.45 76.4959 339.559 76.7889C339.669 77.0818 339.724 77.3748 339.724 77.6677C339.724 78.3635 339.431 78.8029 338.847 78.986C338.262 79.1325 337.714 79.2057 337.202 79.2057H326.131C325.217 79.2057 324.523 78.748 324.048 77.8325C323.756 77.2466 323.482 76.6241 323.226 75.965C322.97 75.3058 322.714 74.6833 322.459 74.0974C321.655 72.2665 320.869 70.399 320.102 68.4948C319.371 66.5906 318.586 64.7231 317.745 62.8922C317.635 62.5992 317.435 62.4528 317.142 62.4528H290.012C289.719 62.4528 289.518 62.5992 289.409 62.8922C288.532 64.7231 287.691 66.5906 286.888 68.4948C286.12 70.399 285.316 72.2848 284.476 74.1524C284.22 74.7383 283.946 75.3608 283.654 76.0199C283.398 76.679 283.106 77.3015 282.777 77.8874C282.302 78.7663 281.626 79.2057 280.749 79.2057H271.979ZM294.561 50.9729H312.812C311.351 47.311 309.871 43.6675 308.373 40.0423C306.875 36.3804 305.376 32.7186 303.878 29.0567C302.344 32.7186 300.791 36.3804 299.22 40.0423C297.685 43.6675 296.132 47.311 294.561 50.9729Z" fill="#1743BD"/>
<path d="M367.676 80.2493C362.707 80.2493 358.523 79.0775 355.125 76.734C351.727 74.3904 349.151 71.2595 347.397 67.3413C345.643 63.4231 344.766 59.1388 344.766 54.4883C344.766 49.4349 345.698 44.9308 347.561 40.976C349.461 36.9846 352.22 33.8354 355.837 31.5285C359.455 29.2215 363.894 28.068 369.156 28.068C374.966 28.068 380.027 29.7525 384.338 33.1214C384.667 33.3777 384.923 33.5059 385.106 33.5059C385.325 33.5059 385.453 33.3777 385.489 33.1214C385.526 32.8651 385.544 32.682 385.544 32.5721C385.544 29.13 385.544 25.7062 385.544 22.3006C385.581 18.8951 385.617 15.4713 385.654 12.0292C385.69 10.4179 385.69 8.78843 385.654 7.1406C385.617 5.45615 385.654 3.82663 385.763 2.25203C385.873 0.750678 386.622 0 388.01 0H396.561C398.059 0 398.808 0.768987 398.808 2.30696C398.808 4.32098 398.771 6.33499 398.698 8.34901C398.662 10.3264 398.625 12.3221 398.589 14.3361C398.479 22.7217 398.424 31.144 398.424 39.6029C398.424 48.0251 398.479 56.4473 398.589 64.8696C398.625 66.8836 398.662 68.8976 398.698 70.9116C398.771 72.889 398.808 74.8847 398.808 76.8987C398.808 78.4367 398.059 79.2057 396.561 79.2057H387.901C386.549 79.2057 385.836 78.693 385.763 77.6677C385.727 76.6424 385.69 75.6537 385.654 74.7016C385.654 74.5918 385.635 74.427 385.599 74.2073C385.562 73.951 385.453 73.8228 385.27 73.8228C385.087 73.8228 384.832 73.951 384.503 74.2073C382.055 76.1481 379.424 77.6494 376.61 78.7113C373.797 79.7367 370.819 80.2493 367.676 80.2493ZM371.677 68.1103C374.893 68.1103 377.725 67.3779 380.173 65.9132C382.621 64.4485 384.411 62.1598 385.544 59.0472C385.508 57.7656 385.489 56.5023 385.489 55.2572C385.489 54.0122 385.489 52.7672 385.489 51.5222C385.489 50.9363 385.508 50.2954 385.544 49.5997C385.581 48.9039 385.562 48.2814 385.489 47.7321C385.453 47.3293 385.252 46.7984 384.886 46.1392C384.521 45.4801 384.247 44.9858 384.064 44.6562C382.712 42.6056 380.904 41.0859 378.638 40.0972C376.409 39.0719 374.089 38.5592 371.677 38.5592C368.9 38.5592 366.47 39.255 364.388 40.6465C362.342 42.038 360.752 43.8689 359.619 46.1392C358.523 48.4096 357.975 50.8813 357.975 53.5545C357.975 56.0812 358.56 58.4613 359.729 60.6951C360.935 62.8922 362.579 64.6865 364.662 66.078C366.745 67.4329 369.083 68.1103 371.677 68.1103Z" fill="#1743BD"/>
<path d="M428.898 80.2493C424.148 80.2493 420.165 79.1142 416.95 76.8438C413.734 74.5735 411.304 71.5708 409.66 67.8357C408.052 64.064 407.249 59.981 407.249 55.5868V54.708C407.322 50.094 408.272 45.7547 410.099 41.6901C411.962 37.6255 414.648 34.3481 418.156 31.858C421.663 29.3314 425.902 28.068 430.871 28.068C433.941 28.068 436.791 28.6539 439.421 29.8257C442.089 30.9609 444.574 32.5172 446.876 34.4946C447.131 34.7509 447.351 34.8791 447.533 34.8791C447.972 34.8791 448.173 34.4213 448.136 33.5059C448.136 32.5904 448.264 31.675 448.52 30.7595C448.812 29.844 449.543 29.3863 450.712 29.3863H458.44C459.938 29.3863 460.687 30.137 460.687 31.6383C460.687 33.2129 460.669 34.7875 460.633 36.3621C460.633 37.9367 460.633 39.5113 460.633 41.0859C460.633 45.1139 460.651 49.1603 460.687 53.2249C460.761 57.2896 460.815 61.3359 460.852 65.3639C460.888 67.2681 460.925 69.1906 460.961 71.1313C461.035 73.0355 461.071 74.958 461.071 76.8987C461.071 78.4367 460.322 79.2057 458.824 79.2057H450.219C449.232 79.2057 448.593 78.8944 448.301 78.2719C448.008 77.6128 447.88 76.8438 447.917 75.965C447.953 75.0861 447.953 74.2988 447.917 73.6031C447.917 73.4932 447.899 73.3101 447.862 73.0538C447.826 72.7975 447.716 72.6693 447.533 72.6693C447.387 72.6693 447.241 72.7242 447.095 72.8341C446.985 72.9439 446.876 73.0355 446.766 73.1087C444.208 75.2692 441.449 77.0086 438.49 78.3269C435.53 79.6085 432.333 80.2493 428.898 80.2493ZM434.489 68.5497C437.083 68.5497 439.476 68.0188 441.669 66.9568C443.898 65.8583 445.633 64.1372 446.876 61.7936C446.949 61.6472 447.113 61.281 447.369 60.6951C447.661 60.0726 447.807 59.6881 447.807 59.5416C447.807 58.2599 447.789 56.9783 447.752 55.6967C447.752 54.415 447.752 53.1517 447.752 51.9067C447.752 51.3208 447.771 50.6799 447.807 49.9842C447.844 49.2518 447.826 48.611 447.752 48.0617C447.716 47.8054 447.57 47.4209 447.314 46.9082C447.095 46.3956 446.93 46.0294 446.821 45.8097C445.542 43.5027 443.733 41.7816 441.395 40.6465C439.056 39.5113 436.608 38.9437 434.05 38.9437C431.346 38.9437 428.971 39.6212 426.925 40.976C424.879 42.3309 423.271 44.1252 422.102 46.359C420.969 48.5561 420.403 50.9729 420.403 53.6094C420.403 56.2459 421.006 58.6994 422.211 60.9697C423.417 63.2401 425.08 65.071 427.199 66.4625C429.355 67.854 431.785 68.5497 434.489 68.5497Z" fill="#1743BD"/>
<path d="M500.808 80.2493C498.031 80.2493 495.363 79.8099 492.806 78.9311C490.284 78.0522 487.946 76.6973 485.79 74.8664C485.68 74.7932 485.553 74.7016 485.406 74.5918C485.297 74.4453 485.151 74.3721 484.968 74.3721C484.785 74.3721 484.676 74.5185 484.639 74.8115C484.603 75.0678 484.584 75.2509 484.584 75.3608C484.511 77.741 484.475 80.1395 484.475 82.5563C484.475 85.0097 484.438 87.4265 484.365 89.8067C484.365 90.6856 484.365 91.5827 484.365 92.4982C484.402 93.4503 484.383 94.3657 484.31 95.2446C484.237 95.977 484.036 96.5262 483.707 96.8924C483.415 97.2586 482.867 97.4417 482.063 97.4417H473.239C471.777 97.4417 470.733 96.7826 470.733 95.2446C470.733 92.425 470.624 89.82 470.733 86.9638C470.879 84.1075 470.66 80.6957 470.733 77.9127C470.879 71.9439 470.66 66.5723 470.733 60.6401C470.806 54.6713 470.733 48.3237 470.733 42.3549C470.733 40.5606 470.77 38.5473 470.733 36.753C470.733 34.9587 470.733 33.3228 470.733 31.5285C470.733 30.0271 472.672 29.3863 474.171 29.3863H481.241C482.374 29.3863 483.068 29.844 483.324 30.7595C483.616 31.675 483.78 32.5904 483.817 33.5059C483.853 34.3847 484.073 34.8241 484.475 34.8241C484.621 34.8241 484.822 34.7326 485.078 34.5495C487.745 32.4989 490.522 30.906 493.409 29.7708C496.295 28.6356 499.438 28.068 502.836 28.068C507.988 28.068 512.318 29.2764 515.826 31.6933C519.333 34.1101 521.982 37.3325 523.773 41.3605C525.563 45.3886 526.458 49.8011 526.458 54.5981C526.458 59.8345 525.399 64.3752 523.28 68.2202C521.197 72.0651 518.237 75.0312 514.4 77.1184C510.564 79.2057 506.033 80.2493 500.808 80.2493ZM498.232 68.9892C501.009 68.9892 503.53 68.3483 505.795 67.0667C508.097 65.785 509.924 64.0457 511.276 61.8486C512.665 59.6148 513.359 57.1065 513.359 54.3235C513.359 49.9659 511.952 46.3956 509.139 43.6126C506.325 40.7929 502.744 39.3831 498.396 39.3831C495.29 39.3831 492.532 40.1704 490.12 41.745C487.708 43.3196 485.954 45.5717 484.858 48.5011C484.858 50.3321 484.84 52.163 484.803 53.9939C484.803 55.8248 484.803 57.6557 484.803 59.4867C484.803 59.6698 484.913 60.0543 485.132 60.6401C485.388 61.226 485.553 61.6105 485.626 61.7936C486.795 64.1738 488.549 65.9681 490.887 67.1765C493.226 68.385 495.674 68.9892 498.232 68.9892Z" fill="#1743BD"/>
<path d="M540.764 28.6173C540.764 25.4681 540.745 22.3373 540.709 19.2247C540.672 16.0755 540.654 12.9446 540.654 9.83205C540.654 8.3307 541.403 7.58002 542.901 7.58002H551.506C553.004 7.58002 553.753 8.3307 553.753 9.83205C553.753 12.9446 553.735 16.0755 553.699 19.2247C553.699 22.3373 553.699 25.4681 553.699 28.6173C553.699 29.0567 553.936 29.2764 554.411 29.2764H561.205C562.703 29.2764 563.14 30.1774 563.14 31.6787C563.14 32.8139 563.177 33.7395 563.14 34.9113C563.14 36.0464 563.14 36.972 563.14 38.1438C563.14 39.6452 562.703 40.7563 561.205 40.7563L554.411 40.7014C553.936 40.7014 553.699 40.9211 553.699 41.3605C553.699 47.2927 553.717 53.2249 553.753 59.1571C553.79 65.0893 553.808 71.0215 553.808 76.9537C553.808 78.455 553.059 79.2057 551.561 79.2057H542.846C541.348 79.2057 540.599 78.455 540.599 76.9537C540.599 71.0215 540.618 65.0893 540.654 59.1571C540.727 53.2249 540.764 47.2927 540.764 41.3605C540.764 40.8113 540.38 40.5549 539.613 40.5915C538.845 40.5915 537.968 40.6465 536.982 40.7563C536.046 40.7014 534.351 40.7014 533.465 40.7014C532.698 40.4451 532.175 39.9255 532.175 38.7903V31.6787C532.175 30.1774 532.853 29.2764 534.351 29.2764H540.051C540.526 29.2764 540.764 29.0567 540.764 28.6173Z" fill="#1743BD"/>
<path d="M470.733 95.2446C470.733 93.7432 471.741 97.4417 473.239 97.4417H477.651H482.063C483.561 97.4417 484.365 90.9968 484.365 92.4982C484.365 98.5402 484.292 118.681 484.255 124.723C484.219 130.765 484.201 136.807 484.201 142.849C484.201 148.891 484.219 154.933 484.255 160.975C484.292 167.017 484.31 173.059 484.31 179.101C484.31 180.603 483.561 181.353 482.063 181.353H472.581C471.083 181.353 470.733 180.603 470.733 179.101C470.733 173.059 470.697 167.017 470.733 160.975C470.77 154.933 470.733 148.891 470.733 142.849C470.733 136.807 470.77 130.765 470.733 124.723C470.697 118.681 470.733 101.287 470.733 95.2446Z" fill="#1743BD"/>
<path d="M491.874 106.652C491.874 105.114 492.623 104.345 494.121 104.345H540.599C542.097 104.345 542.846 105.114 542.846 106.652C542.846 108.08 542.846 109.545 542.846 111.046C542.883 112.511 542.846 113.957 542.737 115.385C542.627 116.85 541.878 117.582 540.49 117.582H524.595C524.156 117.582 523.937 117.802 523.937 118.242C523.937 122.123 523.919 126.005 523.882 129.886C523.882 133.731 523.882 137.594 523.882 141.476C523.882 147.738 523.901 154.018 523.937 160.316C523.974 166.578 523.992 172.84 523.992 179.101C523.992 180.603 523.243 181.353 521.745 181.353H512.263C510.765 181.353 510.016 180.603 510.016 179.101C510.016 172.657 510.034 166.212 510.071 159.767C510.144 153.322 510.18 146.896 510.18 140.487L510.125 118.242C510.125 117.802 509.888 117.582 509.413 117.582H494.231C492.842 117.582 492.093 116.85 491.984 115.385C491.874 113.957 491.819 112.511 491.819 111.046C491.856 109.545 491.874 108.08 491.874 106.652Z" fill="#1743BD"/>
<path d="M553.808 181.353C552.31 181.353 551.561 180.585 551.561 179.047C551.561 177.033 551.598 175.018 551.671 173.004C551.78 170.99 551.853 168.976 551.89 166.962C552 162.715 552.073 158.485 552.109 154.274C552.146 150.026 552.164 145.797 552.164 141.586C552.164 136.24 552.127 130.893 552.054 125.547C551.981 120.201 551.872 114.873 551.726 109.563V109.014C551.726 108.721 551.762 108.062 551.835 107.036C551.945 106.011 552.292 105.498 552.877 105.498C553.388 105.498 553.936 105.865 554.521 106.597C555.105 107.329 555.526 107.86 555.781 108.19C561.409 115.843 566.835 123.679 572.06 131.699C577.285 139.682 582.638 147.555 588.119 155.318C588.302 155.574 588.484 155.702 588.667 155.702C588.85 155.702 589.032 155.574 589.215 155.318C594.842 147.518 600.323 139.608 605.658 131.589C611.029 123.57 616.583 115.715 622.32 108.025C622.576 107.695 622.996 107.183 623.58 106.487C624.202 105.755 624.75 105.389 625.225 105.389C625.846 105.389 626.193 105.901 626.266 106.926C626.339 107.952 626.376 108.611 626.376 108.904V109.453C626.229 114.799 626.12 120.164 626.047 125.547C625.974 130.893 625.937 136.24 625.937 141.586C625.937 145.797 625.955 150.026 625.992 154.274C626.029 158.485 626.102 162.715 626.211 166.962C626.284 168.976 626.357 170.99 626.43 173.004C626.504 175.018 626.54 177.033 626.54 179.047C626.54 180.585 625.791 181.353 624.293 181.353H614.866C614.062 181.353 613.495 181.17 613.167 180.804C612.874 180.438 612.692 179.889 612.619 179.156C612.582 178.644 612.564 178.094 612.564 177.509C612.564 176.886 612.564 176.3 612.564 175.751L612.454 167.786C612.381 163.795 612.326 159.804 612.29 155.812C612.253 151.821 612.235 147.829 612.235 143.838C612.235 143.765 612.217 143.545 612.18 143.179C612.18 142.776 612.089 142.575 611.906 142.575C611.76 142.575 611.595 142.721 611.413 143.014C611.23 143.27 611.102 143.435 611.029 143.508C608.654 147.17 606.297 150.869 603.959 154.604C601.657 158.302 599.318 162.001 596.943 165.699C595.993 167.2 595.043 168.72 594.093 170.258C593.143 171.796 592.156 173.297 591.133 174.762C590.914 175.055 590.658 175.385 590.366 175.751C590.074 176.08 589.708 176.245 589.27 176.245C588.868 176.245 588.503 176.099 588.174 175.806C587.881 175.476 587.626 175.165 587.406 174.872C586.493 173.59 585.579 172.29 584.666 170.972C583.789 169.654 582.912 168.336 582.035 167.017C579.477 163.282 576.919 159.529 574.362 155.757C571.841 151.949 569.264 148.195 566.634 144.497C566.597 144.424 566.487 144.277 566.305 144.058C566.122 143.801 565.958 143.673 565.811 143.673C565.629 143.673 565.519 143.856 565.483 144.222C565.446 144.589 565.428 144.808 565.428 144.882C565.428 148.763 565.41 152.645 565.373 156.526C565.336 160.371 565.282 164.234 565.209 168.116L565.099 175.861C565.099 176.373 565.099 176.923 565.099 177.509C565.136 178.094 565.117 178.644 565.044 179.156C564.971 179.889 564.788 180.438 564.496 180.804C564.204 181.17 563.637 181.353 562.797 181.353H553.808Z" fill="#1743BD"/>
<path d="M632.412 143.014C632.412 137.887 633.239 133.027 634.993 128.34C636.783 123.616 639.829 119.304 643.045 115.605C646.297 111.907 650.133 108.995 654.555 106.872C659.012 104.711 663.909 103.631 669.243 103.631C674.578 103.631 680.854 104.766 685.311 106.926C689.769 109.087 694.316 111.87 697.568 115.605C700.857 119.304 702.629 122.638 704.42 127.361C706.247 132.085 707 138.398 707 143.524C707 148.651 706.247 154.353 704.42 159.04C702.629 163.691 700.857 166.706 697.568 170.368C694.28 174.03 689.769 177.033 685.311 179.156C680.854 181.28 676.417 182 671.119 182C665.711 182 658.903 181.134 654.445 179.047C650.024 176.923 645.949 174.025 642.734 170.363C639.519 166.701 636.747 162.766 634.993 158.079C633.239 153.356 632.412 148.214 632.412 143.014ZM669.737 168.94C674.414 168.94 679.515 167.713 682.731 165.15C685.983 162.587 688.791 159.804 690.472 155.812C692.19 151.821 693.053 147.005 693.053 142.794C693.053 138.473 692.226 134.427 690.472 130.436C688.718 126.444 686.056 123.167 682.731 120.603C679.442 118.004 674.012 116.759 669.298 116.759C664.694 116.759 660.711 118.04 657.35 120.603C654.025 123.167 650.976 126.444 649.185 130.436C647.395 134.39 646.605 138.29 646.605 142.575C646.605 146.896 647.358 151.465 649.185 155.493C651.049 159.485 654.226 162.587 657.624 165.15C661.022 167.676 665.06 168.94 669.737 168.94Z" fill="#1743BD"/>
<path d="M397 119.772V103H413.747L425.341 122.353L436.935 103H453.681V119.772L434.358 131.384L453.681 142.996V182.347H436.935L425.341 140.416L413.747 182.347H397V142.996L416.323 131.384L397 119.772Z" fill="#1743BD"/>
</svg>
