<svg width="375" height="200" viewBox="0 0 375 200" fill="none" xmlns="http://www.w3.org/2000/svg">
<circle cx="100" cy="100" r="100" fill="#D9DFEE"/>
<path d="M100 0C155.228 0 200 44.7715 200 100C200 155.228 155.228 200 100 200C44.7715 200 0 155.228 0 100H100V0Z" fill="#1743BD"/>
<circle cx="100" cy="100" r="75" fill="#F6F8FA"/>
<circle cx="100" cy="100" r="70" fill="#D9DFEE"/>
<path d="M100 170V30C138.66 30 170 61.3401 170 100C170 138.66 138.66 170 100 170Z" fill="#8ACE78"/>
<circle cx="100" cy="100" r="45" fill="#F6F8FA"/>
<circle cx="100" cy="100" r="40" fill="#D9DFEE"/>
<path d="M100 60C122.091 60 140 77.9086 140 100C140 122.091 122.091 140 100 140C77.9086 140 60 122.091 60 100C60 89.0645 64.3883 79.1539 71.5 71.9331L100 100V60Z" fill="#DB7B53"/>
<circle cx="100" cy="100" r="15" fill="#F6F8FA"/>
<circle cx="12.5" cy="99.5" r="12.5" fill="#1743BD"/>
<circle cx="99.5" cy="157.5" r="12.5" fill="#8ACE78"/>
<circle cx="99.5" cy="12.5" r="12.5" fill="#D9DFEE"/>
<circle cx="99.5" cy="42.5" r="12.5" fill="#D9DFEE"/>
<circle cx="97.5" cy="72.5" r="12.5" fill="#D9DFEE"/>
<circle cx="81.5" cy="79.5" r="12.5" fill="#DB7B53"/>
<rect x="213" y="7" width="162" height="50" rx="25" fill="#1743BD"/>
<path d="M239.339 31.932C239.339 32.676 239.201 33.318 238.925 33.858C238.649 34.398 238.277 34.842 237.809 35.19C237.341 35.538 236.819 35.796 236.243 35.964C235.667 36.132 235.073 36.216 234.461 36.216C233.693 36.216 233.003 36.126 232.391 35.946C231.791 35.766 231.263 35.532 230.807 35.244C230.351 34.944 229.949 34.62 229.601 34.272L230.807 32.274C231.107 32.574 231.431 32.844 231.779 33.084C232.139 33.324 232.511 33.516 232.895 33.66C233.279 33.792 233.645 33.858 233.993 33.858C234.533 33.858 234.989 33.774 235.361 33.606C235.745 33.438 236.039 33.198 236.243 32.886C236.447 32.562 236.549 32.166 236.549 31.698C236.549 31.242 236.429 30.858 236.189 30.546C235.961 30.234 235.649 30 235.253 29.844C234.869 29.676 234.449 29.592 233.993 29.592C233.657 29.592 233.303 29.622 232.931 29.682C232.559 29.73 232.175 29.82 231.779 29.952C231.395 30.072 230.987 30.252 230.555 30.492L232.283 23.4H239.141V25.632H234.191L233.435 28.224C233.759 28.056 234.095 27.942 234.443 27.882C234.791 27.81 235.151 27.774 235.523 27.774C236.207 27.774 236.837 27.942 237.413 28.278C237.989 28.614 238.451 29.094 238.799 29.718C239.159 30.33 239.339 31.068 239.339 31.932ZM251.614 30.744L249.49 35.46L247.186 35.082L251.614 27.09L256.06 35.082L253.738 35.46L251.614 30.744ZM254.836 36H248.482V37.62H246.178V34.11H257.05V37.62H254.836V36ZM259.866 32.544V30.726H266.382V32.544H259.866ZM265.248 27.72H267.498V36H265.248V27.72ZM259.02 27.72H261.27V36H259.02V27.72ZM270.57 32.382V30.942H275.52C275.472 30.582 275.376 30.27 275.232 30.006C275.088 29.742 274.89 29.538 274.638 29.394C274.386 29.25 274.068 29.178 273.684 29.178C273.288 29.178 272.934 29.268 272.622 29.448C272.31 29.616 272.064 29.868 271.884 30.204C271.704 30.54 271.614 30.936 271.614 31.392L271.578 31.86C271.578 32.448 271.668 32.934 271.848 33.318C272.04 33.69 272.298 33.966 272.622 34.146C272.946 34.314 273.312 34.398 273.72 34.398C274.08 34.398 274.398 34.35 274.674 34.254C274.95 34.158 275.196 34.02 275.412 33.84C275.628 33.66 275.808 33.45 275.952 33.21L277.986 33.84C277.71 34.308 277.386 34.722 277.014 35.082C276.642 35.43 276.186 35.7 275.646 35.892C275.118 36.084 274.47 36.18 273.702 36.18C272.778 36.18 271.98 35.994 271.308 35.622C270.636 35.25 270.12 34.74 269.76 34.092C269.412 33.432 269.238 32.688 269.238 31.86C269.238 31.704 269.244 31.554 269.256 31.41C269.268 31.266 269.286 31.122 269.31 30.978C269.43 30.294 269.676 29.694 270.048 29.178C270.42 28.662 270.918 28.26 271.542 27.972C272.166 27.684 272.892 27.54 273.72 27.54C274.632 27.54 275.406 27.714 276.042 28.062C276.69 28.398 277.182 28.878 277.518 29.502C277.854 30.126 278.022 30.876 278.022 31.752C278.022 31.824 278.022 31.914 278.022 32.022C278.022 32.13 278.01 32.25 277.986 32.382H270.57ZM287.753 29.772L279.869 36.63L279.959 33.948L287.843 27.09L287.753 29.772ZM282.119 27.72V34.272L279.869 36.63V27.72H282.119ZM287.843 27.09V36H285.593V29.448L287.843 27.09ZM281.039 23.49H282.659C282.659 23.682 282.707 23.868 282.803 24.048C282.899 24.216 283.043 24.36 283.235 24.48C283.427 24.588 283.667 24.642 283.955 24.642C284.255 24.642 284.501 24.588 284.693 24.48C284.885 24.36 285.023 24.216 285.107 24.048C285.203 23.868 285.251 23.682 285.251 23.49H286.889C286.889 23.946 286.775 24.378 286.547 24.786C286.319 25.182 285.989 25.5 285.557 25.74C285.125 25.968 284.591 26.082 283.955 26.082C283.331 26.082 282.797 25.968 282.353 25.74C281.921 25.5 281.591 25.182 281.363 24.786C281.147 24.378 281.039 23.946 281.039 23.49ZM303.358 27.72V36H301.108V29.772H297.85V36H295.6V27.72H303.358ZM305.097 31.86C305.097 30.996 305.295 30.24 305.691 29.592C306.099 28.944 306.645 28.44 307.329 28.08C308.025 27.72 308.811 27.54 309.687 27.54C310.563 27.54 311.343 27.72 312.027 28.08C312.723 28.44 313.269 28.944 313.665 29.592C314.073 30.24 314.277 30.996 314.277 31.86C314.277 32.712 314.073 33.468 313.665 34.128C313.269 34.776 312.723 35.28 312.027 35.64C311.343 36 310.563 36.18 309.687 36.18C308.811 36.18 308.025 36 307.329 35.64C306.645 35.28 306.099 34.776 305.691 34.128C305.295 33.468 305.097 32.712 305.097 31.86ZM307.473 31.86C307.473 32.328 307.569 32.742 307.761 33.102C307.965 33.45 308.235 33.726 308.571 33.93C308.907 34.122 309.279 34.218 309.687 34.218C310.095 34.218 310.467 34.122 310.803 33.93C311.139 33.726 311.403 33.45 311.595 33.102C311.799 32.742 311.901 32.328 311.901 31.86C311.901 31.392 311.799 30.978 311.595 30.618C311.403 30.258 311.139 29.982 310.803 29.79C310.467 29.598 310.095 29.502 309.687 29.502C309.279 29.502 308.907 29.598 308.571 29.79C308.235 29.982 307.965 30.258 307.761 30.618C307.569 30.978 307.473 31.392 307.473 31.86ZM320.134 30.744L318.01 35.46L315.706 35.082L320.134 27.09L324.58 35.082L322.258 35.46L320.134 30.744ZM323.356 36H317.002V37.62H314.698V34.11H325.57V37.62H323.356V36ZM329.826 39.96H327.486V27.72H329.826V39.96ZM336.63 31.86C336.63 32.796 336.444 33.594 336.072 34.254C335.7 34.914 335.208 35.412 334.596 35.748C333.996 36.084 333.348 36.252 332.652 36.252C331.944 36.252 331.326 36.072 330.798 35.712C330.282 35.352 329.88 34.842 329.592 34.182C329.316 33.522 329.178 32.748 329.178 31.86C329.178 30.96 329.316 30.186 329.592 29.538C329.88 28.878 330.282 28.368 330.798 28.008C331.326 27.648 331.944 27.468 332.652 27.468C333.348 27.468 333.996 27.636 334.596 27.972C335.208 28.308 335.7 28.806 336.072 29.466C336.444 30.114 336.63 30.912 336.63 31.86ZM334.218 31.86C334.218 31.368 334.116 30.948 333.912 30.6C333.708 30.252 333.432 29.988 333.084 29.808C332.748 29.628 332.376 29.538 331.968 29.538C331.62 29.538 331.278 29.628 330.942 29.808C330.618 29.976 330.348 30.234 330.132 30.582C329.928 30.93 329.826 31.356 329.826 31.86C329.826 32.364 329.928 32.79 330.132 33.138C330.348 33.486 330.618 33.75 330.942 33.93C331.278 34.098 331.62 34.182 331.968 34.182C332.376 34.182 332.748 34.092 333.084 33.912C333.432 33.732 333.708 33.468 333.912 33.12C334.116 32.772 334.218 32.352 334.218 31.86ZM340.456 36H338.008L340.69 32.058H342.976L340.456 36ZM345.892 36H343.57V27.72H345.892V36ZM344.398 31.266V32.922H341.824C341.26 32.922 340.726 32.832 340.222 32.652C339.718 32.46 339.316 32.172 339.016 31.788C338.716 31.392 338.566 30.888 338.566 30.276C338.566 29.652 338.716 29.154 339.016 28.782C339.316 28.41 339.718 28.14 340.222 27.972C340.726 27.804 341.26 27.72 341.824 27.72H344.398V29.592H342.094C341.818 29.592 341.59 29.622 341.41 29.682C341.23 29.742 341.092 29.832 340.996 29.952C340.9 30.072 340.852 30.234 340.852 30.438C340.852 30.63 340.9 30.792 340.996 30.924C341.092 31.044 341.23 31.134 341.41 31.194C341.59 31.242 341.818 31.266 342.094 31.266H344.398ZM352.846 30.744L350.722 35.46L348.418 35.082L352.846 27.09L357.292 35.082L354.97 35.46L352.846 30.744ZM356.068 36H349.714V37.62H347.41V34.11H358.282V37.62H356.068V36Z" fill="#F6F8FA"/>
<rect x="213" y="75.3472" width="162" height="50" rx="25" fill="#8ACE78"/>
<path d="M257.209 94.676V92.354L262.735 91.184V104H260.233V93.884L257.209 94.676ZM268.192 99.662C268.192 100.142 268.294 100.562 268.498 100.922C268.702 101.27 268.978 101.546 269.326 101.75C269.686 101.942 270.088 102.038 270.532 102.038C270.976 102.038 271.372 101.942 271.72 101.75C272.08 101.546 272.362 101.27 272.566 100.922C272.77 100.562 272.872 100.142 272.872 99.662C272.872 99.194 272.77 98.78 272.566 98.42C272.362 98.048 272.08 97.766 271.72 97.574C271.372 97.37 270.976 97.268 270.532 97.268C270.088 97.268 269.686 97.37 269.326 97.574C268.978 97.766 268.702 98.048 268.498 98.42C268.294 98.78 268.192 99.194 268.192 99.662ZM270.748 91.436H274.006L269.974 96.188L269.506 96.35C269.818 96.026 270.124 95.816 270.424 95.72C270.736 95.624 271.114 95.576 271.558 95.576C272.038 95.576 272.506 95.672 272.962 95.864C273.43 96.056 273.844 96.332 274.204 96.692C274.564 97.052 274.852 97.484 275.068 97.988C275.284 98.492 275.392 99.05 275.392 99.662C275.392 100.646 275.17 101.48 274.726 102.164C274.294 102.848 273.712 103.37 272.98 103.73C272.248 104.078 271.432 104.252 270.532 104.252C269.632 104.252 268.816 104.078 268.084 103.73C267.352 103.37 266.764 102.848 266.32 102.164C265.888 101.48 265.672 100.646 265.672 99.662C265.672 99.038 265.792 98.462 266.032 97.934C266.272 97.394 266.572 96.896 266.932 96.44L270.748 91.436ZM277.69 94.442C277.69 93.77 277.87 93.188 278.23 92.696C278.59 92.204 279.07 91.826 279.67 91.562C280.282 91.286 280.96 91.148 281.704 91.148C282.436 91.148 283.102 91.286 283.702 91.562C284.314 91.826 284.8 92.204 285.16 92.696C285.532 93.188 285.718 93.77 285.718 94.442C285.718 94.994 285.604 95.48 285.376 95.9C285.16 96.308 284.86 96.65 284.476 96.926C284.104 97.202 283.678 97.412 283.198 97.556C282.718 97.7 282.22 97.772 281.704 97.772C281.188 97.772 280.69 97.7 280.21 97.556C279.73 97.412 279.298 97.202 278.914 96.926C278.542 96.65 278.242 96.308 278.014 95.9C277.798 95.48 277.69 94.994 277.69 94.442ZM280.102 94.694C280.102 95.018 280.174 95.3 280.318 95.54C280.462 95.78 280.654 95.972 280.894 96.116C281.134 96.248 281.404 96.314 281.704 96.314C282.004 96.314 282.274 96.248 282.514 96.116C282.754 95.972 282.94 95.78 283.072 95.54C283.216 95.3 283.288 95.018 283.288 94.694C283.288 94.382 283.222 94.1 283.09 93.848C282.958 93.596 282.772 93.404 282.532 93.272C282.292 93.14 282.016 93.074 281.704 93.074C281.392 93.074 281.116 93.14 280.876 93.272C280.636 93.404 280.444 93.596 280.3 93.848C280.168 94.1 280.102 94.382 280.102 94.694ZM277.24 100.58C277.24 99.944 277.372 99.398 277.636 98.942C277.9 98.474 278.248 98.09 278.68 97.79C279.124 97.49 279.61 97.268 280.138 97.124C280.666 96.98 281.188 96.908 281.704 96.908C282.22 96.908 282.742 96.98 283.27 97.124C283.798 97.268 284.278 97.49 284.71 97.79C285.154 98.09 285.508 98.474 285.772 98.942C286.036 99.398 286.168 99.944 286.168 100.58C286.168 101.132 286.048 101.636 285.808 102.092C285.568 102.536 285.238 102.92 284.818 103.244C284.41 103.568 283.936 103.82 283.396 104C282.868 104.168 282.304 104.252 281.704 104.252C281.104 104.252 280.534 104.168 279.994 104C279.466 103.82 278.992 103.568 278.572 103.244C278.152 102.92 277.822 102.536 277.582 102.092C277.354 101.636 277.24 101.132 277.24 100.58ZM279.778 100.202C279.778 100.622 279.862 100.976 280.03 101.264C280.21 101.54 280.444 101.756 280.732 101.912C281.032 102.056 281.356 102.128 281.704 102.128C282.04 102.128 282.352 102.056 282.64 101.912C282.94 101.756 283.18 101.54 283.36 101.264C283.54 100.976 283.63 100.622 283.63 100.202C283.63 99.854 283.54 99.536 283.36 99.248C283.18 98.96 282.94 98.732 282.64 98.564C282.352 98.396 282.04 98.312 281.704 98.312C281.356 98.312 281.032 98.396 280.732 98.564C280.444 98.732 280.21 98.96 280.03 99.248C279.862 99.536 279.778 99.854 279.778 100.202ZM295.427 99.86C295.427 100.34 295.535 100.76 295.751 101.12C295.967 101.48 296.255 101.762 296.615 101.966C296.987 102.17 297.395 102.272 297.839 102.272C298.199 102.272 298.547 102.218 298.883 102.11C299.219 101.99 299.519 101.834 299.783 101.642C300.059 101.438 300.269 101.204 300.413 100.94V103.334C300.125 103.598 299.747 103.808 299.279 103.964C298.823 104.108 298.289 104.18 297.677 104.18C296.801 104.18 296.009 104 295.301 103.64C294.605 103.28 294.053 102.776 293.645 102.128C293.249 101.468 293.051 100.712 293.051 99.86C293.051 98.996 293.249 98.24 293.645 97.592C294.053 96.944 294.605 96.44 295.301 96.08C296.009 95.72 296.801 95.54 297.677 95.54C298.289 95.54 298.823 95.618 299.279 95.774C299.747 95.918 300.125 96.116 300.413 96.368V98.762C300.269 98.498 300.053 98.27 299.765 98.078C299.489 97.874 299.183 97.718 298.847 97.61C298.511 97.502 298.175 97.448 297.839 97.448C297.395 97.448 296.987 97.556 296.615 97.772C296.255 97.976 295.967 98.258 295.751 98.618C295.535 98.978 295.427 99.392 295.427 99.86ZM310.731 95.72V104H308.481V97.844H305.061V101.12C305.061 101.768 304.947 102.308 304.719 102.74C304.491 103.16 304.113 103.478 303.585 103.694C303.069 103.898 302.373 104 301.497 104V101.912C301.857 101.912 302.163 101.834 302.415 101.678C302.679 101.51 302.811 101.168 302.811 100.652V95.72H310.731ZM312.757 99.86C312.757 98.996 312.955 98.24 313.351 97.592C313.759 96.944 314.305 96.44 314.989 96.08C315.685 95.72 316.471 95.54 317.347 95.54C318.223 95.54 319.003 95.72 319.687 96.08C320.383 96.44 320.929 96.944 321.325 97.592C321.733 98.24 321.937 98.996 321.937 99.86C321.937 100.712 321.733 101.468 321.325 102.128C320.929 102.776 320.383 103.28 319.687 103.64C319.003 104 318.223 104.18 317.347 104.18C316.471 104.18 315.685 104 314.989 103.64C314.305 103.28 313.759 102.776 313.351 102.128C312.955 101.468 312.757 100.712 312.757 99.86ZM315.133 99.86C315.133 100.328 315.229 100.742 315.421 101.102C315.625 101.45 315.895 101.726 316.231 101.93C316.567 102.122 316.939 102.218 317.347 102.218C317.755 102.218 318.127 102.122 318.463 101.93C318.799 101.726 319.063 101.45 319.255 101.102C319.459 100.742 319.561 100.328 319.561 99.86C319.561 99.392 319.459 98.978 319.255 98.618C319.063 98.258 318.799 97.982 318.463 97.79C318.127 97.598 317.755 97.502 317.347 97.502C316.939 97.502 316.567 97.598 316.231 97.79C315.895 97.982 315.625 98.258 315.421 98.618C315.229 98.978 315.133 99.392 315.133 99.86ZM325.234 99.68H328.006C328.582 99.68 329.098 99.74 329.554 99.86C330.01 99.98 330.37 100.19 330.634 100.49C330.898 100.79 331.03 101.21 331.03 101.75C331.03 102.374 330.82 102.908 330.4 103.352C329.992 103.784 329.314 104 328.366 104H325.234V102.434H327.628C328.048 102.434 328.348 102.338 328.528 102.146C328.72 101.954 328.816 101.738 328.816 101.498C328.816 101.366 328.792 101.252 328.744 101.156C328.696 101.048 328.624 100.952 328.528 100.868C328.444 100.772 328.324 100.706 328.168 100.67C328.024 100.622 327.844 100.598 327.628 100.598H325.234V99.68ZM325.234 100.04V99.032H327.448C327.604 99.032 327.742 99.014 327.862 98.978C327.994 98.93 328.102 98.864 328.186 98.78C328.27 98.696 328.336 98.6 328.384 98.492C328.432 98.384 328.456 98.27 328.456 98.15C328.456 97.91 328.366 97.706 328.186 97.538C328.006 97.37 327.76 97.286 327.448 97.286H325.234V95.72H327.826C328.342 95.72 328.81 95.798 329.23 95.954C329.662 96.098 330.01 96.338 330.274 96.674C330.538 96.998 330.67 97.43 330.67 97.97C330.67 98.438 330.538 98.828 330.274 99.14C330.01 99.44 329.662 99.668 329.23 99.824C328.81 99.968 328.342 100.04 327.826 100.04H325.234ZM323.884 95.72H326.134V104H323.884V95.72Z" fill="#F6F8FA"/>
<rect x="213" y="143.347" width="162" height="50" rx="25" fill="#DB7B53"/>
<path d="M235.408 169.994L233.518 169.904C233.482 169.772 233.464 169.628 233.464 169.472C233.464 169.196 233.5 168.926 233.572 168.662C233.644 168.398 233.782 168.14 233.986 167.888C234.226 167.576 234.514 167.33 234.85 167.15C235.198 166.97 235.636 166.88 236.164 166.88C236.428 166.88 236.674 166.916 236.902 166.988C237.142 167.048 237.382 167.144 237.622 167.276C237.862 167.408 238.12 167.57 238.396 167.762C238.684 167.954 238.93 168.104 239.134 168.212C239.35 168.308 239.536 168.356 239.692 168.356C239.92 168.356 240.082 168.29 240.178 168.158C240.286 168.014 240.34 167.828 240.34 167.6C240.34 167.504 240.328 167.408 240.304 167.312C240.28 167.204 240.25 167.108 240.214 167.024L242.158 167.114C242.182 167.186 242.2 167.264 242.212 167.348C242.224 167.432 242.23 167.522 242.23 167.618C242.23 167.882 242.2 168.158 242.14 168.446C242.08 168.722 241.954 168.98 241.762 169.22C241.522 169.52 241.252 169.748 240.952 169.904C240.652 170.06 240.28 170.138 239.836 170.138C239.5 170.138 239.158 170.066 238.81 169.922C238.462 169.766 238.078 169.544 237.658 169.256C237.466 169.112 237.286 168.998 237.118 168.914C236.95 168.83 236.782 168.764 236.614 168.716C236.458 168.668 236.302 168.644 236.146 168.644C235.846 168.644 235.63 168.734 235.498 168.914C235.378 169.082 235.318 169.28 235.318 169.508C235.318 169.616 235.324 169.706 235.336 169.778C235.36 169.85 235.384 169.922 235.408 169.994ZM243.386 173L249.11 167.024C249.434 166.676 249.71 166.352 249.938 166.052C250.166 165.752 250.34 165.452 250.46 165.152C250.58 164.852 250.64 164.54 250.64 164.216C250.64 163.988 250.598 163.766 250.514 163.55C250.43 163.334 250.304 163.142 250.136 162.974C249.968 162.806 249.764 162.674 249.524 162.578C249.284 162.47 249.008 162.416 248.696 162.416C248.252 162.416 247.868 162.524 247.544 162.74C247.232 162.944 246.986 163.238 246.806 163.622C246.638 164.006 246.554 164.45 246.554 164.954H244.034C244.034 164.054 244.214 163.244 244.574 162.524C244.934 161.804 245.462 161.234 246.158 160.814C246.866 160.382 247.73 160.166 248.75 160.166C249.506 160.166 250.166 160.286 250.73 160.526C251.306 160.754 251.78 161.06 252.152 161.444C252.536 161.816 252.818 162.23 252.998 162.686C253.19 163.142 253.286 163.598 253.286 164.054C253.286 164.726 253.124 165.356 252.8 165.944C252.476 166.532 252.05 167.066 251.522 167.546L248.246 170.642H253.52V173H243.386ZM257.568 166.7C257.568 167.336 257.628 167.918 257.748 168.446C257.868 168.962 258.042 169.412 258.27 169.796C258.498 170.168 258.768 170.456 259.08 170.66C259.392 170.864 259.74 170.966 260.124 170.966C260.52 170.966 260.874 170.864 261.186 170.66C261.498 170.456 261.768 170.168 261.996 169.796C262.224 169.412 262.398 168.962 262.518 168.446C262.638 167.918 262.698 167.336 262.698 166.7C262.698 166.064 262.638 165.488 262.518 164.972C262.398 164.444 262.224 163.994 261.996 163.622C261.768 163.238 261.498 162.944 261.186 162.74C260.874 162.536 260.52 162.434 260.124 162.434C259.74 162.434 259.392 162.536 259.08 162.74C258.768 162.944 258.498 163.238 258.27 163.622C258.042 163.994 257.868 164.444 257.748 164.972C257.628 165.488 257.568 166.064 257.568 166.7ZM255.066 166.7C255.066 165.368 255.276 164.216 255.696 163.244C256.128 162.272 256.722 161.522 257.478 160.994C258.246 160.454 259.128 160.184 260.124 160.184C261.156 160.184 262.05 160.454 262.806 160.994C263.562 161.522 264.15 162.272 264.57 163.244C264.99 164.216 265.2 165.368 265.2 166.7C265.2 168.032 264.99 169.184 264.57 170.156C264.15 171.128 263.562 171.884 262.806 172.424C262.05 172.952 261.156 173.216 260.124 173.216C259.128 173.216 258.246 172.952 257.478 172.424C256.722 171.884 256.128 171.128 255.696 170.156C255.276 169.184 255.066 168.032 255.066 166.7ZM280.363 173L279.175 167.042L280.363 164.09L282.757 173H280.363ZM276.511 170.984L280.363 164.09L280.543 167.51L277.051 173.558L276.511 170.984ZM277.051 173.558L273.613 167.51L273.793 164.09L277.591 170.984L277.051 173.558ZM271.399 173L273.793 164.09L274.981 167.042L273.793 173H271.399ZM291.93 166.772L284.046 173.63L284.136 170.948L292.02 164.09L291.93 166.772ZM286.296 164.72V171.272L284.046 173.63V164.72H286.296ZM292.02 164.09V173H289.77V166.448L292.02 164.09ZM295.227 169.544V167.726H301.743V169.544H295.227ZM300.609 164.72H302.859V173H300.609V164.72ZM294.381 164.72H296.631V173H294.381V164.72ZM311.906 160.4H314.156L306.596 175.7H304.274L311.906 160.4ZM318.404 167.744L316.28 172.46L313.976 172.082L318.404 164.09L322.85 172.082L320.528 172.46L318.404 167.744ZM321.626 173H315.272V174.62H312.968V171.11H323.84V174.62H321.626V173ZM326.584 169.382V167.942H331.534C331.486 167.582 331.39 167.27 331.246 167.006C331.102 166.742 330.904 166.538 330.652 166.394C330.4 166.25 330.082 166.178 329.698 166.178C329.302 166.178 328.948 166.268 328.636 166.448C328.324 166.616 328.078 166.868 327.898 167.204C327.718 167.54 327.628 167.936 327.628 168.392L327.592 168.86C327.592 169.448 327.682 169.934 327.862 170.318C328.054 170.69 328.312 170.966 328.636 171.146C328.96 171.314 329.326 171.398 329.734 171.398C330.094 171.398 330.412 171.35 330.688 171.254C330.964 171.158 331.21 171.02 331.426 170.84C331.642 170.66 331.822 170.45 331.966 170.21L334 170.84C333.724 171.308 333.4 171.722 333.028 172.082C332.656 172.43 332.2 172.7 331.66 172.892C331.132 173.084 330.484 173.18 329.716 173.18C328.792 173.18 327.994 172.994 327.322 172.622C326.65 172.25 326.134 171.74 325.774 171.092C325.426 170.432 325.252 169.688 325.252 168.86C325.252 168.704 325.258 168.554 325.27 168.41C325.282 168.266 325.3 168.122 325.324 167.978C325.444 167.294 325.69 166.694 326.062 166.178C326.434 165.662 326.932 165.26 327.556 164.972C328.18 164.684 328.906 164.54 329.734 164.54C330.646 164.54 331.42 164.714 332.056 165.062C332.704 165.398 333.196 165.878 333.532 166.502C333.868 167.126 334.036 167.876 334.036 168.752C334.036 168.824 334.036 168.914 334.036 169.022C334.036 169.13 334.024 169.25 334 169.382H326.584ZM336.676 169.544V167.726H343.192V169.544H336.676ZM342.058 164.72H344.308V173H342.058V164.72ZM335.83 164.72H338.08V173H335.83V164.72ZM346.695 164.72H349.017V173H346.695V164.72ZM348.423 169.22V167.618H350.997C351.849 167.618 352.563 167.828 353.139 168.248C353.727 168.656 354.021 169.304 354.021 170.192C354.021 170.78 353.889 171.29 353.625 171.722C353.361 172.142 353.001 172.46 352.545 172.676C352.089 172.892 351.573 173 350.997 173H348.423V171.164H350.655C350.907 171.164 351.117 171.128 351.285 171.056C351.453 170.972 351.579 170.858 351.663 170.714C351.759 170.57 351.807 170.396 351.807 170.192C351.807 169.892 351.711 169.658 351.519 169.49C351.327 169.31 351.039 169.22 350.655 169.22H348.423Z" fill="#F6F8FA"/>
</svg>
