<svg fill="none" xmlns="http://www.w3.org/2000/svg" viewBox="0 0 480 340">
<rect width="480" height="340" rx="14" fill="#D9DFEE"/>
<path d="M172.832 47.72C172.832 48.68 173.048 49.52 173.48 50.24C173.912 50.96 174.488 51.524 175.208 51.932C175.952 52.34 176.768 52.544 177.656 52.544C178.376 52.544 179.072 52.436 179.744 52.22C180.416 51.98 181.016 51.668 181.544 51.284C182.096 50.876 182.516 50.408 182.804 49.88V54.668C182.228 55.196 181.472 55.616 180.536 55.928C179.624 56.216 178.556 56.36 177.332 56.36C175.58 56.36 173.996 56 172.58 55.28C171.188 54.56 170.084 53.552 169.268 52.256C168.476 50.936 168.08 49.424 168.08 47.72C168.08 45.992 168.476 44.48 169.268 43.184C170.084 41.888 171.188 40.88 172.58 40.16C173.996 39.44 175.58 39.08 177.332 39.08C178.556 39.08 179.624 39.236 180.536 39.548C181.472 39.836 182.228 40.232 182.804 40.736V45.524C182.516 44.996 182.084 44.54 181.508 44.156C180.956 43.748 180.344 43.436 179.672 43.22C179 43.004 178.328 42.896 177.656 42.896C176.768 42.896 175.952 43.112 175.208 43.544C174.488 43.952 173.912 44.516 173.48 45.236C173.048 45.956 172.832 46.784 172.832 47.72ZM203.441 39.44V56H198.941V43.688H192.101V50.24C192.101 51.536 191.873 52.616 191.417 53.48C190.961 54.32 190.205 54.956 189.149 55.388C188.117 55.796 186.725 56 184.973 56V51.824C185.693 51.824 186.305 51.668 186.809 51.356C187.337 51.02 187.601 50.336 187.601 49.304V39.44H203.441ZM207.493 47.72C207.493 45.992 207.889 44.48 208.681 43.184C209.497 41.888 210.589 40.88 211.957 40.16C213.349 39.44 214.921 39.08 216.673 39.08C218.425 39.08 219.985 39.44 221.353 40.16C222.745 40.88 223.837 41.888 224.629 43.184C225.445 44.48 225.853 45.992 225.853 47.72C225.853 49.424 225.445 50.936 224.629 52.256C223.837 53.552 222.745 54.56 221.353 55.28C219.985 56 218.425 56.36 216.673 56.36C214.921 56.36 213.349 56 211.957 55.28C210.589 54.56 209.497 53.552 208.681 52.256C207.889 50.936 207.493 49.424 207.493 47.72ZM212.245 47.72C212.245 48.656 212.437 49.484 212.821 50.204C213.229 50.9 213.769 51.452 214.441 51.86C215.113 52.244 215.857 52.436 216.673 52.436C217.489 52.436 218.233 52.244 218.905 51.86C219.577 51.452 220.105 50.9 220.489 50.204C220.897 49.484 221.101 48.656 221.101 47.72C221.101 46.784 220.897 45.956 220.489 45.236C220.105 44.516 219.577 43.964 218.905 43.58C218.233 43.196 217.489 43.004 216.673 43.004C215.857 43.004 215.113 43.196 214.441 43.58C213.769 43.964 213.229 44.516 212.821 45.236C212.437 45.956 212.245 46.784 212.245 47.72ZM232.447 47.36H237.991C239.143 47.36 240.175 47.48 241.087 47.72C241.999 47.96 242.719 48.38 243.247 48.98C243.775 49.58 244.039 50.42 244.039 51.5C244.039 52.748 243.619 53.816 242.779 54.704C241.963 55.568 240.607 56 238.711 56H232.447V52.868H237.235C238.075 52.868 238.675 52.676 239.035 52.292C239.419 51.908 239.611 51.476 239.611 50.996C239.611 50.732 239.563 50.504 239.467 50.312C239.371 50.096 239.227 49.904 239.035 49.736C238.867 49.544 238.627 49.412 238.315 49.34C238.027 49.244 237.667 49.196 237.235 49.196H232.447V47.36ZM232.447 48.08V46.064H236.875C237.187 46.064 237.463 46.028 237.703 45.956C237.967 45.86 238.183 45.728 238.351 45.56C238.519 45.392 238.651 45.2 238.747 44.984C238.843 44.768 238.891 44.54 238.891 44.3C238.891 43.82 238.711 43.412 238.351 43.076C237.991 42.74 237.499 42.572 236.875 42.572H232.447V39.44H237.631C238.663 39.44 239.599 39.596 240.439 39.908C241.303 40.196 241.999 40.676 242.527 41.348C243.055 41.996 243.319 42.86 243.319 43.94C243.319 44.876 243.055 45.656 242.527 46.28C241.999 46.88 241.303 47.336 240.439 47.648C239.599 47.936 238.663 48.08 237.631 48.08H232.447ZM229.747 39.44H234.247V56H229.747V39.44ZM250.733 51.068C250.733 51.524 250.853 51.908 251.093 52.22C251.333 52.508 251.657 52.736 252.065 52.904C252.497 53.048 252.965 53.12 253.469 53.12C254.213 53.12 254.897 53 255.521 52.76C256.145 52.52 256.637 52.124 256.997 51.572C257.357 51.02 257.537 50.288 257.537 49.376L258.113 51.32C258.113 52.376 257.837 53.288 257.285 54.056C256.733 54.8 255.989 55.376 255.053 55.784C254.141 56.168 253.109 56.36 251.957 56.36C250.829 56.36 249.821 56.168 248.933 55.784C248.045 55.4 247.337 54.836 246.809 54.092C246.305 53.324 246.053 52.388 246.053 51.284C246.053 50.156 246.341 49.196 246.917 48.404C247.517 47.588 248.345 46.964 249.401 46.532C250.481 46.1 251.741 45.884 253.181 45.884C254.069 45.884 254.897 45.992 255.665 46.208C256.433 46.424 257.081 46.676 257.609 46.964C258.137 47.252 258.509 47.528 258.725 47.792V50.06C258.053 49.556 257.357 49.184 256.637 48.944C255.917 48.704 255.065 48.584 254.081 48.584C253.361 48.584 252.749 48.692 252.245 48.908C251.741 49.124 251.357 49.412 251.093 49.772C250.853 50.132 250.733 50.564 250.733 51.068ZM249.257 44.156L247.565 40.952C248.405 40.496 249.437 40.064 250.661 39.656C251.885 39.224 253.241 39.008 254.729 39.008C256.169 39.008 257.429 39.212 258.509 39.62C259.613 40.028 260.477 40.628 261.101 41.42C261.725 42.188 262.037 43.136 262.037 44.264V56H257.537V45.02C257.537 44.276 257.249 43.7 256.673 43.292C256.097 42.86 255.353 42.644 254.441 42.644C253.649 42.644 252.905 42.74 252.209 42.932C251.537 43.1 250.937 43.304 250.409 43.544C249.905 43.784 249.521 43.988 249.257 44.156ZM270.942 63.92H266.262V39.44H270.942V63.92ZM284.55 47.72C284.55 49.592 284.178 51.188 283.434 52.508C282.69 53.828 281.706 54.824 280.482 55.496C279.282 56.168 277.986 56.504 276.594 56.504C275.178 56.504 273.942 56.144 272.886 55.424C271.854 54.704 271.05 53.684 270.474 52.364C269.922 51.044 269.646 49.496 269.646 47.72C269.646 45.92 269.922 44.372 270.474 43.076C271.05 41.756 271.854 40.736 272.886 40.016C273.942 39.296 275.178 38.936 276.594 38.936C277.986 38.936 279.282 39.272 280.482 39.944C281.706 40.616 282.69 41.612 283.434 42.932C284.178 44.228 284.55 45.824 284.55 47.72ZM279.726 47.72C279.726 46.736 279.522 45.896 279.114 45.2C278.706 44.504 278.154 43.976 277.458 43.616C276.786 43.256 276.042 43.076 275.226 43.076C274.53 43.076 273.846 43.256 273.174 43.616C272.526 43.952 271.986 44.468 271.554 45.164C271.146 45.86 270.942 46.712 270.942 47.72C270.942 48.728 271.146 49.58 271.554 50.276C271.986 50.972 272.526 51.5 273.174 51.86C273.846 52.196 274.53 52.364 275.226 52.364C276.042 52.364 276.786 52.184 277.458 51.824C278.154 51.464 278.706 50.936 279.114 50.24C279.522 49.544 279.726 48.704 279.726 47.72ZM303.903 43.544L288.135 57.26L288.315 51.896L304.083 38.18L303.903 43.544ZM292.635 39.44V52.544L288.135 57.26V39.44H292.635ZM304.083 38.18V56H299.583V42.896L304.083 38.18Z" fill="#1743BD"/>
<path d="M43.1328 104.392V101.968H51.8208V104.392H43.1328ZM50.3088 97.96H53.3088V109H50.3088V97.96ZM42.0048 97.96H45.0048V109H42.0048V97.96ZM57.4039 104.176V102.256H64.0039C63.9399 101.776 63.8119 101.36 63.6199 101.008C63.4279 100.656 63.1639 100.384 62.8279 100.192C62.4919 100 62.0679 99.904 61.5559 99.904C61.0279 99.904 60.5559 100.024 60.1399 100.264C59.7239 100.488 59.3959 100.824 59.1559 101.272C58.9159 101.72 58.7959 102.248 58.7959 102.856L58.7479 103.48C58.7479 104.264 58.8679 104.912 59.1079 105.424C59.3639 105.92 59.7079 106.288 60.1399 106.528C60.5719 106.752 61.0599 106.864 61.6039 106.864C62.0839 106.864 62.5079 106.8 62.8759 106.672C63.2439 106.544 63.5719 106.36 63.8599 106.12C64.1479 105.88 64.3879 105.6 64.5799 105.28L67.2919 106.12C66.9239 106.744 66.4919 107.296 65.9959 107.776C65.4999 108.24 64.8919 108.6 64.1719 108.856C63.4679 109.112 62.6039 109.24 61.5799 109.24C60.3479 109.24 59.2839 108.992 58.3879 108.496C57.4919 108 56.8039 107.32 56.3239 106.456C55.8599 105.576 55.6279 104.584 55.6279 103.48C55.6279 103.272 55.6359 103.072 55.6519 102.88C55.6679 102.688 55.6919 102.496 55.7239 102.304C55.8839 101.392 56.2119 100.592 56.7079 99.904C57.2039 99.216 57.8679 98.68 58.6999 98.296C59.5319 97.912 60.4999 97.72 61.6039 97.72C62.8199 97.72 63.8519 97.952 64.6999 98.416C65.5639 98.864 66.2199 99.504 66.6679 100.336C67.1159 101.168 67.3399 102.168 67.3399 103.336C67.3399 103.432 67.3399 103.552 67.3399 103.696C67.3399 103.84 67.3239 104 67.2919 104.176H57.4039ZM74.4833 103.48V102.352C75.0593 102.352 75.4753 102.24 75.7313 102.016C75.9873 101.792 76.1153 101.52 76.1153 101.2C76.1153 100.848 75.9873 100.576 75.7313 100.384C75.4753 100.176 75.1393 100.072 74.7233 100.072C74.3713 100.072 74.0753 100.136 73.8353 100.264C73.5953 100.392 73.4113 100.568 73.2833 100.792C73.1553 101 73.0913 101.232 73.0913 101.488H70.2113C70.2113 100.752 70.3953 100.104 70.7633 99.544C71.1473 98.968 71.6753 98.52 72.3473 98.2C73.0193 97.88 73.8033 97.72 74.6993 97.72C75.5313 97.72 76.2673 97.856 76.9073 98.128C77.5633 98.4 78.0753 98.776 78.4433 99.256C78.8273 99.72 79.0193 100.248 79.0193 100.84C79.0193 101.64 78.6353 102.296 77.8673 102.808C77.1153 103.304 75.9873 103.528 74.4833 103.48ZM74.6513 109.24C73.1633 109.24 71.9873 108.88 71.1233 108.16C70.2593 107.44 69.7633 106.488 69.6353 105.304H72.6113C72.7233 105.8 72.9393 106.2 73.2593 106.504C73.5953 106.792 74.0513 106.936 74.6273 106.936C75.0273 106.936 75.3713 106.88 75.6593 106.768C75.9473 106.656 76.1713 106.496 76.3313 106.288C76.4913 106.064 76.5713 105.808 76.5713 105.52C76.5713 105.216 76.4913 104.96 76.3313 104.752C76.1713 104.528 75.9313 104.36 75.6113 104.248C75.3073 104.136 74.9313 104.08 74.4833 104.08V102.76C76.0513 102.712 77.2753 102.952 78.1553 103.48C79.0513 104.008 79.4993 104.768 79.4993 105.76C79.4993 106.48 79.2833 107.104 78.8513 107.632C78.4353 108.144 77.8593 108.544 77.1233 108.832C76.3873 109.104 75.5633 109.24 74.6513 109.24ZM83.2343 104.392V101.968H91.9223V104.392H83.2343ZM90.4103 97.96H93.4103V109H90.4103V97.96ZM82.1063 97.96H85.1063V109H82.1063V97.96ZM98.6815 105.712C98.6815 106.016 98.7615 106.272 98.9215 106.48C99.0815 106.672 99.2975 106.824 99.5695 106.936C99.8575 107.032 100.17 107.08 100.506 107.08C101.002 107.08 101.458 107 101.874 106.84C102.29 106.68 102.618 106.416 102.858 106.048C103.098 105.68 103.218 105.192 103.218 104.584L103.602 105.88C103.602 106.584 103.418 107.192 103.05 107.704C102.682 108.2 102.186 108.584 101.562 108.856C100.954 109.112 100.266 109.24 99.4975 109.24C98.7455 109.24 98.0735 109.112 97.4815 108.856C96.8895 108.6 96.4175 108.224 96.0655 107.728C95.7295 107.216 95.5615 106.592 95.5615 105.856C95.5615 105.104 95.7535 104.464 96.1375 103.936C96.5375 103.392 97.0895 102.976 97.7935 102.688C98.5135 102.4 99.3535 102.256 100.314 102.256C100.906 102.256 101.458 102.328 101.97 102.472C102.482 102.616 102.914 102.784 103.266 102.976C103.618 103.168 103.866 103.352 104.01 103.528V105.04C103.562 104.704 103.098 104.456 102.618 104.296C102.138 104.136 101.57 104.056 100.914 104.056C100.434 104.056 100.026 104.128 99.6895 104.272C99.3535 104.416 99.0975 104.608 98.9215 104.848C98.7615 105.088 98.6815 105.376 98.6815 105.712ZM97.6975 101.104L96.5695 98.968C97.1295 98.664 97.8175 98.376 98.6335 98.104C99.4495 97.816 100.354 97.672 101.346 97.672C102.306 97.672 103.146 97.808 103.866 98.08C104.602 98.352 105.178 98.752 105.594 99.28C106.01 99.792 106.218 100.424 106.218 101.176V109H103.218V101.68C103.218 101.184 103.026 100.8 102.642 100.528C102.258 100.24 101.762 100.096 101.154 100.096C100.626 100.096 100.13 100.16 99.6655 100.288C99.2175 100.4 98.8175 100.536 98.4655 100.696C98.1295 100.856 97.8735 100.992 97.6975 101.104ZM109.034 97.96H112.034V109H109.034V97.96ZM116.09 97.96H119.81L115.058 102.52L120.29 109H116.594L111.338 102.52L116.09 97.96ZM120.831 103.48C120.831 102.328 121.095 101.32 121.623 100.456C122.167 99.592 122.895 98.92 123.807 98.44C124.735 97.96 125.783 97.72 126.951 97.72C128.119 97.72 129.159 97.96 130.071 98.44C130.999 98.92 131.727 99.592 132.255 100.456C132.799 101.32 133.071 102.328 133.071 103.48C133.071 104.616 132.799 105.624 132.255 106.504C131.727 107.368 130.999 108.04 130.071 108.52C129.159 109 128.119 109.24 126.951 109.24C125.783 109.24 124.735 109 123.807 108.52C122.895 108.04 122.167 107.368 121.623 106.504C121.095 105.624 120.831 104.616 120.831 103.48ZM123.999 103.48C123.999 104.104 124.127 104.656 124.383 105.136C124.655 105.6 125.015 105.968 125.463 106.24C125.911 106.496 126.407 106.624 126.951 106.624C127.495 106.624 127.991 106.496 128.439 106.24C128.887 105.968 129.239 105.6 129.495 105.136C129.767 104.656 129.903 104.104 129.903 103.48C129.903 102.856 129.767 102.304 129.495 101.824C129.239 101.344 128.887 100.976 128.439 100.72C127.991 100.464 127.495 100.336 126.951 100.336C126.407 100.336 125.911 100.464 125.463 100.72C125.015 100.976 124.655 101.344 124.383 101.824C124.127 102.304 123.999 102.856 123.999 103.48ZM145.939 109L144.355 101.056L145.939 97.12L149.131 109H145.939ZM140.803 106.312L145.939 97.12L146.179 101.68L141.523 109.744L140.803 106.312ZM141.523 109.744L136.939 101.68L137.179 97.12L142.243 106.312L141.523 109.744ZM133.987 109L137.179 97.12L138.763 101.056L137.179 109H133.987ZM150.034 103.48C150.034 102.328 150.298 101.32 150.826 100.456C151.37 99.592 152.098 98.92 153.01 98.44C153.938 97.96 154.986 97.72 156.154 97.72C157.322 97.72 158.362 97.96 159.274 98.44C160.202 98.92 160.93 99.592 161.458 100.456C162.002 101.32 162.274 102.328 162.274 103.48C162.274 104.616 162.002 105.624 161.458 106.504C160.93 107.368 160.202 108.04 159.274 108.52C158.362 109 157.322 109.24 156.154 109.24C154.986 109.24 153.938 109 153.01 108.52C152.098 108.04 151.37 107.368 150.826 106.504C150.298 105.624 150.034 104.616 150.034 103.48ZM153.202 103.48C153.202 104.104 153.33 104.656 153.586 105.136C153.858 105.6 154.218 105.968 154.666 106.24C155.114 106.496 155.61 106.624 156.154 106.624C156.698 106.624 157.194 106.496 157.642 106.24C158.09 105.968 158.442 105.6 158.698 105.136C158.97 104.656 159.106 104.104 159.106 103.48C159.106 102.856 158.97 102.304 158.698 101.824C158.442 101.344 158.09 100.976 157.642 100.72C157.194 100.464 156.698 100.336 156.154 100.336C155.61 100.336 155.114 100.464 154.666 100.72C154.218 100.976 153.858 101.344 153.586 101.824C153.33 102.304 153.202 102.856 153.202 103.48ZM165.638 104.176V102.256H172.238C172.174 101.776 172.046 101.36 171.854 101.008C171.662 100.656 171.398 100.384 171.062 100.192C170.726 100 170.302 99.904 169.79 99.904C169.262 99.904 168.79 100.024 168.374 100.264C167.958 100.488 167.63 100.824 167.39 101.272C167.15 101.72 167.03 102.248 167.03 102.856L166.982 103.48C166.982 104.264 167.102 104.912 167.342 105.424C167.598 105.92 167.942 106.288 168.374 106.528C168.806 106.752 169.294 106.864 169.838 106.864C170.318 106.864 170.742 106.8 171.11 106.672C171.478 106.544 171.806 106.36 172.094 106.12C172.382 105.88 172.622 105.6 172.814 105.28L175.526 106.12C175.158 106.744 174.726 107.296 174.23 107.776C173.734 108.24 173.126 108.6 172.406 108.856C171.702 109.112 170.838 109.24 169.814 109.24C168.582 109.24 167.518 108.992 166.622 108.496C165.726 108 165.038 107.32 164.558 106.456C164.094 105.576 163.862 104.584 163.862 103.48C163.862 103.272 163.87 103.072 163.886 102.88C163.902 102.688 163.926 102.496 163.958 102.304C164.118 101.392 164.446 100.592 164.942 99.904C165.438 99.216 166.102 98.68 166.934 98.296C167.766 97.912 168.734 97.72 169.838 97.72C171.054 97.72 172.086 97.952 172.934 98.416C173.798 98.864 174.454 99.504 174.902 100.336C175.35 101.168 175.574 102.168 175.574 103.336C175.574 103.432 175.574 103.552 175.574 103.696C175.574 103.84 175.558 104 175.526 104.176H165.638ZM187.513 103.48C187.513 104.12 187.657 104.68 187.945 105.16C188.233 105.64 188.617 106.016 189.097 106.288C189.593 106.56 190.137 106.696 190.729 106.696C191.209 106.696 191.673 106.624 192.121 106.48C192.569 106.32 192.969 106.112 193.321 105.856C193.689 105.584 193.969 105.272 194.161 104.92V108.112C193.777 108.464 193.273 108.744 192.649 108.952C192.041 109.144 191.329 109.24 190.513 109.24C189.345 109.24 188.289 109 187.345 108.52C186.417 108.04 185.681 107.368 185.137 106.504C184.609 105.624 184.345 104.616 184.345 103.48C184.345 102.328 184.609 101.32 185.137 100.456C185.681 99.592 186.417 98.92 187.345 98.44C188.289 97.96 189.345 97.72 190.513 97.72C191.329 97.72 192.041 97.824 192.649 98.032C193.273 98.224 193.777 98.488 194.161 98.824V102.016C193.969 101.664 193.681 101.36 193.297 101.104C192.929 100.832 192.521 100.624 192.073 100.48C191.625 100.336 191.177 100.264 190.729 100.264C190.137 100.264 189.593 100.408 189.097 100.696C188.617 100.968 188.233 101.344 187.945 101.824C187.657 102.304 187.513 102.856 187.513 103.48ZM207.919 97.96V109H204.919V100.792H200.359V105.16C200.359 106.024 200.207 106.744 199.903 107.32C199.599 107.88 199.095 108.304 198.391 108.592C197.703 108.864 196.775 109 195.607 109V106.216C196.087 106.216 196.495 106.112 196.831 105.904C197.183 105.68 197.359 105.224 197.359 104.536V97.96H207.919ZM210.62 103.48C210.62 102.328 210.884 101.32 211.412 100.456C211.956 99.592 212.684 98.92 213.596 98.44C214.524 97.96 215.572 97.72 216.74 97.72C217.908 97.72 218.948 97.96 219.86 98.44C220.788 98.92 221.516 99.592 222.044 100.456C222.588 101.32 222.86 102.328 222.86 103.48C222.86 104.616 222.588 105.624 222.044 106.504C221.516 107.368 220.788 108.04 219.86 108.52C218.948 109 217.908 109.24 216.74 109.24C215.572 109.24 214.524 109 213.596 108.52C212.684 108.04 211.956 107.368 211.412 106.504C210.884 105.624 210.62 104.616 210.62 103.48ZM213.788 103.48C213.788 104.104 213.916 104.656 214.172 105.136C214.444 105.6 214.804 105.968 215.252 106.24C215.7 106.496 216.196 106.624 216.74 106.624C217.284 106.624 217.78 106.496 218.228 106.24C218.676 105.968 219.028 105.6 219.284 105.136C219.556 104.656 219.692 104.104 219.692 103.48C219.692 102.856 219.556 102.304 219.284 101.824C219.028 101.344 218.676 100.976 218.228 100.72C217.78 100.464 217.284 100.336 216.74 100.336C216.196 100.336 215.7 100.464 215.252 100.72C214.804 100.976 214.444 101.344 214.172 101.824C213.916 102.304 213.788 102.856 213.788 103.48ZM227.256 103.24H230.952C231.72 103.24 232.408 103.32 233.016 103.48C233.624 103.64 234.104 103.92 234.456 104.32C234.808 104.72 234.984 105.28 234.984 106C234.984 106.832 234.704 107.544 234.144 108.136C233.6 108.712 232.696 109 231.432 109H227.256V106.912H230.448C231.008 106.912 231.408 106.784 231.648 106.528C231.904 106.272 232.032 105.984 232.032 105.664C232.032 105.488 232 105.336 231.936 105.208C231.872 105.064 231.776 104.936 231.648 104.824C231.536 104.696 231.376 104.608 231.168 104.56C230.976 104.496 230.736 104.464 230.448 104.464H227.256V103.24ZM227.256 103.72V102.376H230.208C230.416 102.376 230.6 102.352 230.76 102.304C230.936 102.24 231.08 102.152 231.192 102.04C231.304 101.928 231.392 101.8 231.456 101.656C231.52 101.512 231.552 101.36 231.552 101.2C231.552 100.88 231.432 100.608 231.192 100.384C230.952 100.16 230.624 100.048 230.208 100.048H227.256V97.96H230.712C231.4 97.96 232.024 98.064 232.584 98.272C233.16 98.464 233.624 98.784 233.976 99.232C234.328 99.664 234.504 100.24 234.504 100.96C234.504 101.584 234.328 102.104 233.976 102.52C233.624 102.92 233.16 103.224 232.584 103.432C232.024 103.624 231.4 103.72 230.712 103.72H227.256ZM225.456 97.96H228.456V109H225.456V97.96ZM236.495 103.48C236.495 102.328 236.759 101.32 237.287 100.456C237.831 99.592 238.559 98.92 239.471 98.44C240.399 97.96 241.447 97.72 242.615 97.72C243.783 97.72 244.823 97.96 245.735 98.44C246.663 98.92 247.391 99.592 247.919 100.456C248.463 101.32 248.735 102.328 248.735 103.48C248.735 104.616 248.463 105.624 247.919 106.504C247.391 107.368 246.663 108.04 245.735 108.52C244.823 109 243.783 109.24 242.615 109.24C241.447 109.24 240.399 109 239.471 108.52C238.559 108.04 237.831 107.368 237.287 106.504C236.759 105.624 236.495 104.616 236.495 103.48ZM239.663 103.48C239.663 104.104 239.791 104.656 240.047 105.136C240.319 105.6 240.679 105.968 241.127 106.24C241.575 106.496 242.071 106.624 242.615 106.624C243.159 106.624 243.655 106.496 244.103 106.24C244.551 105.968 244.903 105.6 245.159 105.136C245.431 104.656 245.567 104.104 245.567 103.48C245.567 102.856 245.431 102.304 245.159 101.824C244.903 101.344 244.551 100.976 244.103 100.72C243.655 100.464 243.159 100.336 242.615 100.336C242.071 100.336 241.575 100.464 241.127 100.72C240.679 100.976 240.319 101.344 240.047 101.824C239.791 102.304 239.663 102.856 239.663 103.48Z" fill="#161312"/>
<path d="M55.4183 142.776C55.4183 142.312 55.5783 141.92 55.8983 141.6C56.2343 141.264 56.6343 141.096 57.0983 141.096C57.5943 141.096 58.0023 141.264 58.3223 141.6C58.6423 141.92 58.8023 142.312 58.8023 142.776C58.8023 143.224 58.6423 143.616 58.3223 143.952C58.0023 144.288 57.5943 144.456 57.0983 144.456C56.6343 144.456 56.2343 144.288 55.8983 143.952C55.5783 143.616 55.4183 143.224 55.4183 142.776ZM79.176 158.28H76.56V141.96H79.176V158.28ZM88.32 147.48C88.32 148.696 88.072 149.744 87.576 150.624C87.08 151.488 86.424 152.152 85.608 152.616C84.792 153.064 83.904 153.288 82.944 153.288C82 153.288 81.176 153.056 80.472 152.592C79.784 152.112 79.248 151.44 78.864 150.576C78.496 149.696 78.312 148.664 78.312 147.48C78.312 146.28 78.496 145.248 78.864 144.384C79.248 143.52 79.784 142.856 80.472 142.392C81.176 141.912 82 141.672 82.944 141.672C83.904 141.672 84.792 141.904 85.608 142.368C86.424 142.816 87.08 143.472 87.576 144.336C88.072 145.2 88.32 146.248 88.32 147.48ZM85.632 147.48C85.632 146.744 85.48 146.12 85.176 145.608C84.872 145.08 84.464 144.688 83.952 144.432C83.456 144.16 82.904 144.024 82.296 144.024C81.8 144.024 81.312 144.16 80.832 144.432C80.352 144.688 79.952 145.072 79.632 145.584C79.328 146.096 79.176 146.728 79.176 147.48C79.176 148.232 79.328 148.864 79.632 149.376C79.952 149.888 80.352 150.28 80.832 150.552C81.312 150.808 81.8 150.936 82.296 150.936C82.904 150.936 83.456 150.808 83.952 150.552C84.464 150.28 84.872 149.888 85.176 149.376C85.48 148.848 85.632 148.216 85.632 147.48ZM92.4208 149.736C92.4208 150.072 92.5088 150.352 92.6848 150.576C92.8768 150.8 93.1248 150.976 93.4288 151.104C93.7328 151.216 94.0768 151.272 94.4608 151.272C95.0208 151.272 95.5248 151.184 95.9728 151.008C96.4208 150.832 96.7728 150.552 97.0288 150.168C97.2848 149.784 97.4128 149.272 97.4128 148.632L97.7968 149.88C97.7968 150.584 97.6128 151.192 97.2448 151.704C96.8768 152.2 96.3808 152.584 95.7568 152.856C95.1328 153.112 94.4368 153.24 93.6688 153.24C92.9488 153.24 92.2928 153.112 91.7008 152.856C91.1248 152.6 90.6608 152.224 90.3088 151.728C89.9728 151.216 89.8048 150.584 89.8048 149.832C89.8048 149.08 89.9968 148.432 90.3808 147.888C90.7648 147.344 91.3088 146.928 92.0128 146.64C92.7328 146.352 93.5728 146.208 94.5328 146.208C95.1728 146.208 95.7408 146.288 96.2368 146.448C96.7488 146.608 97.1728 146.792 97.5088 147C97.8448 147.208 98.0768 147.392 98.2048 147.552V148.92C97.7088 148.552 97.2048 148.288 96.6928 148.128C96.1808 147.952 95.5888 147.864 94.9168 147.864C94.3728 147.864 93.9088 147.944 93.5248 148.104C93.1568 148.248 92.8768 148.464 92.6848 148.752C92.5088 149.024 92.4208 149.352 92.4208 149.736ZM91.8448 144.864L90.8128 143.016C91.3088 142.712 91.9408 142.416 92.7088 142.128C93.4768 141.84 94.3568 141.696 95.3488 141.696C96.2608 141.696 97.0608 141.832 97.7488 142.104C98.4368 142.376 98.9728 142.768 99.3568 143.28C99.7568 143.776 99.9568 144.392 99.9568 145.128V153H97.4128V145.416C97.4128 144.904 97.1968 144.512 96.7648 144.24C96.3488 143.952 95.8368 143.808 95.2288 143.808C94.7008 143.808 94.2128 143.872 93.7648 144C93.3168 144.128 92.9248 144.28 92.5888 144.456C92.2688 144.616 92.0208 144.752 91.8448 144.864ZM107.392 147.48V146.328C108.032 146.328 108.488 146.208 108.76 145.968C109.048 145.712 109.192 145.4 109.192 145.032C109.192 144.664 109.048 144.368 108.76 144.144C108.488 143.92 108.112 143.808 107.632 143.808C107.232 143.808 106.896 143.888 106.624 144.048C106.352 144.192 106.144 144.384 106 144.624C105.872 144.848 105.808 145.088 105.808 145.344H103.312C103.312 144.656 103.496 144.04 103.864 143.496C104.232 142.952 104.736 142.52 105.376 142.2C106.032 141.88 106.776 141.72 107.608 141.72C108.392 141.72 109.096 141.856 109.72 142.128C110.344 142.4 110.832 142.768 111.184 143.232C111.536 143.696 111.712 144.208 111.712 144.768C111.712 145.568 111.344 146.232 110.608 146.76C109.872 147.272 108.8 147.512 107.392 147.48ZM107.56 153.24C106.152 153.24 105.032 152.888 104.2 152.184C103.384 151.464 102.912 150.536 102.784 149.4H105.328C105.44 149.912 105.664 150.344 106 150.696C106.352 151.032 106.872 151.2 107.56 151.2C108.008 151.2 108.392 151.136 108.712 151.008C109.032 150.88 109.272 150.704 109.432 150.48C109.608 150.24 109.696 149.96 109.696 149.64C109.696 149.304 109.608 149.016 109.432 148.776C109.256 148.536 108.992 148.352 108.64 148.224C108.304 148.096 107.888 148.032 107.392 148.032V146.76C108.88 146.728 110.048 146.968 110.896 147.48C111.76 147.976 112.192 148.736 112.192 149.76C112.192 150.48 111.984 151.104 111.568 151.632C111.168 152.144 110.616 152.544 109.912 152.832C109.208 153.104 108.424 153.24 107.56 153.24ZM116.585 147.24H120.089C120.857 147.24 121.545 147.32 122.153 147.48C122.761 147.64 123.241 147.92 123.593 148.32C123.945 148.72 124.121 149.28 124.121 150C124.121 150.832 123.841 151.544 123.281 152.136C122.737 152.712 121.833 153 120.569 153H116.585V151.08H119.777C120.417 151.08 120.881 150.944 121.169 150.672C121.457 150.4 121.601 150.08 121.601 149.712C121.601 149.52 121.561 149.344 121.481 149.184C121.401 149.024 121.289 148.88 121.145 148.752C121.017 148.624 120.833 148.528 120.593 148.464C120.369 148.4 120.097 148.368 119.777 148.368H116.585V147.24ZM116.585 147.72V146.472H119.537C119.777 146.472 119.993 146.44 120.185 146.376C120.393 146.312 120.561 146.216 120.689 146.088C120.817 145.96 120.921 145.816 121.001 145.656C121.081 145.496 121.121 145.328 121.121 145.152C121.121 144.784 120.977 144.48 120.689 144.24C120.417 144 120.033 143.88 119.537 143.88H116.585V141.96H119.849C120.537 141.96 121.161 142.064 121.721 142.272C122.297 142.464 122.761 142.784 123.113 143.232C123.465 143.664 123.641 144.24 123.641 144.96C123.641 145.584 123.465 146.104 123.113 146.52C122.761 146.92 122.297 147.224 121.721 147.432C121.161 147.624 120.537 147.72 119.849 147.72H116.585ZM115.073 141.96H117.617V153H115.073V141.96ZM127.204 148.08V146.304H134.14C134.076 145.776 133.932 145.32 133.708 144.936C133.5 144.536 133.204 144.232 132.82 144.024C132.436 143.8 131.964 143.688 131.404 143.688C130.828 143.688 130.308 143.816 129.844 144.072C129.38 144.312 129.012 144.672 128.74 145.152C128.468 145.616 128.332 146.168 128.332 146.808L128.284 147.48C128.284 148.296 128.412 148.976 128.668 149.52C128.94 150.048 129.308 150.448 129.772 150.72C130.252 150.976 130.804 151.104 131.428 151.104C131.94 151.104 132.388 151.032 132.772 150.888C133.172 150.744 133.524 150.544 133.828 150.288C134.132 150.016 134.388 149.704 134.596 149.352L136.828 150.264C136.46 150.856 136.036 151.376 135.556 151.824C135.092 152.272 134.516 152.624 133.828 152.88C133.156 153.12 132.316 153.24 131.308 153.24C130.172 153.24 129.18 152.992 128.332 152.496C127.484 152 126.828 151.32 126.364 150.456C125.9 149.576 125.668 148.584 125.668 147.48C125.668 147.272 125.676 147.072 125.692 146.88C125.708 146.688 125.732 146.496 125.764 146.304C125.924 145.392 126.244 144.592 126.724 143.904C127.22 143.216 127.868 142.68 128.668 142.296C129.468 141.912 130.388 141.72 131.428 141.72C132.564 141.72 133.54 141.952 134.356 142.416C135.188 142.864 135.828 143.512 136.276 144.36C136.724 145.192 136.948 146.192 136.948 147.36C136.948 147.456 136.948 147.568 136.948 147.696C136.948 147.808 136.932 147.936 136.9 148.08H127.204ZM141.965 158.28H139.349V141.96H141.965V158.28ZM151.109 147.48C151.109 148.696 150.861 149.744 150.365 150.624C149.869 151.488 149.213 152.152 148.397 152.616C147.581 153.064 146.693 153.288 145.733 153.288C144.789 153.288 143.965 153.056 143.261 152.592C142.573 152.112 142.037 151.44 141.653 150.576C141.285 149.696 141.101 148.664 141.101 147.48C141.101 146.28 141.285 145.248 141.653 144.384C142.037 143.52 142.573 142.856 143.261 142.392C143.965 141.912 144.789 141.672 145.733 141.672C146.693 141.672 147.581 141.904 148.397 142.368C149.213 142.816 149.869 143.472 150.365 144.336C150.861 145.2 151.109 146.248 151.109 147.48ZM148.421 147.48C148.421 146.744 148.269 146.12 147.965 145.608C147.661 145.08 147.253 144.688 146.741 144.432C146.245 144.16 145.693 144.024 145.085 144.024C144.589 144.024 144.101 144.16 143.621 144.432C143.141 144.688 142.741 145.072 142.421 145.584C142.117 146.096 141.965 146.728 141.965 147.48C141.965 148.232 142.117 148.864 142.421 149.376C142.741 149.888 143.141 150.28 143.621 150.552C144.101 150.808 144.589 150.936 145.085 150.936C145.693 150.936 146.245 150.808 146.741 150.552C147.253 150.28 147.661 149.888 147.965 149.376C148.269 148.848 148.421 148.216 148.421 147.48ZM154.706 148.248V146.112H163.154V148.248H154.706ZM161.762 141.96H164.306V153H161.762V141.96ZM153.578 141.96H156.122V153H153.578V141.96ZM177.385 141.96L170.185 158.28H167.425L170.305 151.704L165.865 141.96H168.841L172.369 150.696L171.145 150.624L174.601 141.96H177.385ZM177.401 141.96H184.385V144.24H177.401V141.96ZM179.633 142.44H182.177V153H179.633V142.44ZM184.964 147.48C184.964 146.344 185.22 145.344 185.732 144.48C186.26 143.616 186.972 142.944 187.868 142.464C188.764 141.968 189.78 141.72 190.916 141.72C192.052 141.72 193.06 141.968 193.94 142.464C194.836 142.944 195.548 143.616 196.076 144.48C196.604 145.344 196.868 146.344 196.868 147.48C196.868 148.6 196.604 149.6 196.076 150.48C195.548 151.344 194.836 152.024 193.94 152.52C193.06 153 192.052 153.24 190.916 153.24C189.78 153.24 188.764 153 187.868 152.52C186.972 152.024 186.26 151.344 185.732 150.48C185.22 149.6 184.964 148.6 184.964 147.48ZM187.628 147.48C187.628 148.168 187.772 148.776 188.06 149.304C188.348 149.816 188.74 150.224 189.236 150.528C189.732 150.816 190.292 150.96 190.916 150.96C191.524 150.96 192.076 150.816 192.572 150.528C193.084 150.224 193.484 149.816 193.772 149.304C194.06 148.776 194.204 148.168 194.204 147.48C194.204 146.792 194.06 146.184 193.772 145.656C193.484 145.128 193.084 144.72 192.572 144.432C192.076 144.144 191.524 144 190.916 144C190.292 144 189.732 144.144 189.236 144.432C188.74 144.72 188.348 145.128 188.06 145.656C187.772 146.184 187.628 146.792 187.628 147.48ZM200.024 148.08V146.304H206.96C206.896 145.776 206.752 145.32 206.528 144.936C206.32 144.536 206.024 144.232 205.64 144.024C205.256 143.8 204.784 143.688 204.224 143.688C203.648 143.688 203.128 143.816 202.664 144.072C202.2 144.312 201.832 144.672 201.56 145.152C201.288 145.616 201.152 146.168 201.152 146.808L201.104 147.48C201.104 148.296 201.232 148.976 201.488 149.52C201.76 150.048 202.128 150.448 202.592 150.72C203.072 150.976 203.624 151.104 204.248 151.104C204.76 151.104 205.208 151.032 205.592 150.888C205.992 150.744 206.344 150.544 206.648 150.288C206.952 150.016 207.208 149.704 207.416 149.352L209.648 150.264C209.28 150.856 208.856 151.376 208.376 151.824C207.912 152.272 207.336 152.624 206.648 152.88C205.976 153.12 205.136 153.24 204.128 153.24C202.992 153.24 202 152.992 201.152 152.496C200.304 152 199.648 151.32 199.184 150.456C198.72 149.576 198.488 148.584 198.488 147.48C198.488 147.272 198.496 147.072 198.512 146.88C198.528 146.688 198.552 146.496 198.584 146.304C198.744 145.392 199.064 144.592 199.544 143.904C200.04 143.216 200.688 142.68 201.488 142.296C202.288 141.912 203.208 141.72 204.248 141.72C205.384 141.72 206.36 141.952 207.176 142.416C208.008 142.864 208.648 143.512 209.096 144.36C209.544 145.192 209.768 146.192 209.768 147.36C209.768 147.456 209.768 147.568 209.768 147.696C209.768 147.808 209.752 147.936 209.72 148.08H200.024ZM218.621 147.48C218.621 146.344 218.877 145.344 219.389 144.48C219.917 143.616 220.629 142.944 221.525 142.464C222.421 141.968 223.437 141.72 224.573 141.72C225.709 141.72 226.717 141.968 227.597 142.464C228.493 142.944 229.205 143.616 229.733 144.48C230.261 145.344 230.525 146.344 230.525 147.48C230.525 148.6 230.261 149.6 229.733 150.48C229.205 151.344 228.493 152.024 227.597 152.52C226.717 153 225.709 153.24 224.573 153.24C223.437 153.24 222.421 153 221.525 152.52C220.629 152.024 219.917 151.344 219.389 150.48C218.877 149.6 218.621 148.6 218.621 147.48ZM221.285 147.48C221.285 148.168 221.429 148.776 221.717 149.304C222.005 149.816 222.397 150.224 222.893 150.528C223.389 150.816 223.949 150.96 224.573 150.96C225.181 150.96 225.733 150.816 226.229 150.528C226.741 150.224 227.141 149.816 227.429 149.304C227.717 148.776 227.861 148.168 227.861 147.48C227.861 146.792 227.717 146.184 227.429 145.656C227.141 145.128 226.741 144.72 226.229 144.432C225.733 144.144 225.181 144 224.573 144C223.949 144 223.389 144.144 222.893 144.432C222.397 144.72 222.005 145.128 221.717 145.656C221.429 146.184 221.285 146.792 221.285 147.48ZM242.752 141.96V153H240.208V144.288H235.528V153H232.984V141.96H242.752ZM248.582 158.28H245.966V141.96H248.582V158.28ZM257.726 147.48C257.726 148.696 257.478 149.744 256.982 150.624C256.486 151.488 255.83 152.152 255.014 152.616C254.198 153.064 253.31 153.288 252.35 153.288C251.406 153.288 250.582 153.056 249.878 152.592C249.19 152.112 248.654 151.44 248.27 150.576C247.902 149.696 247.718 148.664 247.718 147.48C247.718 146.28 247.902 145.248 248.27 144.384C248.654 143.52 249.19 142.856 249.878 142.392C250.582 141.912 251.406 141.672 252.35 141.672C253.31 141.672 254.198 141.904 255.014 142.368C255.83 142.816 256.486 143.472 256.982 144.336C257.478 145.2 257.726 146.248 257.726 147.48ZM255.038 147.48C255.038 146.744 254.886 146.12 254.582 145.608C254.278 145.08 253.87 144.688 253.358 144.432C252.862 144.16 252.31 144.024 251.702 144.024C251.206 144.024 250.718 144.16 250.238 144.432C249.758 144.688 249.358 145.072 249.038 145.584C248.734 146.096 248.582 146.728 248.582 147.48C248.582 148.232 248.734 148.864 249.038 149.376C249.358 149.888 249.758 150.28 250.238 150.552C250.718 150.808 251.206 150.936 251.702 150.936C252.31 150.936 252.862 150.808 253.358 150.552C253.87 150.28 254.278 149.888 254.582 149.376C254.886 148.848 255.038 148.216 255.038 147.48ZM260.891 148.08V146.304H267.827C267.763 145.776 267.619 145.32 267.395 144.936C267.187 144.536 266.891 144.232 266.507 144.024C266.123 143.8 265.651 143.688 265.091 143.688C264.515 143.688 263.995 143.816 263.531 144.072C263.067 144.312 262.699 144.672 262.427 145.152C262.155 145.616 262.019 146.168 262.019 146.808L261.971 147.48C261.971 148.296 262.099 148.976 262.355 149.52C262.627 150.048 262.995 150.448 263.459 150.72C263.939 150.976 264.491 151.104 265.115 151.104C265.627 151.104 266.075 151.032 266.459 150.888C266.859 150.744 267.211 150.544 267.515 150.288C267.819 150.016 268.075 149.704 268.283 149.352L270.515 150.264C270.147 150.856 269.723 151.376 269.243 151.824C268.779 152.272 268.203 152.624 267.515 152.88C266.843 153.12 266.003 153.24 264.995 153.24C263.859 153.24 262.867 152.992 262.019 152.496C261.171 152 260.515 151.32 260.051 150.456C259.587 149.576 259.355 148.584 259.355 147.48C259.355 147.272 259.363 147.072 259.379 146.88C259.395 146.688 259.419 146.496 259.451 146.304C259.611 145.392 259.931 144.592 260.411 143.904C260.907 143.216 261.555 142.68 262.355 142.296C263.155 141.912 264.075 141.72 265.115 141.72C266.251 141.72 267.227 141.952 268.043 142.416C268.875 142.864 269.515 143.512 269.963 144.36C270.411 145.192 270.635 146.192 270.635 147.36C270.635 147.456 270.635 147.568 270.635 147.696C270.635 147.808 270.619 147.936 270.587 148.08H260.891ZM278.321 145.68L275.321 152.28L272.633 151.992L278.321 141.12L284.009 151.992L281.321 152.28L278.321 145.68ZM282.881 153H273.881V155.16H271.241V150.792H285.401V155.16H282.881V153ZM288.829 148.08V146.304H295.765C295.701 145.776 295.557 145.32 295.333 144.936C295.125 144.536 294.829 144.232 294.445 144.024C294.061 143.8 293.589 143.688 293.029 143.688C292.453 143.688 291.933 143.816 291.469 144.072C291.005 144.312 290.637 144.672 290.365 145.152C290.093 145.616 289.957 146.168 289.957 146.808L289.909 147.48C289.909 148.296 290.037 148.976 290.293 149.52C290.565 150.048 290.933 150.448 291.397 150.72C291.877 150.976 292.429 151.104 293.053 151.104C293.565 151.104 294.013 151.032 294.397 150.888C294.797 150.744 295.149 150.544 295.453 150.288C295.757 150.016 296.013 149.704 296.221 149.352L298.453 150.264C298.085 150.856 297.661 151.376 297.181 151.824C296.717 152.272 296.141 152.624 295.453 152.88C294.781 153.12 293.941 153.24 292.933 153.24C291.797 153.24 290.805 152.992 289.957 152.496C289.109 152 288.453 151.32 287.989 150.456C287.525 149.576 287.293 148.584 287.293 147.48C287.293 147.272 287.301 147.072 287.317 146.88C287.333 146.688 287.357 146.496 287.389 146.304C287.549 145.392 287.869 144.592 288.349 143.904C288.845 143.216 289.493 142.68 290.293 142.296C291.093 141.912 292.013 141.72 293.053 141.72C294.189 141.72 295.165 141.952 295.981 142.416C296.813 142.864 297.453 143.512 297.901 144.36C298.349 145.192 298.573 146.192 298.573 147.36C298.573 147.456 298.573 147.568 298.573 147.696C298.573 147.808 298.557 147.936 298.525 148.08H288.829ZM311.51 141.96V153H308.966V144.36H303.95V149.16C303.95 150.024 303.806 150.744 303.518 151.32C303.23 151.88 302.766 152.304 302.126 152.592C301.502 152.864 300.678 153 299.654 153V150.648C300.134 150.648 300.542 150.52 300.878 150.264C301.23 150.008 301.406 149.52 301.406 148.8V141.96H311.51ZM315.782 148.08V146.304H322.718C322.654 145.776 322.51 145.32 322.286 144.936C322.078 144.536 321.782 144.232 321.398 144.024C321.014 143.8 320.542 143.688 319.982 143.688C319.406 143.688 318.886 143.816 318.422 144.072C317.958 144.312 317.59 144.672 317.318 145.152C317.046 145.616 316.91 146.168 316.91 146.808L316.862 147.48C316.862 148.296 316.99 148.976 317.246 149.52C317.518 150.048 317.886 150.448 318.35 150.72C318.83 150.976 319.382 151.104 320.006 151.104C320.518 151.104 320.966 151.032 321.35 150.888C321.75 150.744 322.102 150.544 322.406 150.288C322.71 150.016 322.966 149.704 323.174 149.352L325.406 150.264C325.038 150.856 324.614 151.376 324.134 151.824C323.67 152.272 323.094 152.624 322.406 152.88C321.734 153.12 320.894 153.24 319.886 153.24C318.75 153.24 317.758 152.992 316.91 152.496C316.062 152 315.406 151.32 314.942 150.456C314.478 149.576 314.246 148.584 314.246 147.48C314.246 147.272 314.254 147.072 314.27 146.88C314.286 146.688 314.31 146.496 314.342 146.304C314.502 145.392 314.822 144.592 315.302 143.904C315.798 143.216 316.446 142.68 317.246 142.296C318.046 141.912 318.966 141.72 320.006 141.72C321.142 141.72 322.118 141.952 322.934 142.416C323.766 142.864 324.406 143.512 324.854 144.36C325.302 145.192 325.526 146.192 325.526 147.36C325.526 147.456 325.526 147.568 325.526 147.696C325.526 147.808 325.51 147.936 325.478 148.08H315.782ZM329.151 148.248V146.112H337.599V148.248H329.151ZM336.207 141.96H338.751V153H336.207V141.96ZM328.023 141.96H330.567V153H328.023V141.96ZM352.07 144.36L342.158 153.84L342.278 150.6L352.19 141.12L352.07 144.36ZM344.702 141.96V150.912L342.158 153.84V141.96H344.702ZM352.19 141.12V153H349.646V144.048L352.19 141.12ZM356.305 148.08V146.304H363.241C363.177 145.776 363.033 145.32 362.809 144.936C362.601 144.536 362.305 144.232 361.921 144.024C361.537 143.8 361.065 143.688 360.505 143.688C359.929 143.688 359.409 143.816 358.945 144.072C358.481 144.312 358.113 144.672 357.841 145.152C357.569 145.616 357.433 146.168 357.433 146.808L357.385 147.48C357.385 148.296 357.513 148.976 357.769 149.52C358.041 150.048 358.409 150.448 358.873 150.72C359.353 150.976 359.905 151.104 360.529 151.104C361.041 151.104 361.489 151.032 361.873 150.888C362.273 150.744 362.625 150.544 362.929 150.288C363.233 150.016 363.489 149.704 363.697 149.352L365.929 150.264C365.561 150.856 365.137 151.376 364.657 151.824C364.193 152.272 363.617 152.624 362.929 152.88C362.257 153.12 361.417 153.24 360.409 153.24C359.273 153.24 358.281 152.992 357.433 152.496C356.585 152 355.929 151.32 355.465 150.456C355.001 149.576 354.769 148.584 354.769 147.48C354.769 147.272 354.777 147.072 354.793 146.88C354.809 146.688 354.833 146.496 354.865 146.304C355.025 145.392 355.345 144.592 355.825 143.904C356.321 143.216 356.969 142.68 357.769 142.296C358.569 141.912 359.489 141.72 360.529 141.72C361.665 141.72 362.641 141.952 363.457 142.416C364.289 142.864 364.929 143.512 365.377 144.36C365.825 145.192 366.049 146.192 366.049 147.36C366.049 147.456 366.049 147.568 366.049 147.696C366.049 147.808 366.033 147.936 366.001 148.08H356.305ZM377.47 147.48C377.47 148.184 377.622 148.8 377.926 149.328C378.23 149.84 378.638 150.248 379.15 150.552C379.678 150.856 380.262 151.008 380.902 151.008C381.43 151.008 381.934 150.928 382.414 150.768C382.894 150.608 383.318 150.384 383.686 150.096C384.054 149.808 384.326 149.488 384.502 149.136V151.992C384.118 152.376 383.598 152.68 382.942 152.904C382.286 153.128 381.566 153.24 380.782 153.24C379.646 153.24 378.622 153 377.71 152.52C376.814 152.024 376.102 151.344 375.574 150.48C375.062 149.6 374.806 148.6 374.806 147.48C374.806 146.344 375.062 145.344 375.574 144.48C376.102 143.616 376.814 142.944 377.71 142.464C378.622 141.968 379.646 141.72 380.782 141.72C381.566 141.72 382.286 141.832 382.942 142.056C383.598 142.28 384.118 142.584 384.502 142.968V145.824C384.326 145.456 384.046 145.136 383.662 144.864C383.294 144.576 382.87 144.352 382.39 144.192C381.91 144.032 381.414 143.952 380.902 143.952C380.262 143.952 379.678 144.104 379.15 144.408C378.638 144.712 378.23 145.128 377.926 145.656C377.622 146.184 377.47 146.792 377.47 147.48ZM397.807 141.96V153H395.263V144.36H390.247V149.16C390.247 150.024 390.103 150.744 389.815 151.32C389.527 151.88 389.063 152.304 388.423 152.592C387.799 152.864 386.975 153 385.951 153V150.648C386.431 150.648 386.839 150.52 387.175 150.264C387.527 150.008 387.703 149.52 387.703 148.8V141.96H397.807ZM400.543 147.48C400.543 146.344 400.799 145.344 401.311 144.48C401.839 143.616 402.551 142.944 403.447 142.464C404.343 141.968 405.359 141.72 406.495 141.72C407.631 141.72 408.639 141.968 409.519 142.464C410.415 142.944 411.127 143.616 411.655 144.48C412.183 145.344 412.447 146.344 412.447 147.48C412.447 148.6 412.183 149.6 411.655 150.48C411.127 151.344 410.415 152.024 409.519 152.52C408.639 153 407.631 153.24 406.495 153.24C405.359 153.24 404.343 153 403.447 152.52C402.551 152.024 401.839 151.344 401.311 150.48C400.799 149.6 400.543 148.6 400.543 147.48ZM403.207 147.48C403.207 148.168 403.351 148.776 403.639 149.304C403.927 149.816 404.319 150.224 404.815 150.528C405.311 150.816 405.871 150.96 406.495 150.96C407.103 150.96 407.655 150.816 408.151 150.528C408.663 150.224 409.063 149.816 409.351 149.304C409.639 148.776 409.783 148.168 409.783 147.48C409.783 146.792 409.639 146.184 409.351 145.656C409.063 145.128 408.663 144.72 408.151 144.432C407.655 144.144 407.103 144 406.495 144C405.871 144 405.311 144.144 404.815 144.432C404.319 144.72 403.927 145.128 403.639 145.656C403.351 146.184 403.207 146.792 403.207 147.48ZM416.562 147.24H420.066C420.834 147.24 421.522 147.32 422.13 147.48C422.738 147.64 423.218 147.92 423.57 148.32C423.922 148.72 424.098 149.28 424.098 150C424.098 150.832 423.818 151.544 423.258 152.136C422.714 152.712 421.81 153 420.546 153H416.562V151.08H419.754C420.394 151.08 420.858 150.944 421.146 150.672C421.434 150.4 421.578 150.08 421.578 149.712C421.578 149.52 421.538 149.344 421.458 149.184C421.378 149.024 421.266 148.88 421.122 148.752C420.994 148.624 420.81 148.528 420.57 148.464C420.346 148.4 420.074 148.368 419.754 148.368H416.562V147.24ZM416.562 147.72V146.472H419.514C419.754 146.472 419.97 146.44 420.162 146.376C420.37 146.312 420.538 146.216 420.666 146.088C420.794 145.96 420.898 145.816 420.978 145.656C421.058 145.496 421.098 145.328 421.098 145.152C421.098 144.784 420.954 144.48 420.666 144.24C420.394 144 420.01 143.88 419.514 143.88H416.562V141.96H419.826C420.514 141.96 421.138 142.064 421.698 142.272C422.274 142.464 422.738 142.784 423.09 143.232C423.442 143.664 423.618 144.24 423.618 144.96C423.618 145.584 423.442 146.104 423.09 146.52C422.738 146.92 422.274 147.224 421.698 147.432C421.138 147.624 420.514 147.72 419.826 147.72H416.562ZM415.05 141.96H417.594V153H415.05V141.96ZM428.116 149.736C428.116 150.072 428.204 150.352 428.38 150.576C428.572 150.8 428.82 150.976 429.124 151.104C429.428 151.216 429.772 151.272 430.156 151.272C430.716 151.272 431.22 151.184 431.668 151.008C432.116 150.832 432.468 150.552 432.724 150.168C432.98 149.784 433.108 149.272 433.108 148.632L433.492 149.88C433.492 150.584 433.308 151.192 432.94 151.704C432.572 152.2 432.076 152.584 431.452 152.856C430.828 153.112 430.132 153.24 429.364 153.24C428.644 153.24 427.988 153.112 427.396 152.856C426.82 152.6 426.356 152.224 426.004 151.728C425.668 151.216 425.5 150.584 425.5 149.832C425.5 149.08 425.692 148.432 426.076 147.888C426.46 147.344 427.004 146.928 427.708 146.64C428.428 146.352 429.268 146.208 430.228 146.208C430.868 146.208 431.436 146.288 431.932 146.448C432.444 146.608 432.868 146.792 433.204 147C433.54 147.208 433.772 147.392 433.9 147.552V148.92C433.404 148.552 432.9 148.288 432.388 148.128C431.876 147.952 431.284 147.864 430.612 147.864C430.068 147.864 429.604 147.944 429.22 148.104C428.852 148.248 428.572 148.464 428.38 148.752C428.204 149.024 428.116 149.352 428.116 149.736ZM427.54 144.864L426.508 143.016C427.004 142.712 427.636 142.416 428.404 142.128C429.172 141.84 430.052 141.696 431.044 141.696C431.956 141.696 432.756 141.832 433.444 142.104C434.132 142.376 434.668 142.768 435.052 143.28C435.452 143.776 435.652 144.392 435.652 145.128V153H433.108V145.416C433.108 144.904 432.892 144.512 432.46 144.24C432.044 143.952 431.532 143.808 430.924 143.808C430.396 143.808 429.908 143.872 429.46 144C429.012 144.128 428.62 144.28 428.284 144.456C427.964 144.616 427.716 144.752 427.54 144.864ZM55.4183 177.776C55.4183 177.312 55.5783 176.92 55.8983 176.6C56.2343 176.264 56.6343 176.096 57.0983 176.096C57.5943 176.096 58.0023 176.264 58.3223 176.6C58.6423 176.92 58.8023 177.312 58.8023 177.776C58.8023 178.224 58.6423 178.616 58.3223 178.952C58.0023 179.288 57.5943 179.456 57.0983 179.456C56.6343 179.456 56.2343 179.288 55.8983 178.952C55.5783 178.616 55.4183 178.224 55.4183 177.776ZM86.424 176.96V188H83.88V179.288H79.2V188H76.656V176.96H86.424ZM92.2541 193.28H89.6381V176.96H92.2541V193.28ZM101.398 182.48C101.398 183.696 101.15 184.744 100.654 185.624C100.158 186.488 99.5021 187.152 98.6861 187.616C97.8701 188.064 96.9821 188.288 96.0221 188.288C95.0781 188.288 94.2541 188.056 93.5501 187.592C92.8621 187.112 92.3261 186.44 91.9421 185.576C91.5741 184.696 91.3901 183.664 91.3901 182.48C91.3901 181.28 91.5741 180.248 91.9421 179.384C92.3261 178.52 92.8621 177.856 93.5501 177.392C94.2541 176.912 95.0781 176.672 96.0221 176.672C96.9821 176.672 97.8701 176.904 98.6861 177.368C99.5021 177.816 100.158 178.472 100.654 179.336C101.15 180.2 101.398 181.248 101.398 182.48ZM98.7101 182.48C98.7101 181.744 98.5581 181.12 98.2541 180.608C97.9501 180.08 97.5421 179.688 97.0301 179.432C96.5341 179.16 95.9821 179.024 95.3741 179.024C94.8781 179.024 94.3901 179.16 93.9101 179.432C93.4301 179.688 93.0301 180.072 92.7101 180.584C92.4061 181.096 92.2541 181.728 92.2541 182.48C92.2541 183.232 92.4061 183.864 92.7101 184.376C93.0301 184.888 93.4301 185.28 93.9101 185.552C94.3901 185.808 94.8781 185.936 95.3741 185.936C95.9821 185.936 96.5341 185.808 97.0301 185.552C97.5421 185.28 97.9501 184.888 98.2541 184.376C98.5581 183.848 98.7101 183.216 98.7101 182.48ZM113.875 179.36L103.963 188.84L104.083 185.6L113.995 176.12L113.875 179.36ZM106.507 176.96V185.912L103.963 188.84V176.96H106.507ZM113.995 176.12V188H111.451V179.048L113.995 176.12ZM127.926 188L126.246 179.72L127.614 176.12L130.686 188H127.926ZM122.526 185.744L127.614 176.12L127.854 180.368L123.246 188.744L122.526 185.744ZM123.246 188.744L118.686 180.368L118.926 176.12L123.966 185.744L123.246 188.744ZM115.878 188L118.926 176.12L120.318 179.72L118.638 188H115.878ZM133.157 183.08V181.304H140.093C140.029 180.776 139.885 180.32 139.661 179.936C139.453 179.536 139.157 179.232 138.773 179.024C138.389 178.8 137.917 178.688 137.357 178.688C136.781 178.688 136.261 178.816 135.797 179.072C135.333 179.312 134.965 179.672 134.693 180.152C134.421 180.616 134.285 181.168 134.285 181.808L134.237 182.48C134.237 183.296 134.365 183.976 134.621 184.52C134.893 185.048 135.261 185.448 135.725 185.72C136.205 185.976 136.757 186.104 137.381 186.104C137.893 186.104 138.341 186.032 138.725 185.888C139.125 185.744 139.477 185.544 139.781 185.288C140.085 185.016 140.341 184.704 140.549 184.352L142.781 185.264C142.413 185.856 141.989 186.376 141.509 186.824C141.045 187.272 140.469 187.624 139.781 187.88C139.109 188.12 138.269 188.24 137.261 188.24C136.125 188.24 135.133 187.992 134.285 187.496C133.437 187 132.781 186.32 132.317 185.456C131.853 184.576 131.621 183.584 131.621 182.48C131.621 182.272 131.629 182.072 131.645 181.88C131.661 181.688 131.685 181.496 131.717 181.304C131.877 180.392 132.197 179.592 132.677 178.904C133.173 178.216 133.821 177.68 134.621 177.296C135.421 176.912 136.341 176.72 137.381 176.72C138.517 176.72 139.493 176.952 140.309 177.416C141.141 177.864 141.781 178.512 142.229 179.36C142.677 180.192 142.901 181.192 142.901 182.36C142.901 182.456 142.901 182.568 142.901 182.696C142.901 182.808 142.885 182.936 142.853 183.08H133.157ZM147.918 193.28H145.302V176.96H147.918V193.28ZM157.062 182.48C157.062 183.696 156.814 184.744 156.318 185.624C155.822 186.488 155.166 187.152 154.35 187.616C153.534 188.064 152.646 188.288 151.686 188.288C150.742 188.288 149.918 188.056 149.214 187.592C148.526 187.112 147.99 186.44 147.606 185.576C147.238 184.696 147.054 183.664 147.054 182.48C147.054 181.28 147.238 180.248 147.606 179.384C147.99 178.52 148.526 177.856 149.214 177.392C149.918 176.912 150.742 176.672 151.686 176.672C152.646 176.672 153.534 176.904 154.35 177.368C155.166 177.816 155.822 178.472 156.318 179.336C156.814 180.2 157.062 181.248 157.062 182.48ZM154.374 182.48C154.374 181.744 154.222 181.12 153.918 180.608C153.614 180.08 153.206 179.688 152.694 179.432C152.198 179.16 151.646 179.024 151.038 179.024C150.542 179.024 150.054 179.16 149.574 179.432C149.094 179.688 148.694 180.072 148.374 180.584C148.07 181.096 147.918 181.728 147.918 182.48C147.918 183.232 148.07 183.864 148.374 184.376C148.694 184.888 149.094 185.28 149.574 185.552C150.054 185.808 150.542 185.936 151.038 185.936C151.646 185.936 152.198 185.808 152.694 185.552C153.206 185.28 153.614 184.888 153.918 184.376C154.222 183.848 154.374 183.216 154.374 182.48ZM170.235 176.96H172.851V188H170.235V176.96ZM159.531 176.96H162.123V188H159.531V176.96ZM161.331 182.912V180.968H164.763C165.899 180.968 166.851 181.248 167.619 181.808C168.403 182.352 168.795 183.216 168.795 184.4C168.795 185.184 168.619 185.848 168.267 186.392C167.915 186.92 167.435 187.32 166.827 187.592C166.219 187.864 165.531 188 164.763 188H161.331V185.864H164.523C164.907 185.864 165.227 185.808 165.483 185.696C165.739 185.584 165.939 185.416 166.083 185.192C166.227 184.968 166.299 184.704 166.299 184.4C166.299 183.92 166.147 183.552 165.843 183.296C165.539 183.04 165.099 182.912 164.523 182.912H161.331ZM193.112 176.96V188H190.568V179.288H185.888V188H183.344V176.96H193.112ZM198.942 193.28H196.326V176.96H198.942V193.28ZM208.086 182.48C208.086 183.696 207.838 184.744 207.342 185.624C206.846 186.488 206.19 187.152 205.374 187.616C204.558 188.064 203.67 188.288 202.71 188.288C201.766 188.288 200.942 188.056 200.238 187.592C199.55 187.112 199.014 186.44 198.63 185.576C198.262 184.696 198.078 183.664 198.078 182.48C198.078 181.28 198.262 180.248 198.63 179.384C199.014 178.52 199.55 177.856 200.238 177.392C200.942 176.912 201.766 176.672 202.71 176.672C203.67 176.672 204.558 176.904 205.374 177.368C206.19 177.816 206.846 178.472 207.342 179.336C207.838 180.2 208.086 181.248 208.086 182.48ZM205.398 182.48C205.398 181.744 205.246 181.12 204.942 180.608C204.638 180.08 204.23 179.688 203.718 179.432C203.222 179.16 202.67 179.024 202.062 179.024C201.566 179.024 201.078 179.16 200.598 179.432C200.118 179.688 199.718 180.072 199.398 180.584C199.094 181.096 198.942 181.728 198.942 182.48C198.942 183.232 199.094 183.864 199.398 184.376C199.718 184.888 200.118 185.28 200.598 185.552C201.078 185.808 201.566 185.936 202.062 185.936C202.67 185.936 203.222 185.808 203.718 185.552C204.23 185.28 204.638 184.888 204.942 184.376C205.246 183.848 205.398 183.216 205.398 182.48ZM220.562 179.36L210.65 188.84L210.77 185.6L220.682 176.12L220.562 179.36ZM213.194 176.96V185.912L210.65 188.84V176.96H213.194ZM220.682 176.12V188H218.138V179.048L220.682 176.12ZM234.613 188L232.933 179.72L234.301 176.12L237.373 188H234.613ZM229.213 185.744L234.301 176.12L234.541 180.368L229.933 188.744L229.213 185.744ZM229.933 188.744L225.373 180.368L225.613 176.12L230.653 185.744L229.933 188.744ZM222.565 188L225.613 176.12L227.005 179.72L225.325 188H222.565ZM239.844 183.08V181.304H246.78C246.716 180.776 246.572 180.32 246.348 179.936C246.14 179.536 245.844 179.232 245.46 179.024C245.076 178.8 244.604 178.688 244.044 178.688C243.468 178.688 242.948 178.816 242.484 179.072C242.02 179.312 241.652 179.672 241.38 180.152C241.108 180.616 240.972 181.168 240.972 181.808L240.924 182.48C240.924 183.296 241.052 183.976 241.308 184.52C241.58 185.048 241.948 185.448 242.412 185.72C242.892 185.976 243.444 186.104 244.068 186.104C244.58 186.104 245.028 186.032 245.412 185.888C245.812 185.744 246.164 185.544 246.468 185.288C246.772 185.016 247.028 184.704 247.236 184.352L249.468 185.264C249.1 185.856 248.676 186.376 248.196 186.824C247.732 187.272 247.156 187.624 246.468 187.88C245.796 188.12 244.956 188.24 243.948 188.24C242.812 188.24 241.82 187.992 240.972 187.496C240.124 187 239.468 186.32 239.004 185.456C238.54 184.576 238.308 183.584 238.308 182.48C238.308 182.272 238.316 182.072 238.332 181.88C238.348 181.688 238.372 181.496 238.404 181.304C238.564 180.392 238.884 179.592 239.364 178.904C239.86 178.216 240.508 177.68 241.308 177.296C242.108 176.912 243.028 176.72 244.068 176.72C245.204 176.72 246.18 176.952 246.996 177.416C247.828 177.864 248.468 178.512 248.916 179.36C249.364 180.192 249.588 181.192 249.588 182.36C249.588 182.456 249.588 182.568 249.588 182.696C249.588 182.808 249.572 182.936 249.54 183.08H239.844ZM253.214 183.248V181.112H261.662V183.248H253.214ZM260.27 176.96H262.814V188H260.27V176.96ZM252.086 176.96H254.63V188H252.086V176.96ZM266.821 183.08V181.304H273.757C273.693 180.776 273.549 180.32 273.325 179.936C273.117 179.536 272.821 179.232 272.437 179.024C272.053 178.8 271.581 178.688 271.021 178.688C270.445 178.688 269.925 178.816 269.461 179.072C268.997 179.312 268.629 179.672 268.357 180.152C268.085 180.616 267.949 181.168 267.949 181.808L267.901 182.48C267.901 183.296 268.029 183.976 268.285 184.52C268.557 185.048 268.925 185.448 269.389 185.72C269.869 185.976 270.421 186.104 271.045 186.104C271.557 186.104 272.005 186.032 272.389 185.888C272.789 185.744 273.141 185.544 273.445 185.288C273.749 185.016 274.005 184.704 274.213 184.352L276.445 185.264C276.077 185.856 275.653 186.376 275.173 186.824C274.709 187.272 274.133 187.624 273.445 187.88C272.773 188.12 271.933 188.24 270.925 188.24C269.789 188.24 268.797 187.992 267.949 187.496C267.101 187 266.445 186.32 265.981 185.456C265.517 184.576 265.285 183.584 265.285 182.48C265.285 182.272 265.293 182.072 265.309 181.88C265.325 181.688 265.349 181.496 265.381 181.304C265.541 180.392 265.861 179.592 266.341 178.904C266.837 178.216 267.485 177.68 268.285 177.296C269.085 176.912 270.005 176.72 271.045 176.72C272.181 176.72 273.157 176.952 273.973 177.416C274.805 177.864 275.445 178.512 275.893 179.36C276.341 180.192 276.565 181.192 276.565 182.36C276.565 182.456 276.565 182.568 276.565 182.696C276.565 182.808 276.549 182.936 276.517 183.08H266.821ZM280.19 183.248V181.112H288.638V183.248H280.19ZM287.246 176.96H289.79V188H287.246V176.96ZM279.062 176.96H281.606V188H279.062V176.96ZM303.109 179.36L293.197 188.84L293.317 185.6L303.229 176.12L303.109 179.36ZM295.741 176.96V185.912L293.197 188.84V176.96H295.741ZM303.229 176.12V188H300.685V179.048L303.229 176.12ZM308.904 188H306.144L309.936 182.528H312.576L308.904 188ZM316.08 188H313.464V176.96H316.08V188ZM314.424 181.784V183.752H310.992C310.24 183.752 309.544 183.64 308.904 183.416C308.264 183.176 307.752 182.808 307.368 182.312C306.984 181.8 306.792 181.136 306.792 180.32C306.792 179.504 306.984 178.856 307.368 178.376C307.752 177.88 308.264 177.52 308.904 177.296C309.544 177.072 310.24 176.96 310.992 176.96H314.424V179.12H311.208C310.808 179.12 310.472 179.168 310.2 179.264C309.928 179.36 309.72 179.504 309.576 179.696C309.432 179.888 309.36 180.136 309.36 180.44C309.36 180.76 309.432 181.016 309.576 181.208C309.72 181.4 309.928 181.544 310.2 181.64C310.472 181.736 310.808 181.784 311.208 181.784H314.424ZM55.4183 212.776C55.4183 212.312 55.5783 211.92 55.8983 211.6C56.2343 211.264 56.6343 211.096 57.0983 211.096C57.5943 211.096 58.0023 211.264 58.3223 211.6C58.6423 211.92 58.8023 212.312 58.8023 212.776C58.8023 213.224 58.6423 213.616 58.3223 213.952C58.0023 214.288 57.5943 214.456 57.0983 214.456C56.6343 214.456 56.2343 214.288 55.8983 213.952C55.5783 213.616 55.4183 213.224 55.4183 212.776ZM78.384 217.48C78.384 218.184 78.536 218.8 78.84 219.328C79.144 219.84 79.552 220.248 80.064 220.552C80.592 220.856 81.176 221.008 81.816 221.008C82.344 221.008 82.848 220.928 83.328 220.768C83.808 220.608 84.232 220.384 84.6 220.096C84.968 219.808 85.24 219.488 85.416 219.136V221.992C85.032 222.376 84.512 222.68 83.856 222.904C83.2 223.128 82.48 223.24 81.696 223.24C80.56 223.24 79.536 223 78.624 222.52C77.728 222.024 77.016 221.344 76.488 220.48C75.976 219.6 75.72 218.6 75.72 217.48C75.72 216.344 75.976 215.344 76.488 214.48C77.016 213.616 77.728 212.944 78.624 212.464C79.536 211.968 80.56 211.72 81.696 211.72C82.48 211.72 83.2 211.832 83.856 212.056C84.512 212.28 85.032 212.584 85.416 212.968V215.824C85.24 215.456 84.96 215.136 84.576 214.864C84.208 214.576 83.784 214.352 83.304 214.192C82.824 214.032 82.328 213.952 81.816 213.952C81.176 213.952 80.592 214.104 80.064 214.408C79.552 214.712 79.144 215.128 78.84 215.656C78.536 216.184 78.384 216.792 78.384 217.48ZM98.289 214.36L88.377 223.84L88.497 220.6L98.409 211.12L98.289 214.36ZM90.921 211.96V220.912L88.377 223.84V211.96H90.921ZM98.409 211.12V223H95.865V214.048L98.409 211.12ZM102.956 218.248V216.112H111.404V218.248H102.956ZM110.012 211.96H112.556V223H110.012V211.96ZM101.828 211.96H104.372V223H101.828V211.96ZM115.027 217.48C115.027 216.344 115.283 215.344 115.795 214.48C116.323 213.616 117.035 212.944 117.931 212.464C118.827 211.968 119.843 211.72 120.979 211.72C122.115 211.72 123.123 211.968 124.003 212.464C124.899 212.944 125.611 213.616 126.139 214.48C126.667 215.344 126.931 216.344 126.931 217.48C126.931 218.6 126.667 219.6 126.139 220.48C125.611 221.344 124.899 222.024 124.003 222.52C123.123 223 122.115 223.24 120.979 223.24C119.843 223.24 118.827 223 117.931 222.52C117.035 222.024 116.323 221.344 115.795 220.48C115.283 219.6 115.027 218.6 115.027 217.48ZM117.691 217.48C117.691 218.168 117.835 218.776 118.123 219.304C118.411 219.816 118.803 220.224 119.299 220.528C119.795 220.816 120.355 220.96 120.979 220.96C121.587 220.96 122.139 220.816 122.635 220.528C123.147 220.224 123.547 219.816 123.835 219.304C124.123 218.776 124.267 218.168 124.267 217.48C124.267 216.792 124.123 216.184 123.835 215.656C123.547 215.128 123.147 214.72 122.635 214.432C122.139 214.144 121.587 214 120.979 214C120.355 214 119.795 214.144 119.299 214.432C118.803 214.72 118.411 215.128 118.123 215.656C117.835 216.184 117.691 216.792 117.691 217.48ZM130.518 218.248V216.112H138.966V218.248H130.518ZM137.574 211.96H140.118V223H137.574V211.96ZM129.39 211.96H131.934V223H129.39V211.96ZM153.437 214.36L143.525 223.84L143.645 220.6L153.557 211.12L153.437 214.36ZM146.069 211.96V220.912L143.525 223.84V211.96H146.069ZM153.557 211.12V223H151.013V214.048L153.557 211.12ZM167.488 223L165.808 214.72L167.176 211.12L170.248 223H167.488ZM162.088 220.744L167.176 211.12L167.416 215.368L162.808 223.744L162.088 220.744ZM162.808 223.744L158.248 215.368L158.488 211.12L163.528 220.744L162.808 223.744ZM155.44 223L158.488 211.12L159.88 214.72L158.2 223H155.44ZM182.727 211.96H185.343V223H182.727V211.96ZM172.023 211.96H174.615V223H172.023V211.96ZM173.823 217.912V215.968H177.255C178.391 215.968 179.343 216.248 180.111 216.808C180.895 217.352 181.287 218.216 181.287 219.4C181.287 220.184 181.111 220.848 180.759 221.392C180.407 221.92 179.927 222.32 179.319 222.592C178.711 222.864 178.023 223 177.255 223H173.823V220.864H177.015C177.399 220.864 177.719 220.808 177.975 220.696C178.231 220.584 178.431 220.416 178.575 220.192C178.719 219.968 178.791 219.704 178.791 219.4C178.791 218.92 178.639 218.552 178.335 218.296C178.031 218.04 177.591 217.912 177.015 217.912H173.823ZM205.844 214.36L195.932 223.84L196.052 220.6L205.964 211.12L205.844 214.36ZM198.476 211.96V220.912L195.932 223.84V211.96H198.476ZM205.964 211.12V223H203.42V214.048L205.964 211.12ZM218.21 219.736C218.21 220.072 218.298 220.352 218.474 220.576C218.666 220.8 218.914 220.976 219.218 221.104C219.522 221.216 219.866 221.272 220.25 221.272C220.81 221.272 221.314 221.184 221.762 221.008C222.21 220.832 222.562 220.552 222.818 220.168C223.074 219.784 223.202 219.272 223.202 218.632L223.586 219.88C223.586 220.584 223.402 221.192 223.034 221.704C222.666 222.2 222.17 222.584 221.546 222.856C220.922 223.112 220.226 223.24 219.458 223.24C218.738 223.24 218.082 223.112 217.49 222.856C216.914 222.6 216.45 222.224 216.098 221.728C215.762 221.216 215.594 220.584 215.594 219.832C215.594 219.08 215.786 218.432 216.17 217.888C216.554 217.344 217.098 216.928 217.802 216.64C218.522 216.352 219.362 216.208 220.322 216.208C220.962 216.208 221.53 216.288 222.026 216.448C222.538 216.608 222.962 216.792 223.298 217C223.634 217.208 223.866 217.392 223.994 217.552V218.92C223.498 218.552 222.994 218.288 222.482 218.128C221.97 217.952 221.378 217.864 220.706 217.864C220.162 217.864 219.698 217.944 219.314 218.104C218.946 218.248 218.666 218.464 218.474 218.752C218.298 219.024 218.21 219.352 218.21 219.736ZM217.634 214.864L216.602 213.016C217.098 212.712 217.73 212.416 218.498 212.128C219.266 211.84 220.146 211.696 221.138 211.696C222.05 211.696 222.85 211.832 223.538 212.104C224.226 212.376 224.762 212.768 225.146 213.28C225.546 213.776 225.746 214.392 225.746 215.128V223H223.202V215.416C223.202 214.904 222.986 214.512 222.554 214.24C222.138 213.952 221.626 213.808 221.018 213.808C220.49 213.808 220.002 213.872 219.554 214C219.106 214.128 218.714 214.28 218.378 214.456C218.058 214.616 217.81 214.752 217.634 214.864ZM229.917 218.248V216.112H238.365V218.248H229.917ZM236.973 211.96H239.517V223H236.973V211.96ZM228.789 211.96H231.333V223H228.789V211.96ZM241.292 211.96H248.276V214.24H241.292V211.96ZM243.524 212.44H246.068V223H243.524V212.44ZM248.855 217.48C248.855 216.344 249.111 215.344 249.623 214.48C250.151 213.616 250.863 212.944 251.759 212.464C252.655 211.968 253.671 211.72 254.807 211.72C255.943 211.72 256.951 211.968 257.831 212.464C258.727 212.944 259.439 213.616 259.967 214.48C260.495 215.344 260.759 216.344 260.759 217.48C260.759 218.6 260.495 219.6 259.967 220.48C259.439 221.344 258.727 222.024 257.831 222.52C256.951 223 255.943 223.24 254.807 223.24C253.671 223.24 252.655 223 251.759 222.52C250.863 222.024 250.151 221.344 249.623 220.48C249.111 219.6 248.855 218.6 248.855 217.48ZM251.519 217.48C251.519 218.168 251.663 218.776 251.951 219.304C252.239 219.816 252.631 220.224 253.127 220.528C253.623 220.816 254.183 220.96 254.807 220.96C255.415 220.96 255.967 220.816 256.463 220.528C256.975 220.224 257.375 219.816 257.663 219.304C257.951 218.776 258.095 218.168 258.095 217.48C258.095 216.792 257.951 216.184 257.663 215.656C257.375 215.128 256.975 214.72 256.463 214.432C255.967 214.144 255.415 214 254.807 214C254.183 214 253.623 214.144 253.127 214.432C252.631 214.72 252.239 215.128 251.951 215.656C251.663 216.184 251.519 216.792 251.519 217.48ZM264.347 218.248V216.112H272.795V218.248H264.347ZM271.403 211.96H273.947V223H271.403V211.96ZM263.219 211.96H265.763V223H263.219V211.96ZM287.266 214.36L277.354 223.84L277.474 220.6L287.386 211.12L287.266 214.36ZM279.898 211.96V220.912L277.354 223.84V211.96H279.898ZM287.386 211.12V223H284.842V214.048L287.386 211.12ZM301.316 223L299.636 214.72L301.004 211.12L304.076 223H301.316ZM295.916 220.744L301.004 211.12L301.244 215.368L296.636 223.744L295.916 220.744ZM296.636 223.744L292.076 215.368L292.316 211.12L297.356 220.744L296.636 223.744ZM289.268 223L292.316 211.12L293.708 214.72L292.028 223H289.268ZM316.555 211.96H319.171V223H316.555V211.96ZM305.851 211.96H308.443V223H305.851V211.96ZM307.651 217.912V215.968H311.083C312.219 215.968 313.171 216.248 313.939 216.808C314.723 217.352 315.115 218.216 315.115 219.4C315.115 220.184 314.939 220.848 314.587 221.392C314.235 221.92 313.755 222.32 313.147 222.592C312.539 222.864 311.851 223 311.083 223H307.651V220.864H310.843C311.227 220.864 311.547 220.808 311.803 220.696C312.059 220.584 312.259 220.416 312.403 220.192C312.547 219.968 312.619 219.704 312.619 219.4C312.619 218.92 312.467 218.552 312.163 218.296C311.859 218.04 311.419 217.912 310.843 217.912H307.651ZM55.4183 247.776C55.4183 247.312 55.5783 246.92 55.8983 246.6C56.2343 246.264 56.6343 246.096 57.0983 246.096C57.5943 246.096 58.0023 246.264 58.3223 246.6C58.6423 246.92 58.8023 247.312 58.8023 247.776C58.8023 248.224 58.6423 248.616 58.3223 248.952C58.0023 249.288 57.5943 249.456 57.0983 249.456C56.6343 249.456 56.2343 249.288 55.8983 248.952C55.5783 248.616 55.4183 248.224 55.4183 247.776ZM86.424 246.96V258H83.88V249.288H79.2V258H76.656V246.96H86.424ZM92.2541 263.28H89.6381V246.96H92.2541V263.28ZM101.398 252.48C101.398 253.696 101.15 254.744 100.654 255.624C100.158 256.488 99.5021 257.152 98.6861 257.616C97.8701 258.064 96.9821 258.288 96.0221 258.288C95.0781 258.288 94.2541 258.056 93.5501 257.592C92.8621 257.112 92.3261 256.44 91.9421 255.576C91.5741 254.696 91.3901 253.664 91.3901 252.48C91.3901 251.28 91.5741 250.248 91.9421 249.384C92.3261 248.52 92.8621 247.856 93.5501 247.392C94.2541 246.912 95.0781 246.672 96.0221 246.672C96.9821 246.672 97.8701 246.904 98.6861 247.368C99.5021 247.816 100.158 248.472 100.654 249.336C101.15 250.2 101.398 251.248 101.398 252.48ZM98.7101 252.48C98.7101 251.744 98.5581 251.12 98.2541 250.608C97.9501 250.08 97.5421 249.688 97.0301 249.432C96.5341 249.16 95.9821 249.024 95.3741 249.024C94.8781 249.024 94.3901 249.16 93.9101 249.432C93.4301 249.688 93.0301 250.072 92.7101 250.584C92.4061 251.096 92.2541 251.728 92.2541 252.48C92.2541 253.232 92.4061 253.864 92.7101 254.376C93.0301 254.888 93.4301 255.28 93.9101 255.552C94.3901 255.808 94.8781 255.936 95.3741 255.936C95.9821 255.936 96.5341 255.808 97.0301 255.552C97.5421 255.28 97.9501 254.888 98.2541 254.376C98.5581 253.848 98.7101 253.216 98.7101 252.48ZM104.563 253.08V251.304H111.499C111.435 250.776 111.291 250.32 111.067 249.936C110.859 249.536 110.563 249.232 110.179 249.024C109.795 248.8 109.323 248.688 108.763 248.688C108.187 248.688 107.667 248.816 107.203 249.072C106.739 249.312 106.371 249.672 106.099 250.152C105.827 250.616 105.691 251.168 105.691 251.808L105.643 252.48C105.643 253.296 105.771 253.976 106.027 254.52C106.299 255.048 106.667 255.448 107.131 255.72C107.611 255.976 108.163 256.104 108.787 256.104C109.299 256.104 109.747 256.032 110.131 255.888C110.531 255.744 110.883 255.544 111.187 255.288C111.491 255.016 111.747 254.704 111.955 254.352L114.187 255.264C113.819 255.856 113.395 256.376 112.915 256.824C112.451 257.272 111.875 257.624 111.187 257.88C110.515 258.12 109.675 258.24 108.667 258.24C107.531 258.24 106.539 257.992 105.691 257.496C104.843 257 104.187 256.32 103.723 255.456C103.259 254.576 103.027 253.584 103.027 252.48C103.027 252.272 103.035 252.072 103.051 251.88C103.067 251.688 103.091 251.496 103.123 251.304C103.283 250.392 103.603 249.592 104.083 248.904C104.579 248.216 105.227 247.68 106.027 247.296C106.827 246.912 107.747 246.72 108.787 246.72C109.923 246.72 110.899 246.952 111.715 247.416C112.547 247.864 113.187 248.512 113.635 249.36C114.083 250.192 114.307 251.192 114.307 252.36C114.307 252.456 114.307 252.568 114.307 252.696C114.307 252.808 114.291 252.936 114.259 253.08H104.563ZM121.993 250.68L118.993 257.28L116.305 256.992L121.993 246.12L127.681 256.992L124.993 257.28L121.993 250.68ZM126.553 258H117.553V260.16H114.913V255.792H129.073V260.16H126.553V258ZM142.244 246.96V258H139.7V249.36H134.684V254.16C134.684 255.024 134.54 255.744 134.252 256.32C133.964 256.88 133.5 257.304 132.86 257.592C132.236 257.864 131.412 258 130.388 258V255.648C130.868 255.648 131.276 255.52 131.612 255.264C131.964 255.008 132.14 254.52 132.14 253.8V246.96H142.244ZM144.98 252.48C144.98 251.344 145.236 250.344 145.748 249.48C146.276 248.616 146.988 247.944 147.884 247.464C148.78 246.968 149.796 246.72 150.932 246.72C152.068 246.72 153.076 246.968 153.956 247.464C154.852 247.944 155.564 248.616 156.092 249.48C156.62 250.344 156.884 251.344 156.884 252.48C156.884 253.6 156.62 254.6 156.092 255.48C155.564 256.344 154.852 257.024 153.956 257.52C153.076 258 152.068 258.24 150.932 258.24C149.796 258.24 148.78 258 147.884 257.52C146.988 257.024 146.276 256.344 145.748 255.48C145.236 254.6 144.98 253.6 144.98 252.48ZM147.644 252.48C147.644 253.168 147.788 253.776 148.076 254.304C148.364 254.816 148.756 255.224 149.252 255.528C149.748 255.816 150.308 255.96 150.932 255.96C151.54 255.96 152.092 255.816 152.588 255.528C153.1 255.224 153.5 254.816 153.788 254.304C154.076 253.776 154.22 253.168 154.22 252.48C154.22 251.792 154.076 251.184 153.788 250.656C153.5 250.128 153.1 249.72 152.588 249.432C152.092 249.144 151.54 249 150.932 249C150.308 249 149.748 249.144 149.252 249.432C148.756 249.72 148.364 250.128 148.076 250.656C147.788 251.184 147.644 251.792 147.644 252.48ZM171.904 246.96H175.024L170.104 251.712L175.504 258H172.384L167.104 251.52L171.904 246.96ZM167.656 246.96V258H165.184V246.96H167.656ZM160.936 246.96L165.736 251.52L160.456 258H157.336L162.736 251.712L157.816 246.96H160.936ZM178.284 253.248V251.112H186.732V253.248H178.284ZM185.34 246.96H187.884V258H185.34V246.96ZM177.156 246.96H179.7V258H177.156V246.96ZM190.355 252.48C190.355 251.344 190.611 250.344 191.123 249.48C191.651 248.616 192.363 247.944 193.259 247.464C194.155 246.968 195.171 246.72 196.307 246.72C197.443 246.72 198.451 246.968 199.331 247.464C200.227 247.944 200.939 248.616 201.467 249.48C201.995 250.344 202.259 251.344 202.259 252.48C202.259 253.6 201.995 254.6 201.467 255.48C200.939 256.344 200.227 257.024 199.331 257.52C198.451 258 197.443 258.24 196.307 258.24C195.171 258.24 194.155 258 193.259 257.52C192.363 257.024 191.651 256.344 191.123 255.48C190.611 254.6 190.355 253.6 190.355 252.48ZM193.019 252.48C193.019 253.168 193.163 253.776 193.451 254.304C193.739 254.816 194.131 255.224 194.627 255.528C195.123 255.816 195.683 255.96 196.307 255.96C196.915 255.96 197.467 255.816 197.963 255.528C198.475 255.224 198.875 254.816 199.163 254.304C199.451 253.776 199.595 253.168 199.595 252.48C199.595 251.792 199.451 251.184 199.163 250.656C198.875 250.128 198.475 249.72 197.963 249.432C197.467 249.144 196.915 249 196.307 249C195.683 249 195.123 249.144 194.627 249.432C194.131 249.72 193.739 250.128 193.451 250.656C193.163 251.184 193.019 251.792 193.019 252.48ZM203.183 253.464V251.136H208.103V253.464H203.183ZM219.643 246.96V258H217.099V249.288H212.419V258H209.875V246.96H219.643ZM224.585 254.736C224.585 255.072 224.673 255.352 224.849 255.576C225.041 255.8 225.289 255.976 225.593 256.104C225.897 256.216 226.241 256.272 226.625 256.272C227.185 256.272 227.689 256.184 228.137 256.008C228.585 255.832 228.937 255.552 229.193 255.168C229.449 254.784 229.577 254.272 229.577 253.632L229.961 254.88C229.961 255.584 229.777 256.192 229.409 256.704C229.041 257.2 228.545 257.584 227.921 257.856C227.297 258.112 226.601 258.24 225.833 258.24C225.113 258.24 224.457 258.112 223.865 257.856C223.289 257.6 222.825 257.224 222.473 256.728C222.137 256.216 221.969 255.584 221.969 254.832C221.969 254.08 222.161 253.432 222.545 252.888C222.929 252.344 223.473 251.928 224.177 251.64C224.897 251.352 225.737 251.208 226.697 251.208C227.337 251.208 227.905 251.288 228.401 251.448C228.913 251.608 229.337 251.792 229.673 252C230.009 252.208 230.241 252.392 230.369 252.552V253.92C229.873 253.552 229.369 253.288 228.857 253.128C228.345 252.952 227.753 252.864 227.081 252.864C226.537 252.864 226.073 252.944 225.689 253.104C225.321 253.248 225.041 253.464 224.849 253.752C224.673 254.024 224.585 254.352 224.585 254.736ZM224.009 249.864L222.977 248.016C223.473 247.712 224.105 247.416 224.873 247.128C225.641 246.84 226.521 246.696 227.513 246.696C228.425 246.696 229.225 246.832 229.913 247.104C230.601 247.376 231.137 247.768 231.521 248.28C231.921 248.776 232.121 249.392 232.121 250.128V258H229.577V250.416C229.577 249.904 229.361 249.512 228.929 249.24C228.513 248.952 228.001 248.808 227.393 248.808C226.865 248.808 226.377 248.872 225.929 249C225.481 249.128 225.089 249.28 224.753 249.456C224.433 249.616 224.185 249.752 224.009 249.864ZM241.548 250.68L238.548 257.28L235.86 256.992L241.548 246.12L247.236 256.992L244.548 257.28L241.548 250.68ZM246.108 258H237.108V260.16H234.468V255.792H248.628V260.16H246.108V258ZM252.055 253.08V251.304H258.991C258.927 250.776 258.783 250.32 258.559 249.936C258.351 249.536 258.055 249.232 257.671 249.024C257.287 248.8 256.815 248.688 256.255 248.688C255.679 248.688 255.159 248.816 254.695 249.072C254.231 249.312 253.863 249.672 253.591 250.152C253.319 250.616 253.183 251.168 253.183 251.808L253.135 252.48C253.135 253.296 253.263 253.976 253.519 254.52C253.791 255.048 254.159 255.448 254.623 255.72C255.103 255.976 255.655 256.104 256.279 256.104C256.791 256.104 257.239 256.032 257.623 255.888C258.023 255.744 258.375 255.544 258.679 255.288C258.983 255.016 259.239 254.704 259.447 254.352L261.679 255.264C261.311 255.856 260.887 256.376 260.407 256.824C259.943 257.272 259.367 257.624 258.679 257.88C258.007 258.12 257.167 258.24 256.159 258.24C255.023 258.24 254.031 257.992 253.183 257.496C252.335 257 251.679 256.32 251.215 255.456C250.751 254.576 250.519 253.584 250.519 252.48C250.519 252.272 250.527 252.072 250.543 251.88C250.559 251.688 250.583 251.496 250.615 251.304C250.775 250.392 251.095 249.592 251.575 248.904C252.071 248.216 252.719 247.68 253.519 247.296C254.319 246.912 255.239 246.72 256.279 246.72C257.415 246.72 258.391 246.952 259.207 247.416C260.039 247.864 260.679 248.512 261.127 249.36C261.575 250.192 261.799 251.192 261.799 252.36C261.799 252.456 261.799 252.568 261.799 252.696C261.799 252.808 261.783 252.936 261.751 253.08H252.055ZM276.857 246.96H279.977L275.057 251.712L280.457 258H277.337L272.057 251.52L276.857 246.96ZM272.609 246.96V258H270.137V246.96H272.609ZM265.889 246.96L270.689 251.52L265.409 258H262.289L267.689 251.712L262.769 246.96H265.889ZM283.237 253.248V251.112H291.685V253.248H283.237ZM290.293 246.96H292.837V258H290.293V246.96ZM282.109 246.96H284.653V258H282.109V246.96ZM306.852 246.96H309.468V258H306.852V246.96ZM296.148 246.96H298.74V258H296.148V246.96ZM297.948 252.912V250.968H301.38C302.516 250.968 303.468 251.248 304.236 251.808C305.02 252.352 305.412 253.216 305.412 254.4C305.412 255.184 305.236 255.848 304.884 256.392C304.532 256.92 304.052 257.32 303.444 257.592C302.836 257.864 302.148 258 301.38 258H297.948V255.864H301.14C301.524 255.864 301.844 255.808 302.1 255.696C302.356 255.584 302.556 255.416 302.7 255.192C302.844 254.968 302.916 254.704 302.916 254.4C302.916 253.92 302.764 253.552 302.46 253.296C302.156 253.04 301.716 252.912 301.14 252.912H297.948ZM313.461 253.08V251.304H320.397C320.333 250.776 320.189 250.32 319.965 249.936C319.757 249.536 319.461 249.232 319.077 249.024C318.693 248.8 318.221 248.688 317.661 248.688C317.085 248.688 316.565 248.816 316.101 249.072C315.637 249.312 315.269 249.672 314.997 250.152C314.725 250.616 314.589 251.168 314.589 251.808L314.541 252.48C314.541 253.296 314.669 253.976 314.925 254.52C315.197 255.048 315.565 255.448 316.029 255.72C316.509 255.976 317.061 256.104 317.685 256.104C318.197 256.104 318.645 256.032 319.029 255.888C319.429 255.744 319.781 255.544 320.085 255.288C320.389 255.016 320.645 254.704 320.853 254.352L323.085 255.264C322.717 255.856 322.293 256.376 321.813 256.824C321.349 257.272 320.773 257.624 320.085 257.88C319.413 258.12 318.573 258.24 317.565 258.24C316.429 258.24 315.437 257.992 314.589 257.496C313.741 257 313.085 256.32 312.621 255.456C312.157 254.576 311.925 253.584 311.925 252.48C311.925 252.272 311.933 252.072 311.949 251.88C311.965 251.688 311.989 251.496 312.021 251.304C312.181 250.392 312.501 249.592 312.981 248.904C313.477 248.216 314.125 247.68 314.925 247.296C315.725 246.912 316.645 246.72 317.685 246.72C318.821 246.72 319.797 246.952 320.613 247.416C321.445 247.864 322.085 248.512 322.533 249.36C322.981 250.192 323.205 251.192 323.205 252.36C323.205 252.456 323.205 252.568 323.205 252.696C323.205 252.808 323.189 252.936 323.157 253.08H313.461ZM337.41 244.56H339.93V260.4H337.41V244.56ZM332.058 252.48C332.058 251.344 332.322 250.344 332.85 249.48C333.394 248.616 334.162 247.944 335.154 247.464C336.146 246.968 337.314 246.72 338.658 246.72C340.018 246.72 341.194 246.968 342.186 247.464C343.178 247.944 343.938 248.616 344.466 249.48C345.01 250.344 345.282 251.344 345.282 252.48C345.282 253.6 345.01 254.6 344.466 255.48C343.938 256.344 343.178 257.024 342.186 257.52C341.194 258 340.018 258.24 338.658 258.24C337.314 258.24 336.146 258 335.154 257.52C334.162 257.024 333.394 256.344 332.85 255.48C332.322 254.6 332.058 253.6 332.058 252.48ZM334.53 252.48C334.53 253.168 334.682 253.776 334.986 254.304C335.306 254.816 335.77 255.224 336.378 255.528C337.002 255.816 337.762 255.96 338.658 255.96C339.554 255.96 340.306 255.816 340.914 255.528C341.538 255.224 342.002 254.816 342.306 254.304C342.626 253.776 342.786 253.168 342.786 252.48C342.786 251.792 342.626 251.184 342.306 250.656C342.002 250.128 341.538 249.72 340.914 249.432C340.306 249.144 339.554 249 338.658 249C337.762 249 337.002 249.144 336.378 249.432C335.77 249.72 335.306 250.128 334.986 250.656C334.682 251.184 334.53 251.792 334.53 252.48ZM346.894 252.48C346.894 251.344 347.15 250.344 347.662 249.48C348.19 248.616 348.902 247.944 349.798 247.464C350.694 246.968 351.71 246.72 352.846 246.72C353.982 246.72 354.99 246.968 355.87 247.464C356.766 247.944 357.478 248.616 358.006 249.48C358.534 250.344 358.798 251.344 358.798 252.48C358.798 253.6 358.534 254.6 358.006 255.48C357.478 256.344 356.766 257.024 355.87 257.52C354.99 258 353.982 258.24 352.846 258.24C351.71 258.24 350.694 258 349.798 257.52C348.902 257.024 348.19 256.344 347.662 255.48C347.15 254.6 346.894 253.6 346.894 252.48ZM349.558 252.48C349.558 253.168 349.702 253.776 349.99 254.304C350.278 254.816 350.67 255.224 351.166 255.528C351.662 255.816 352.222 255.96 352.846 255.96C353.454 255.96 354.006 255.816 354.502 255.528C355.014 255.224 355.414 254.816 355.702 254.304C355.99 253.776 356.134 253.168 356.134 252.48C356.134 251.792 355.99 251.184 355.702 250.656C355.414 250.128 355.014 249.72 354.502 249.432C354.006 249.144 353.454 249 352.846 249C352.222 249 351.662 249.144 351.166 249.432C350.67 249.72 350.278 250.128 349.99 250.656C349.702 251.184 349.558 251.792 349.558 252.48ZM363.778 263.28H361.162V246.96H363.778V263.28ZM372.922 252.48C372.922 253.696 372.674 254.744 372.178 255.624C371.682 256.488 371.026 257.152 370.21 257.616C369.394 258.064 368.506 258.288 367.546 258.288C366.602 258.288 365.778 258.056 365.074 257.592C364.386 257.112 363.85 256.44 363.466 255.576C363.098 254.696 362.914 253.664 362.914 252.48C362.914 251.28 363.098 250.248 363.466 249.384C363.85 248.52 364.386 247.856 365.074 247.392C365.778 246.912 366.602 246.672 367.546 246.672C368.506 246.672 369.394 246.904 370.21 247.368C371.026 247.816 371.682 248.472 372.178 249.336C372.674 250.2 372.922 251.248 372.922 252.48ZM370.234 252.48C370.234 251.744 370.082 251.12 369.778 250.608C369.474 250.08 369.066 249.688 368.554 249.432C368.058 249.16 367.506 249.024 366.898 249.024C366.402 249.024 365.914 249.16 365.434 249.432C364.954 249.688 364.554 250.072 364.234 250.584C363.93 251.096 363.778 251.728 363.778 252.48C363.778 253.232 363.93 253.864 364.234 254.376C364.554 254.888 364.954 255.28 365.434 255.552C365.914 255.808 366.402 255.936 366.898 255.936C367.506 255.936 368.058 255.808 368.554 255.552C369.066 255.28 369.474 254.888 369.778 254.376C370.082 253.848 370.234 253.216 370.234 252.48ZM385.902 258L384.222 249.72L385.59 246.12L388.662 258H385.902ZM380.502 255.744L385.59 246.12L385.83 250.368L381.222 258.744L380.502 255.744ZM381.222 258.744L376.662 250.368L376.902 246.12L381.942 255.744L381.222 258.744ZM373.854 258L376.902 246.12L378.294 249.72L376.614 258H373.854ZM401.141 246.96H403.757V258H401.141V246.96ZM390.437 246.96H393.029V258H390.437V246.96ZM392.237 252.912V250.968H395.669C396.805 250.968 397.757 251.248 398.525 251.808C399.309 252.352 399.701 253.216 399.701 254.4C399.701 255.184 399.525 255.848 399.173 256.392C398.821 256.92 398.341 257.32 397.733 257.592C397.125 257.864 396.437 258 395.669 258H392.237V255.864H395.429C395.813 255.864 396.133 255.808 396.389 255.696C396.645 255.584 396.845 255.416 396.989 255.192C397.133 254.968 397.205 254.704 397.205 254.4C397.205 253.92 397.053 253.552 396.749 253.296C396.445 253.04 396.005 252.912 395.429 252.912H392.237Z" fill="#161312"/>
<path d="M265.477 106.92L265.749 105.4H267.989V106.92H265.477ZM267.077 101.64H268.821V109H267.077V101.64ZM264.341 101.64V103.832C264.341 104.205 264.384 104.509 264.469 104.744C264.554 104.968 264.698 105.133 264.901 105.24C265.114 105.347 265.397 105.4 265.749 105.4L265.477 106.92C264.741 106.92 264.16 106.808 263.733 106.584C263.317 106.349 263.024 105.997 262.853 105.528C262.682 105.059 262.597 104.467 262.597 103.752V101.64H264.341ZM272.145 106.824C272.145 107.048 272.204 107.235 272.321 107.384C272.449 107.533 272.614 107.651 272.817 107.736C273.02 107.811 273.249 107.848 273.505 107.848C273.878 107.848 274.214 107.789 274.513 107.672C274.812 107.555 275.046 107.368 275.217 107.112C275.388 106.856 275.473 106.515 275.473 106.088L275.729 106.92C275.729 107.389 275.606 107.795 275.361 108.136C275.116 108.467 274.785 108.723 274.369 108.904C273.953 109.075 273.489 109.16 272.977 109.16C272.497 109.16 272.06 109.075 271.665 108.904C271.281 108.733 270.972 108.483 270.737 108.152C270.513 107.811 270.401 107.389 270.401 106.888C270.401 106.387 270.529 105.955 270.785 105.592C271.041 105.229 271.404 104.952 271.873 104.76C272.353 104.568 272.913 104.472 273.553 104.472C273.98 104.472 274.358 104.525 274.689 104.632C275.03 104.739 275.313 104.861 275.537 105C275.761 105.139 275.916 105.261 276.001 105.368V106.28C275.67 106.035 275.334 105.859 274.993 105.752C274.652 105.635 274.257 105.576 273.809 105.576C273.446 105.576 273.137 105.629 272.881 105.736C272.636 105.832 272.449 105.976 272.321 106.168C272.204 106.349 272.145 106.568 272.145 106.824ZM271.761 103.576L271.073 102.344C271.404 102.141 271.825 101.944 272.337 101.752C272.849 101.56 273.436 101.464 274.097 101.464C274.705 101.464 275.238 101.555 275.697 101.736C276.156 101.917 276.513 102.179 276.769 102.52C277.036 102.851 277.169 103.261 277.169 103.752V109H275.473V103.944C275.473 103.603 275.329 103.341 275.041 103.16C274.764 102.968 274.422 102.872 274.017 102.872C273.665 102.872 273.34 102.915 273.041 103C272.742 103.085 272.481 103.187 272.257 103.304C272.044 103.411 271.878 103.501 271.761 103.576ZM280.35 105.32C280.35 105.789 280.451 106.2 280.654 106.552C280.856 106.893 281.128 107.165 281.47 107.368C281.822 107.571 282.211 107.672 282.638 107.672C282.99 107.672 283.326 107.619 283.646 107.512C283.966 107.405 284.248 107.256 284.494 107.064C284.739 106.872 284.92 106.659 285.038 106.424V108.328C284.782 108.584 284.435 108.787 283.998 108.936C283.56 109.085 283.08 109.16 282.558 109.16C281.8 109.16 281.118 109 280.51 108.68C279.912 108.349 279.438 107.896 279.086 107.32C278.744 106.733 278.574 106.067 278.574 105.32C278.574 104.563 278.744 103.896 279.086 103.32C279.438 102.744 279.912 102.296 280.51 101.976C281.118 101.645 281.8 101.48 282.558 101.48C283.08 101.48 283.56 101.555 283.998 101.704C284.435 101.853 284.782 102.056 285.038 102.312V104.216C284.92 103.971 284.734 103.757 284.478 103.576C284.232 103.384 283.95 103.235 283.63 103.128C283.31 103.021 282.979 102.968 282.638 102.968C282.211 102.968 281.822 103.069 281.47 103.272C281.128 103.475 280.856 103.752 280.654 104.104C280.451 104.456 280.35 104.861 280.35 105.32ZM285.924 101.64H290.58V103.16H285.924V101.64ZM287.412 101.96H289.108V109H287.412V101.96ZM291.792 101.64H293.536V109H291.792V101.64ZM293.008 105.608V104.312H295.296C296.054 104.312 296.688 104.499 297.2 104.872C297.723 105.235 297.984 105.811 297.984 106.6C297.984 107.123 297.867 107.565 297.632 107.928C297.398 108.28 297.078 108.547 296.672 108.728C296.267 108.909 295.808 109 295.296 109H293.008V107.576H295.12C295.376 107.576 295.59 107.539 295.76 107.464C295.942 107.389 296.075 107.277 296.16 107.128C296.256 106.979 296.304 106.803 296.304 106.6C296.304 106.28 296.203 106.035 296 105.864C295.808 105.693 295.515 105.608 295.12 105.608H293.008ZM306.362 112.52H304.618V101.64H306.362V112.52ZM312.458 105.32C312.458 106.131 312.293 106.829 311.962 107.416C311.631 107.992 311.194 108.435 310.65 108.744C310.106 109.043 309.514 109.192 308.874 109.192C308.245 109.192 307.695 109.037 307.226 108.728C306.767 108.408 306.41 107.96 306.154 107.384C305.909 106.797 305.786 106.109 305.786 105.32C305.786 104.52 305.909 103.832 306.154 103.256C306.41 102.68 306.767 102.237 307.226 101.928C307.695 101.608 308.245 101.448 308.874 101.448C309.514 101.448 310.106 101.603 310.65 101.912C311.194 102.211 311.631 102.648 311.962 103.224C312.293 103.8 312.458 104.499 312.458 105.32ZM310.666 105.32C310.666 104.829 310.565 104.413 310.362 104.072C310.159 103.72 309.887 103.459 309.546 103.288C309.215 103.107 308.847 103.016 308.442 103.016C308.111 103.016 307.786 103.107 307.466 103.288C307.146 103.459 306.879 103.715 306.666 104.056C306.463 104.397 306.362 104.819 306.362 105.32C306.362 105.821 306.463 106.243 306.666 106.584C306.879 106.925 307.146 107.187 307.466 107.368C307.786 107.539 308.111 107.624 308.442 107.624C308.847 107.624 309.215 107.539 309.546 107.368C309.887 107.187 310.159 106.925 310.362 106.584C310.565 106.232 310.666 105.811 310.666 105.32ZM314.568 105.72V104.536H319.192C319.149 104.184 319.053 103.88 318.904 103.624C318.765 103.357 318.568 103.155 318.312 103.016C318.056 102.867 317.741 102.792 317.368 102.792C316.984 102.792 316.637 102.877 316.328 103.048C316.019 103.208 315.773 103.448 315.592 103.768C315.411 104.077 315.32 104.445 315.32 104.872L315.288 105.32C315.288 105.864 315.373 106.317 315.544 106.68C315.725 107.032 315.971 107.299 316.28 107.48C316.6 107.651 316.968 107.736 317.384 107.736C317.725 107.736 318.024 107.688 318.28 107.592C318.547 107.496 318.781 107.363 318.984 107.192C319.187 107.011 319.357 106.803 319.496 106.568L320.984 107.176C320.739 107.571 320.456 107.917 320.136 108.216C319.827 108.515 319.443 108.749 318.984 108.92C318.536 109.08 317.976 109.16 317.304 109.16C316.547 109.16 315.885 108.995 315.32 108.664C314.755 108.333 314.317 107.88 314.008 107.304C313.699 106.717 313.544 106.056 313.544 105.32C313.544 105.181 313.549 105.048 313.56 104.92C313.571 104.792 313.587 104.664 313.608 104.536C313.715 103.928 313.928 103.395 314.248 102.936C314.579 102.477 315.011 102.12 315.544 101.864C316.077 101.608 316.691 101.48 317.384 101.48C318.141 101.48 318.792 101.635 319.336 101.944C319.891 102.243 320.317 102.675 320.616 103.24C320.915 103.795 321.064 104.461 321.064 105.24C321.064 105.304 321.064 105.379 321.064 105.464C321.064 105.539 321.053 105.624 321.032 105.72H314.568ZM325.305 106.92L325.577 105.4H327.817V106.92H325.305ZM326.905 101.64H328.649V109H326.905V101.64ZM324.169 101.64V103.832C324.169 104.205 324.212 104.509 324.297 104.744C324.382 104.968 324.526 105.133 324.729 105.24C324.942 105.347 325.225 105.4 325.577 105.4L325.305 106.92C324.569 106.92 323.988 106.808 323.561 106.584C323.145 106.349 322.852 105.997 322.681 105.528C322.51 105.059 322.425 104.467 322.425 103.752V101.64H324.169ZM337.557 103.24L330.949 109.56L331.029 107.4L337.637 101.08L337.557 103.24ZM332.645 101.64V107.608L330.949 109.56V101.64H332.645ZM337.637 101.08V109H335.941V103.032L337.637 101.08ZM341.005 107.24L342.733 107.736L340.877 111.736L339.597 111.384L341.005 107.24ZM351.425 112.52H349.681V101.64H351.425V112.52ZM357.521 105.32C357.521 106.131 357.355 106.829 357.025 107.416C356.694 107.992 356.257 108.435 355.713 108.744C355.169 109.043 354.577 109.192 353.937 109.192C353.307 109.192 352.758 109.037 352.289 108.728C351.83 108.408 351.473 107.96 351.217 107.384C350.971 106.797 350.849 106.109 350.849 105.32C350.849 104.52 350.971 103.832 351.217 103.256C351.473 102.68 351.83 102.237 352.289 101.928C352.758 101.608 353.307 101.448 353.937 101.448C354.577 101.448 355.169 101.603 355.713 101.912C356.257 102.211 356.694 102.648 357.025 103.224C357.355 103.8 357.521 104.499 357.521 105.32ZM355.729 105.32C355.729 104.829 355.627 104.413 355.425 104.072C355.222 103.72 354.95 103.459 354.609 103.288C354.278 103.107 353.91 103.016 353.505 103.016C353.174 103.016 352.849 103.107 352.529 103.288C352.209 103.459 351.942 103.715 351.729 104.056C351.526 104.397 351.425 104.819 351.425 105.32C351.425 105.821 351.526 106.243 351.729 106.584C351.942 106.925 352.209 107.187 352.529 107.368C352.849 107.539 353.174 107.624 353.505 107.624C353.91 107.624 354.278 107.539 354.609 107.368C354.95 107.187 355.222 106.925 355.425 106.584C355.627 106.232 355.729 105.811 355.729 105.32ZM358.607 105.32C358.607 104.563 358.777 103.896 359.118 103.32C359.471 102.744 359.945 102.296 360.543 101.976C361.14 101.645 361.817 101.48 362.575 101.48C363.332 101.48 364.004 101.645 364.591 101.976C365.188 102.296 365.663 102.744 366.015 103.32C366.367 103.896 366.543 104.563 366.543 105.32C366.543 106.067 366.367 106.733 366.015 107.32C365.663 107.896 365.188 108.349 364.591 108.68C364.004 109 363.332 109.16 362.575 109.16C361.817 109.16 361.14 109 360.543 108.68C359.945 108.349 359.471 107.896 359.118 107.32C358.777 106.733 358.607 106.067 358.607 105.32ZM360.383 105.32C360.383 105.779 360.479 106.184 360.671 106.536C360.863 106.877 361.124 107.149 361.455 107.352C361.785 107.544 362.159 107.64 362.575 107.64C362.98 107.64 363.348 107.544 363.679 107.352C364.02 107.149 364.287 106.877 364.479 106.536C364.671 106.184 364.767 105.779 364.767 105.32C364.767 104.861 364.671 104.456 364.479 104.104C364.287 103.752 364.02 103.48 363.679 103.288C363.348 103.096 362.98 103 362.575 103C362.159 103 361.785 103.096 361.455 103.288C361.124 103.48 360.863 103.752 360.671 104.104C360.479 104.456 360.383 104.861 360.383 105.32ZM371.641 104.12L369.641 108.52L367.849 108.328L371.641 101.08L375.433 108.328L373.641 108.52L371.641 104.12ZM374.681 109H368.681V110.44H366.921V107.528H376.361V110.44H374.681V109ZM379.27 107.24L380.998 107.736L379.142 111.736L377.862 111.384L379.27 107.24ZM390.586 106.92L390.858 105.4H393.098V106.92H390.586ZM392.186 101.64H393.93V109H392.186V101.64ZM389.45 101.64V103.832C389.45 104.205 389.493 104.509 389.578 104.744C389.664 104.968 389.808 105.133 390.01 105.24C390.224 105.347 390.506 105.4 390.858 105.4L390.586 106.92C389.85 106.92 389.269 106.808 388.842 106.584C388.426 106.349 388.133 105.997 387.962 105.528C387.792 105.059 387.706 104.467 387.706 103.752V101.64H389.45ZM402.839 103.24L396.231 109.56L396.311 107.4L402.919 101.08L402.839 103.24ZM397.927 101.64V107.608L396.231 109.56V101.64H397.927ZM402.919 101.08V109H401.223V103.032L402.919 101.08ZM406.35 105.32C406.35 105.789 406.451 106.2 406.654 106.552C406.856 106.893 407.128 107.165 407.47 107.368C407.822 107.571 408.211 107.672 408.638 107.672C408.99 107.672 409.326 107.619 409.646 107.512C409.966 107.405 410.248 107.256 410.494 107.064C410.739 106.872 410.92 106.659 411.038 106.424V108.328C410.782 108.584 410.435 108.787 409.998 108.936C409.56 109.085 409.08 109.16 408.558 109.16C407.8 109.16 407.118 109 406.51 108.68C405.912 108.349 405.438 107.896 405.086 107.32C404.744 106.733 404.574 106.067 404.574 105.32C404.574 104.563 404.744 103.896 405.086 103.32C405.438 102.744 405.912 102.296 406.51 101.976C407.118 101.645 407.8 101.48 408.558 101.48C409.08 101.48 409.56 101.555 409.998 101.704C410.435 101.853 410.782 102.056 411.038 102.312V104.216C410.92 103.971 410.734 103.757 410.478 103.576C410.232 103.384 409.95 103.235 409.63 103.128C409.31 103.021 408.979 102.968 408.638 102.968C408.211 102.968 407.822 103.069 407.47 103.272C407.128 103.475 406.856 103.752 406.654 104.104C406.451 104.456 406.35 104.861 406.35 105.32ZM419.908 101.64V109H418.212V103.24H414.868V106.44C414.868 107.016 414.772 107.496 414.58 107.88C414.388 108.253 414.078 108.536 413.652 108.728C413.236 108.909 412.686 109 412.004 109V107.432C412.324 107.432 412.596 107.347 412.82 107.176C413.054 107.005 413.172 106.68 413.172 106.2V101.64H419.908ZM421.732 105.32C421.732 104.563 421.902 103.896 422.243 103.32C422.596 102.744 423.07 102.296 423.668 101.976C424.265 101.645 424.942 101.48 425.7 101.48C426.457 101.48 427.129 101.645 427.716 101.976C428.313 102.296 428.788 102.744 429.14 103.32C429.492 103.896 429.668 104.563 429.668 105.32C429.668 106.067 429.492 106.733 429.14 107.32C428.788 107.896 428.313 108.349 427.716 108.68C427.129 109 426.457 109.16 425.7 109.16C424.942 109.16 424.265 109 423.668 108.68C423.07 108.349 422.596 107.896 422.243 107.32C421.902 106.733 421.732 106.067 421.732 105.32ZM423.508 105.32C423.508 105.779 423.604 106.184 423.796 106.536C423.988 106.877 424.249 107.149 424.58 107.352C424.91 107.544 425.284 107.64 425.7 107.64C426.105 107.64 426.473 107.544 426.804 107.352C427.145 107.149 427.412 106.877 427.604 106.536C427.796 106.184 427.892 105.779 427.892 105.32C427.892 104.861 427.796 104.456 427.604 104.104C427.412 103.752 427.145 103.48 426.804 103.288C426.473 103.096 426.105 103 425.7 103C425.284 103 424.91 103.096 424.58 103.288C424.249 103.48 423.988 103.752 423.796 104.104C423.604 104.456 423.508 104.861 423.508 105.32Z" fill="#161312"/>
</svg>