<svg width="480" height="340" viewBox="0 0 480 340" fill="none" xmlns="http://www.w3.org/2000/svg">
<rect width="480" height="340" rx="14" fill="#D9DFEE"/>
<rect x="27" y="242" width="435" height="48" rx="12" fill="#F6F8FA" stroke="#8ACE78" stroke-width="4"/>
<circle cx="56" cy="266" r="18" fill="#8ACE78"/>
<path d="M51.54 267V264.28H56.88C57.7867 264.28 58.5933 264.467 59.3 264.84C60.02 265.2 60.5867 265.707 61 266.36C61.4267 267 61.64 267.753 61.64 268.62C61.64 269.473 61.4267 270.233 61 270.9C60.5867 271.553 60.02 272.067 59.3 272.44C58.5933 272.813 57.7867 273 56.88 273H51.54V270.22H56.14C56.58 270.22 56.9533 270.167 57.26 270.06C57.5667 269.94 57.8 269.76 57.96 269.52C58.12 269.28 58.2 268.98 58.2 268.62C58.2 268.247 58.12 267.947 57.96 267.72C57.8 267.48 57.5667 267.3 57.26 267.18C56.9533 267.06 56.58 267 56.14 267H51.54ZM50.6 259H60.58V261.78H54.04V273H50.6V259Z" fill="white"/>
<path d="M84.7026 267.24H88.2066C88.9746 267.24 89.6626 267.32 90.2706 267.48C90.8786 267.64 91.3586 267.92 91.7106 268.32C92.0626 268.72 92.2386 269.28 92.2386 270C92.2386 270.832 91.9586 271.544 91.3986 272.136C90.8546 272.712 89.9506 273 88.6866 273H84.7026V271.08H87.8946C88.5346 271.08 88.9986 270.944 89.2866 270.672C89.5746 270.4 89.7186 270.08 89.7186 269.712C89.7186 269.52 89.6786 269.344 89.5986 269.184C89.5186 269.024 89.4066 268.88 89.2626 268.752C89.1346 268.624 88.9506 268.528 88.7106 268.464C88.4866 268.4 88.2146 268.368 87.8946 268.368H84.7026V267.24ZM84.7026 267.72V266.472H87.6546C87.8946 266.472 88.1106 266.44 88.3026 266.376C88.5106 266.312 88.6786 266.216 88.8066 266.088C88.9346 265.96 89.0386 265.816 89.1186 265.656C89.1986 265.496 89.2386 265.328 89.2386 265.152C89.2386 264.784 89.0946 264.48 88.8066 264.24C88.5346 264 88.1506 263.88 87.6546 263.88H84.7026V261.96H87.9666C88.6546 261.96 89.2786 262.064 89.8386 262.272C90.4146 262.464 90.8786 262.784 91.2306 263.232C91.5826 263.664 91.7586 264.24 91.7586 264.96C91.7586 265.584 91.5826 266.104 91.2306 266.52C90.8786 266.92 90.4146 267.224 89.8386 267.432C89.2786 267.624 88.6546 267.72 87.9666 267.72H84.7026ZM83.1906 261.96H85.7346V273H83.1906V261.96ZM95.3208 268.08V266.304H102.257C102.193 265.776 102.049 265.32 101.825 264.936C101.617 264.536 101.321 264.232 100.937 264.024C100.553 263.8 100.081 263.688 99.5208 263.688C98.9448 263.688 98.4248 263.816 97.9608 264.072C97.4968 264.312 97.1288 264.672 96.8568 265.152C96.5848 265.616 96.4488 266.168 96.4488 266.808L96.4008 267.48C96.4008 268.296 96.5288 268.976 96.7848 269.52C97.0568 270.048 97.4248 270.448 97.8888 270.72C98.3688 270.976 98.9208 271.104 99.5448 271.104C100.057 271.104 100.505 271.032 100.889 270.888C101.289 270.744 101.641 270.544 101.945 270.288C102.249 270.016 102.505 269.704 102.713 269.352L104.945 270.264C104.577 270.856 104.153 271.376 103.673 271.824C103.209 272.272 102.633 272.624 101.945 272.88C101.273 273.12 100.433 273.24 99.4248 273.24C98.2888 273.24 97.2968 272.992 96.4488 272.496C95.6008 272 94.9448 271.32 94.4808 270.456C94.0168 269.576 93.7848 268.584 93.7848 267.48C93.7848 267.272 93.7928 267.072 93.8088 266.88C93.8248 266.688 93.8488 266.496 93.8808 266.304C94.0408 265.392 94.3608 264.592 94.8408 263.904C95.3368 263.216 95.9848 262.68 96.7848 262.296C97.5848 261.912 98.5048 261.72 99.5448 261.72C100.681 261.72 101.657 261.952 102.473 262.416C103.305 262.864 103.945 263.512 104.393 264.36C104.841 265.192 105.065 266.192 105.065 267.36C105.065 267.456 105.065 267.568 105.065 267.696C105.065 267.808 105.049 267.936 105.017 268.08H95.3208ZM110.082 278.28H107.466V261.96H110.082V278.28ZM119.226 267.48C119.226 268.696 118.978 269.744 118.482 270.624C117.986 271.488 117.33 272.152 116.514 272.616C115.698 273.064 114.81 273.288 113.85 273.288C112.906 273.288 112.082 273.056 111.378 272.592C110.69 272.112 110.154 271.44 109.77 270.576C109.402 269.696 109.218 268.664 109.218 267.48C109.218 266.28 109.402 265.248 109.77 264.384C110.154 263.52 110.69 262.856 111.378 262.392C112.082 261.912 112.906 261.672 113.85 261.672C114.81 261.672 115.698 261.904 116.514 262.368C117.33 262.816 117.986 263.472 118.482 264.336C118.978 265.2 119.226 266.248 119.226 267.48ZM116.538 267.48C116.538 266.744 116.386 266.12 116.082 265.608C115.778 265.08 115.37 264.688 114.858 264.432C114.362 264.16 113.81 264.024 113.202 264.024C112.706 264.024 112.218 264.16 111.738 264.432C111.258 264.688 110.858 265.072 110.538 265.584C110.234 266.096 110.082 266.728 110.082 267.48C110.082 268.232 110.234 268.864 110.538 269.376C110.858 269.888 111.258 270.28 111.738 270.552C112.218 270.808 112.706 270.936 113.202 270.936C113.81 270.936 114.362 270.808 114.858 270.552C115.37 270.28 115.778 269.888 116.082 269.376C116.386 268.848 116.538 268.216 116.538 267.48ZM122.823 268.248V266.112H131.271V268.248H122.823ZM129.879 261.96H132.423V273H129.879V261.96ZM121.695 261.96H124.239V273H121.695V261.96ZM134.894 267.48C134.894 266.344 135.15 265.344 135.662 264.48C136.19 263.616 136.902 262.944 137.798 262.464C138.694 261.968 139.71 261.72 140.846 261.72C141.982 261.72 142.99 261.968 143.87 262.464C144.766 262.944 145.478 263.616 146.006 264.48C146.534 265.344 146.798 266.344 146.798 267.48C146.798 268.6 146.534 269.6 146.006 270.48C145.478 271.344 144.766 272.024 143.87 272.52C142.99 273 141.982 273.24 140.846 273.24C139.71 273.24 138.694 273 137.798 272.52C136.902 272.024 136.19 271.344 135.662 270.48C135.15 269.6 134.894 268.6 134.894 267.48ZM137.558 267.48C137.558 268.168 137.702 268.776 137.99 269.304C138.278 269.816 138.67 270.224 139.166 270.528C139.662 270.816 140.222 270.96 140.846 270.96C141.454 270.96 142.006 270.816 142.502 270.528C143.014 270.224 143.414 269.816 143.702 269.304C143.99 268.776 144.134 268.168 144.134 267.48C144.134 266.792 143.99 266.184 143.702 265.656C143.414 265.128 143.014 264.72 142.502 264.432C142.006 264.144 141.454 264 140.846 264C140.222 264 139.662 264.144 139.166 264.432C138.67 264.72 138.278 265.128 137.99 265.656C137.702 266.184 137.558 266.792 137.558 267.48ZM149.954 268.08V266.304H156.89C156.826 265.776 156.682 265.32 156.458 264.936C156.25 264.536 155.954 264.232 155.57 264.024C155.186 263.8 154.714 263.688 154.154 263.688C153.578 263.688 153.058 263.816 152.594 264.072C152.13 264.312 151.762 264.672 151.49 265.152C151.218 265.616 151.082 266.168 151.082 266.808L151.034 267.48C151.034 268.296 151.162 268.976 151.418 269.52C151.69 270.048 152.058 270.448 152.522 270.72C153.002 270.976 153.554 271.104 154.178 271.104C154.69 271.104 155.138 271.032 155.522 270.888C155.922 270.744 156.274 270.544 156.578 270.288C156.882 270.016 157.138 269.704 157.346 269.352L159.578 270.264C159.21 270.856 158.786 271.376 158.306 271.824C157.842 272.272 157.266 272.624 156.578 272.88C155.906 273.12 155.066 273.24 154.058 273.24C152.922 273.24 151.93 272.992 151.082 272.496C150.234 272 149.578 271.32 149.114 270.456C148.65 269.576 148.418 268.584 148.418 267.48C148.418 267.272 148.426 267.072 148.442 266.88C148.458 266.688 148.482 266.496 148.514 266.304C148.674 265.392 148.994 264.592 149.474 263.904C149.97 263.216 150.618 262.68 151.418 262.296C152.218 261.912 153.138 261.72 154.178 261.72C155.314 261.72 156.29 261.952 157.106 262.416C157.938 262.864 158.578 263.512 159.026 264.36C159.474 265.192 159.698 266.192 159.698 267.36C159.698 267.456 159.698 267.568 159.698 267.696C159.698 267.808 159.682 267.936 159.65 268.08H149.954ZM173.782 267.48V266.328C174.422 266.328 174.878 266.208 175.15 265.968C175.438 265.712 175.582 265.4 175.582 265.032C175.582 264.664 175.438 264.368 175.15 264.144C174.878 263.92 174.502 263.808 174.022 263.808C173.622 263.808 173.286 263.888 173.014 264.048C172.742 264.192 172.534 264.384 172.39 264.624C172.262 264.848 172.198 265.088 172.198 265.344H169.702C169.702 264.656 169.886 264.04 170.254 263.496C170.622 262.952 171.126 262.52 171.766 262.2C172.422 261.88 173.166 261.72 173.998 261.72C174.782 261.72 175.486 261.856 176.11 262.128C176.734 262.4 177.222 262.768 177.574 263.232C177.926 263.696 178.102 264.208 178.102 264.768C178.102 265.568 177.734 266.232 176.998 266.76C176.262 267.272 175.19 267.512 173.782 267.48ZM173.95 273.24C172.542 273.24 171.422 272.888 170.59 272.184C169.774 271.464 169.302 270.536 169.174 269.4H171.718C171.83 269.912 172.054 270.344 172.39 270.696C172.742 271.032 173.262 271.2 173.95 271.2C174.398 271.2 174.782 271.136 175.102 271.008C175.422 270.88 175.662 270.704 175.822 270.48C175.998 270.24 176.086 269.96 176.086 269.64C176.086 269.304 175.998 269.016 175.822 268.776C175.646 268.536 175.382 268.352 175.03 268.224C174.694 268.096 174.278 268.032 173.782 268.032V266.76C175.27 266.728 176.438 266.968 177.286 267.48C178.15 267.976 178.582 268.736 178.582 269.76C178.582 270.48 178.374 271.104 177.958 271.632C177.558 272.144 177.006 272.544 176.302 272.832C175.598 273.104 174.814 273.24 173.95 273.24ZM182.448 268.248V266.112H190.896V268.248H182.448ZM189.504 261.96H192.048V273H189.504V261.96ZM181.32 261.96H183.864V273H181.32V261.96ZM196.991 269.736C196.991 270.072 197.079 270.352 197.255 270.576C197.447 270.8 197.695 270.976 197.999 271.104C198.303 271.216 198.647 271.272 199.031 271.272C199.591 271.272 200.095 271.184 200.543 271.008C200.991 270.832 201.343 270.552 201.599 270.168C201.855 269.784 201.983 269.272 201.983 268.632L202.367 269.88C202.367 270.584 202.183 271.192 201.815 271.704C201.447 272.2 200.951 272.584 200.327 272.856C199.703 273.112 199.007 273.24 198.239 273.24C197.519 273.24 196.863 273.112 196.271 272.856C195.695 272.6 195.231 272.224 194.879 271.728C194.543 271.216 194.375 270.584 194.375 269.832C194.375 269.08 194.567 268.432 194.951 267.888C195.335 267.344 195.879 266.928 196.583 266.64C197.303 266.352 198.143 266.208 199.103 266.208C199.743 266.208 200.311 266.288 200.807 266.448C201.319 266.608 201.743 266.792 202.079 267C202.415 267.208 202.647 267.392 202.775 267.552V268.92C202.279 268.552 201.775 268.288 201.263 268.128C200.751 267.952 200.159 267.864 199.487 267.864C198.943 267.864 198.479 267.944 198.095 268.104C197.727 268.248 197.447 268.464 197.255 268.752C197.079 269.024 196.991 269.352 196.991 269.736ZM196.415 264.864L195.383 263.016C195.879 262.712 196.511 262.416 197.279 262.128C198.047 261.84 198.927 261.696 199.919 261.696C200.831 261.696 201.631 261.832 202.319 262.104C203.007 262.376 203.543 262.768 203.927 263.28C204.327 263.776 204.527 264.392 204.527 265.128V273H201.983V265.416C201.983 264.904 201.767 264.512 201.335 264.24C200.919 263.952 200.407 263.808 199.799 263.808C199.271 263.808 198.783 263.872 198.335 264C197.887 264.128 197.495 264.28 197.159 264.456C196.839 264.616 196.591 264.752 196.415 264.864ZM211.434 269.88L211.842 267.6H215.202V269.88H211.434ZM213.834 261.96H216.45V273H213.834V261.96ZM209.73 261.96V265.248C209.73 265.808 209.794 266.264 209.922 266.616C210.05 266.952 210.266 267.2 210.57 267.36C210.89 267.52 211.314 267.6 211.842 267.6L211.434 269.88C210.33 269.88 209.458 269.712 208.818 269.376C208.194 269.024 207.754 268.496 207.498 267.792C207.242 267.088 207.114 266.2 207.114 265.128V261.96H209.73ZM220.5 268.08V266.304H227.436C227.372 265.776 227.228 265.32 227.004 264.936C226.796 264.536 226.5 264.232 226.116 264.024C225.732 263.8 225.26 263.688 224.7 263.688C224.124 263.688 223.604 263.816 223.14 264.072C222.676 264.312 222.308 264.672 222.036 265.152C221.764 265.616 221.628 266.168 221.628 266.808L221.58 267.48C221.58 268.296 221.708 268.976 221.964 269.52C222.236 270.048 222.604 270.448 223.068 270.72C223.548 270.976 224.1 271.104 224.724 271.104C225.236 271.104 225.684 271.032 226.068 270.888C226.468 270.744 226.82 270.544 227.124 270.288C227.428 270.016 227.684 269.704 227.892 269.352L230.124 270.264C229.756 270.856 229.332 271.376 228.852 271.824C228.388 272.272 227.812 272.624 227.124 272.88C226.452 273.12 225.612 273.24 224.604 273.24C223.468 273.24 222.476 272.992 221.628 272.496C220.78 272 220.124 271.32 219.66 270.456C219.196 269.576 218.964 268.584 218.964 267.48C218.964 267.272 218.972 267.072 218.988 266.88C219.004 266.688 219.028 266.496 219.06 266.304C219.22 265.392 219.54 264.592 220.02 263.904C220.516 263.216 221.164 262.68 221.964 262.296C222.764 261.912 223.684 261.72 224.724 261.72C225.86 261.72 226.836 261.952 227.652 262.416C228.484 262.864 229.124 263.512 229.572 264.36C230.02 265.192 230.244 266.192 230.244 267.36C230.244 267.456 230.244 267.568 230.244 267.696C230.244 267.808 230.228 267.936 230.196 268.08H220.5ZM233.87 268.248V266.112H242.318V268.248H233.87ZM240.926 261.96H243.47V273H240.926V261.96ZM232.742 261.96H235.286V273H232.742V261.96ZM256.789 264.36L246.877 273.84L246.997 270.6L256.909 261.12L256.789 264.36ZM249.421 261.96V270.912L246.877 273.84V261.96H249.421ZM256.909 261.12V273H254.365V264.048L256.909 261.12ZM261.024 268.08V266.304H267.96C267.896 265.776 267.752 265.32 267.528 264.936C267.32 264.536 267.024 264.232 266.64 264.024C266.256 263.8 265.784 263.688 265.224 263.688C264.648 263.688 264.128 263.816 263.664 264.072C263.2 264.312 262.832 264.672 262.56 265.152C262.288 265.616 262.152 266.168 262.152 266.808L262.104 267.48C262.104 268.296 262.232 268.976 262.488 269.52C262.76 270.048 263.128 270.448 263.592 270.72C264.072 270.976 264.624 271.104 265.248 271.104C265.76 271.104 266.208 271.032 266.592 270.888C266.992 270.744 267.344 270.544 267.648 270.288C267.952 270.016 268.208 269.704 268.416 269.352L270.648 270.264C270.28 270.856 269.856 271.376 269.376 271.824C268.912 272.272 268.336 272.624 267.648 272.88C266.976 273.12 266.136 273.24 265.128 273.24C263.992 273.24 263 272.992 262.152 272.496C261.304 272 260.648 271.32 260.184 270.456C259.72 269.576 259.488 268.584 259.488 267.48C259.488 267.272 259.496 267.072 259.512 266.88C259.528 266.688 259.552 266.496 259.584 266.304C259.744 265.392 260.064 264.592 260.544 263.904C261.04 263.216 261.688 262.68 262.488 262.296C263.288 261.912 264.208 261.72 265.248 261.72C266.384 261.72 267.36 261.952 268.176 262.416C269.008 262.864 269.648 263.512 270.096 264.36C270.544 265.192 270.768 266.192 270.768 267.36C270.768 267.456 270.768 267.568 270.768 267.696C270.768 267.808 270.752 267.936 270.72 268.08H261.024Z" fill="#161312"/>
<path d="M116.324 35.84H120.752V59.6H116.324V35.84ZM108.188 47.72C108.188 45.992 108.596 44.48 109.412 43.184C110.252 41.888 111.452 40.88 113.012 40.16C114.572 39.44 116.42 39.08 118.556 39.08C120.692 39.08 122.54 39.44 124.1 40.16C125.66 40.88 126.848 41.888 127.664 43.184C128.504 44.48 128.924 45.992 128.924 47.72C128.924 49.424 128.504 50.936 127.664 52.256C126.848 53.552 125.66 54.56 124.1 55.28C122.54 56 120.692 56.36 118.556 56.36C116.42 56.36 114.572 56 113.012 55.28C111.452 54.56 110.252 53.552 109.412 52.256C108.596 50.936 108.188 49.424 108.188 47.72ZM112.472 47.72C112.472 48.656 112.688 49.484 113.12 50.204C113.576 50.9 114.248 51.452 115.136 51.86C116.048 52.244 117.188 52.436 118.556 52.436C119.924 52.436 121.052 52.244 121.94 51.86C122.828 51.452 123.488 50.9 123.92 50.204C124.376 49.484 124.604 48.656 124.604 47.72C124.604 46.784 124.376 45.956 123.92 45.236C123.488 44.516 122.828 43.964 121.94 43.58C121.052 43.196 119.924 43.004 118.556 43.004C117.188 43.004 116.048 43.196 115.136 43.58C114.248 43.964 113.576 44.516 113.12 45.236C112.688 45.956 112.472 46.784 112.472 47.72ZM148.926 39.44V56H144.426V43.688H137.586V50.24C137.586 51.536 137.358 52.616 136.902 53.48C136.446 54.32 135.69 54.956 134.634 55.388C133.602 55.796 132.21 56 130.458 56V51.824C131.178 51.824 131.79 51.668 132.294 51.356C132.822 51.02 133.086 50.336 133.086 49.304V39.44H148.926ZM155.641 48.764V45.884H165.541C165.445 45.164 165.253 44.54 164.965 44.012C164.677 43.484 164.281 43.076 163.777 42.788C163.273 42.5 162.637 42.356 161.869 42.356C161.077 42.356 160.369 42.536 159.745 42.896C159.121 43.232 158.629 43.736 158.269 44.408C157.909 45.08 157.729 45.872 157.729 46.784L157.657 47.72C157.657 48.896 157.837 49.868 158.197 50.636C158.581 51.38 159.097 51.932 159.745 52.292C160.393 52.628 161.125 52.796 161.941 52.796C162.661 52.796 163.297 52.7 163.849 52.508C164.401 52.316 164.893 52.04 165.325 51.68C165.757 51.32 166.117 50.9 166.405 50.42L170.473 51.68C169.921 52.616 169.273 53.444 168.529 54.164C167.785 54.86 166.873 55.4 165.793 55.784C164.737 56.168 163.441 56.36 161.905 56.36C160.057 56.36 158.461 55.988 157.117 55.244C155.773 54.5 154.741 53.48 154.021 52.184C153.325 50.864 152.977 49.376 152.977 47.72C152.977 47.408 152.989 47.108 153.013 46.82C153.037 46.532 153.073 46.244 153.121 45.956C153.361 44.588 153.853 43.388 154.597 42.356C155.341 41.324 156.337 40.52 157.585 39.944C158.833 39.368 160.285 39.08 161.941 39.08C163.765 39.08 165.313 39.428 166.585 40.124C167.881 40.796 168.865 41.756 169.537 43.004C170.209 44.252 170.545 45.752 170.545 47.504C170.545 47.648 170.545 47.828 170.545 48.044C170.545 48.26 170.521 48.5 170.473 48.764H155.641ZM188.82 52.076H194.508V39.44H199.008V56H174.132V39.44H178.632V52.076H184.32V39.44H188.82V52.076ZM212.297 49.484V45.416H219.821V49.484H212.297ZM232.981 39.44H237.481V56H232.981V39.44ZM243.565 39.44H249.145L242.017 46.28L249.865 56H244.321L236.437 46.28L243.565 39.44ZM255.632 51.068C255.632 51.524 255.752 51.908 255.992 52.22C256.232 52.508 256.556 52.736 256.964 52.904C257.396 53.048 257.864 53.12 258.368 53.12C259.112 53.12 259.796 53 260.42 52.76C261.044 52.52 261.536 52.124 261.896 51.572C262.256 51.02 262.436 50.288 262.436 49.376L263.012 51.32C263.012 52.376 262.736 53.288 262.184 54.056C261.632 54.8 260.888 55.376 259.952 55.784C259.04 56.168 258.008 56.36 256.856 56.36C255.728 56.36 254.72 56.168 253.832 55.784C252.944 55.4 252.236 54.836 251.708 54.092C251.204 53.324 250.952 52.388 250.952 51.284C250.952 50.156 251.24 49.196 251.816 48.404C252.416 47.588 253.244 46.964 254.3 46.532C255.38 46.1 256.64 45.884 258.08 45.884C258.968 45.884 259.796 45.992 260.564 46.208C261.332 46.424 261.98 46.676 262.508 46.964C263.036 47.252 263.408 47.528 263.624 47.792V50.06C262.952 49.556 262.256 49.184 261.536 48.944C260.816 48.704 259.964 48.584 258.98 48.584C258.26 48.584 257.648 48.692 257.144 48.908C256.64 49.124 256.256 49.412 255.992 49.772C255.752 50.132 255.632 50.564 255.632 51.068ZM254.156 44.156L252.464 40.952C253.304 40.496 254.336 40.064 255.56 39.656C256.784 39.224 258.14 39.008 259.628 39.008C261.068 39.008 262.328 39.212 263.408 39.62C264.512 40.028 265.376 40.628 266 41.42C266.624 42.188 266.936 43.136 266.936 44.264V56H262.436V45.02C262.436 44.276 262.148 43.7 261.572 43.292C260.996 42.86 260.252 42.644 259.34 42.644C258.548 42.644 257.804 42.74 257.108 42.932C256.436 43.1 255.836 43.304 255.308 43.544C254.804 43.784 254.42 43.988 254.156 44.156ZM275.841 63.92H271.161V39.44H275.841V63.92ZM289.449 47.72C289.449 49.592 289.077 51.188 288.333 52.508C287.589 53.828 286.605 54.824 285.381 55.496C284.181 56.168 282.885 56.504 281.493 56.504C280.077 56.504 278.841 56.144 277.785 55.424C276.753 54.704 275.949 53.684 275.373 52.364C274.821 51.044 274.545 49.496 274.545 47.72C274.545 45.92 274.821 44.372 275.373 43.076C275.949 41.756 276.753 40.736 277.785 40.016C278.841 39.296 280.077 38.936 281.493 38.936C282.885 38.936 284.181 39.272 285.381 39.944C286.605 40.616 287.589 41.612 288.333 42.932C289.077 44.228 289.449 45.824 289.449 47.72ZM284.625 47.72C284.625 46.736 284.421 45.896 284.013 45.2C283.605 44.504 283.053 43.976 282.357 43.616C281.685 43.256 280.941 43.076 280.125 43.076C279.429 43.076 278.745 43.256 278.073 43.616C277.425 43.952 276.885 44.468 276.453 45.164C276.045 45.86 275.841 46.712 275.841 47.72C275.841 48.728 276.045 49.58 276.453 50.276C276.885 50.972 277.425 51.5 278.073 51.86C278.745 52.196 279.429 52.364 280.125 52.364C280.941 52.364 281.685 52.184 282.357 51.824C283.053 51.464 283.605 50.936 284.013 50.24C284.421 49.544 284.625 48.704 284.625 47.72ZM290.801 39.44H301.817V43.364H290.801V39.44ZM294.077 40.16H298.577V56H294.077V40.16ZM302.672 47.72C302.672 45.992 303.068 44.48 303.86 43.184C304.676 41.888 305.768 40.88 307.136 40.16C308.528 39.44 310.1 39.08 311.852 39.08C313.604 39.08 315.164 39.44 316.532 40.16C317.924 40.88 319.016 41.888 319.808 43.184C320.624 44.48 321.032 45.992 321.032 47.72C321.032 49.424 320.624 50.936 319.808 52.256C319.016 53.552 317.924 54.56 316.532 55.28C315.164 56 313.604 56.36 311.852 56.36C310.1 56.36 308.528 56 307.136 55.28C305.768 54.56 304.676 53.552 303.86 52.256C303.068 50.936 302.672 49.424 302.672 47.72ZM307.424 47.72C307.424 48.656 307.616 49.484 308 50.204C308.408 50.9 308.948 51.452 309.62 51.86C310.292 52.244 311.036 52.436 311.852 52.436C312.668 52.436 313.412 52.244 314.084 51.86C314.756 51.452 315.284 50.9 315.668 50.204C316.076 49.484 316.28 48.656 316.28 47.72C316.28 46.784 316.076 45.956 315.668 45.236C315.284 44.516 314.756 43.964 314.084 43.58C313.412 43.196 312.668 43.004 311.852 43.004C311.036 43.004 310.292 43.196 309.62 43.58C308.948 43.964 308.408 44.516 308 45.236C307.616 45.956 307.424 46.784 307.424 47.72ZM330.507 51.572L331.587 47.648H336.159V51.572H330.507ZM334.107 39.44H338.751V56H334.107V39.44ZM328.671 39.44V44.516C328.671 45.26 328.767 45.86 328.959 46.316C329.151 46.772 329.463 47.108 329.895 47.324C330.327 47.54 330.891 47.648 331.587 47.648L330.507 51.572C328.851 51.572 327.543 51.296 326.583 50.744C325.647 50.192 324.987 49.364 324.603 48.26C324.219 47.156 324.027 45.8 324.027 44.192V39.44H328.671ZM343.442 39.44H347.942V56H343.442V39.44ZM354.026 39.44H359.606L352.478 46.28L360.326 56H354.782L346.898 46.28L354.026 39.44ZM378.657 43.544L362.889 57.26L363.069 51.896L378.837 38.18L378.657 43.544ZM367.389 39.44V52.544L362.889 57.26V39.44H367.389ZM378.837 38.18V56H374.337V42.896L378.837 38.18Z" fill="#1743BD"/>
<path d="M138.133 86.392V83.968H146.821V86.392H138.133ZM145.309 79.96H148.309V91H145.309V79.96ZM137.005 79.96H140.005V91H137.005V79.96ZM152.404 86.176V84.256H159.004C158.94 83.776 158.812 83.36 158.62 83.008C158.428 82.656 158.164 82.384 157.828 82.192C157.492 82 157.068 81.904 156.556 81.904C156.028 81.904 155.556 82.024 155.14 82.264C154.724 82.488 154.396 82.824 154.156 83.272C153.916 83.72 153.796 84.248 153.796 84.856L153.748 85.48C153.748 86.264 153.868 86.912 154.108 87.424C154.364 87.92 154.708 88.288 155.14 88.528C155.572 88.752 156.06 88.864 156.604 88.864C157.084 88.864 157.508 88.8 157.876 88.672C158.244 88.544 158.572 88.36 158.86 88.12C159.148 87.88 159.388 87.6 159.58 87.28L162.292 88.12C161.924 88.744 161.492 89.296 160.996 89.776C160.5 90.24 159.892 90.6 159.172 90.856C158.468 91.112 157.604 91.24 156.58 91.24C155.348 91.24 154.284 90.992 153.388 90.496C152.492 90 151.804 89.32 151.324 88.456C150.86 87.576 150.628 86.584 150.628 85.48C150.628 85.272 150.636 85.072 150.652 84.88C150.668 84.688 150.692 84.496 150.724 84.304C150.884 83.392 151.212 82.592 151.708 81.904C152.204 81.216 152.868 80.68 153.7 80.296C154.532 79.912 155.5 79.72 156.604 79.72C157.82 79.72 158.852 79.952 159.7 80.416C160.564 80.864 161.22 81.504 161.668 82.336C162.116 83.168 162.34 84.168 162.34 85.336C162.34 85.432 162.34 85.552 162.34 85.696C162.34 85.84 162.324 86 162.292 86.176H152.404ZM169.483 85.48V84.352C170.059 84.352 170.475 84.24 170.731 84.016C170.987 83.792 171.115 83.52 171.115 83.2C171.115 82.848 170.987 82.576 170.731 82.384C170.475 82.176 170.139 82.072 169.723 82.072C169.371 82.072 169.075 82.136 168.835 82.264C168.595 82.392 168.411 82.568 168.283 82.792C168.155 83 168.091 83.232 168.091 83.488H165.211C165.211 82.752 165.395 82.104 165.763 81.544C166.147 80.968 166.675 80.52 167.347 80.2C168.019 79.88 168.803 79.72 169.699 79.72C170.531 79.72 171.267 79.856 171.907 80.128C172.563 80.4 173.075 80.776 173.443 81.256C173.827 81.72 174.019 82.248 174.019 82.84C174.019 83.64 173.635 84.296 172.867 84.808C172.115 85.304 170.987 85.528 169.483 85.48ZM169.651 91.24C168.163 91.24 166.987 90.88 166.123 90.16C165.259 89.44 164.763 88.488 164.635 87.304H167.611C167.723 87.8 167.939 88.2 168.259 88.504C168.595 88.792 169.051 88.936 169.627 88.936C170.027 88.936 170.371 88.88 170.659 88.768C170.947 88.656 171.171 88.496 171.331 88.288C171.491 88.064 171.571 87.808 171.571 87.52C171.571 87.216 171.491 86.96 171.331 86.752C171.171 86.528 170.931 86.36 170.611 86.248C170.307 86.136 169.931 86.08 169.483 86.08V84.76C171.051 84.712 172.275 84.952 173.155 85.48C174.051 86.008 174.499 86.768 174.499 87.76C174.499 88.48 174.283 89.104 173.851 89.632C173.435 90.144 172.859 90.544 172.123 90.832C171.387 91.104 170.563 91.24 169.651 91.24ZM178.234 86.392V83.968H186.922V86.392H178.234ZM185.41 79.96H188.41V91H185.41V79.96ZM177.106 79.96H180.106V91H177.106V79.96ZM193.682 87.712C193.682 88.016 193.762 88.272 193.922 88.48C194.082 88.672 194.298 88.824 194.57 88.936C194.858 89.032 195.17 89.08 195.506 89.08C196.002 89.08 196.458 89 196.874 88.84C197.29 88.68 197.618 88.416 197.858 88.048C198.098 87.68 198.218 87.192 198.218 86.584L198.602 87.88C198.602 88.584 198.418 89.192 198.05 89.704C197.682 90.2 197.186 90.584 196.562 90.856C195.954 91.112 195.266 91.24 194.498 91.24C193.746 91.24 193.074 91.112 192.482 90.856C191.89 90.6 191.418 90.224 191.066 89.728C190.73 89.216 190.562 88.592 190.562 87.856C190.562 87.104 190.754 86.464 191.138 85.936C191.538 85.392 192.09 84.976 192.794 84.688C193.514 84.4 194.354 84.256 195.314 84.256C195.906 84.256 196.458 84.328 196.97 84.472C197.482 84.616 197.914 84.784 198.266 84.976C198.618 85.168 198.866 85.352 199.01 85.528V87.04C198.562 86.704 198.098 86.456 197.618 86.296C197.138 86.136 196.57 86.056 195.914 86.056C195.434 86.056 195.026 86.128 194.69 86.272C194.354 86.416 194.098 86.608 193.922 86.848C193.762 87.088 193.682 87.376 193.682 87.712ZM192.698 83.104L191.57 80.968C192.13 80.664 192.818 80.376 193.634 80.104C194.45 79.816 195.354 79.672 196.346 79.672C197.306 79.672 198.146 79.808 198.866 80.08C199.602 80.352 200.178 80.752 200.594 81.28C201.01 81.792 201.218 82.424 201.218 83.176V91H198.218V83.68C198.218 83.184 198.026 82.8 197.642 82.528C197.258 82.24 196.762 82.096 196.154 82.096C195.626 82.096 195.13 82.16 194.666 82.288C194.218 82.4 193.818 82.536 193.465 82.696C193.13 82.856 192.874 82.992 192.698 83.104ZM204.034 79.96H207.034V91H204.034V79.96ZM211.09 79.96H214.81L210.058 84.52L215.29 91H211.594L206.338 84.52L211.09 79.96ZM215.831 85.48C215.831 84.328 216.095 83.32 216.623 82.456C217.167 81.592 217.895 80.92 218.807 80.44C219.735 79.96 220.783 79.72 221.951 79.72C223.119 79.72 224.159 79.96 225.071 80.44C225.999 80.92 226.727 81.592 227.255 82.456C227.799 83.32 228.071 84.328 228.071 85.48C228.071 86.616 227.799 87.624 227.255 88.504C226.727 89.368 225.999 90.04 225.071 90.52C224.159 91 223.119 91.24 221.951 91.24C220.783 91.24 219.735 91 218.807 90.52C217.895 90.04 217.167 89.368 216.623 88.504C216.095 87.624 215.831 86.616 215.831 85.48ZM218.999 85.48C218.999 86.104 219.127 86.656 219.383 87.136C219.655 87.6 220.015 87.968 220.463 88.24C220.911 88.496 221.407 88.624 221.951 88.624C222.495 88.624 222.991 88.496 223.439 88.24C223.887 87.968 224.239 87.6 224.495 87.136C224.767 86.656 224.903 86.104 224.903 85.48C224.903 84.856 224.767 84.304 224.495 83.824C224.239 83.344 223.887 82.976 223.439 82.72C222.991 82.464 222.495 82.336 221.951 82.336C221.407 82.336 220.911 82.464 220.463 82.72C220.015 82.976 219.655 83.344 219.383 83.824C219.127 84.304 218.999 84.856 218.999 85.48ZM240.939 91L239.355 83.056L240.939 79.12L244.131 91H240.939ZM235.803 88.312L240.939 79.12L241.179 83.68L236.523 91.744L235.803 88.312ZM236.523 91.744L231.939 83.68L232.179 79.12L237.243 88.312L236.523 91.744ZM228.987 91L232.179 79.12L233.763 83.056L232.179 91H228.987ZM245.034 85.48C245.034 84.328 245.298 83.32 245.826 82.456C246.37 81.592 247.098 80.92 248.01 80.44C248.938 79.96 249.986 79.72 251.154 79.72C252.322 79.72 253.362 79.96 254.274 80.44C255.202 80.92 255.93 81.592 256.458 82.456C257.002 83.32 257.274 84.328 257.274 85.48C257.274 86.616 257.002 87.624 256.458 88.504C255.93 89.368 255.202 90.04 254.274 90.52C253.362 91 252.322 91.24 251.154 91.24C249.986 91.24 248.938 91 248.01 90.52C247.098 90.04 246.37 89.368 245.826 88.504C245.298 87.624 245.034 86.616 245.034 85.48ZM248.202 85.48C248.202 86.104 248.33 86.656 248.586 87.136C248.858 87.6 249.218 87.968 249.666 88.24C250.114 88.496 250.61 88.624 251.154 88.624C251.698 88.624 252.194 88.496 252.642 88.24C253.09 87.968 253.442 87.6 253.698 87.136C253.97 86.656 254.106 86.104 254.106 85.48C254.106 84.856 253.97 84.304 253.698 83.824C253.442 83.344 253.09 82.976 252.642 82.72C252.194 82.464 251.698 82.336 251.154 82.336C250.61 82.336 250.114 82.464 249.666 82.72C249.218 82.976 248.858 83.344 248.586 83.824C248.33 84.304 248.202 84.856 248.202 85.48ZM260.638 86.176V84.256H267.238C267.174 83.776 267.046 83.36 266.854 83.008C266.662 82.656 266.398 82.384 266.062 82.192C265.726 82 265.302 81.904 264.79 81.904C264.262 81.904 263.79 82.024 263.374 82.264C262.958 82.488 262.63 82.824 262.39 83.272C262.15 83.72 262.03 84.248 262.03 84.856L261.982 85.48C261.982 86.264 262.102 86.912 262.342 87.424C262.598 87.92 262.942 88.288 263.374 88.528C263.806 88.752 264.294 88.864 264.838 88.864C265.318 88.864 265.742 88.8 266.11 88.672C266.478 88.544 266.806 88.36 267.094 88.12C267.382 87.88 267.622 87.6 267.814 87.28L270.526 88.12C270.158 88.744 269.726 89.296 269.23 89.776C268.734 90.24 268.126 90.6 267.406 90.856C266.702 91.112 265.838 91.24 264.814 91.24C263.582 91.24 262.518 90.992 261.622 90.496C260.726 90 260.038 89.32 259.558 88.456C259.094 87.576 258.862 86.584 258.862 85.48C258.862 85.272 258.87 85.072 258.886 84.88C258.902 84.688 258.926 84.496 258.958 84.304C259.118 83.392 259.446 82.592 259.942 81.904C260.438 81.216 261.102 80.68 261.934 80.296C262.766 79.912 263.734 79.72 264.838 79.72C266.054 79.72 267.086 79.952 267.934 80.416C268.798 80.864 269.454 81.504 269.902 82.336C270.35 83.168 270.574 84.168 270.574 85.336C270.574 85.432 270.574 85.552 270.574 85.696C270.574 85.84 270.558 86 270.526 86.176H260.638ZM282.513 85.48C282.513 86.12 282.657 86.68 282.945 87.16C283.233 87.64 283.617 88.016 284.097 88.288C284.593 88.56 285.137 88.696 285.729 88.696C286.209 88.696 286.673 88.624 287.121 88.48C287.569 88.32 287.969 88.112 288.321 87.856C288.689 87.584 288.969 87.272 289.161 86.92V90.112C288.777 90.464 288.273 90.744 287.649 90.952C287.041 91.144 286.329 91.24 285.513 91.24C284.345 91.24 283.289 91 282.345 90.52C281.417 90.04 280.681 89.368 280.137 88.504C279.609 87.624 279.345 86.616 279.345 85.48C279.345 84.328 279.609 83.32 280.137 82.456C280.681 81.592 281.417 80.92 282.345 80.44C283.289 79.96 284.345 79.72 285.513 79.72C286.329 79.72 287.041 79.824 287.649 80.032C288.273 80.224 288.777 80.488 289.161 80.824V84.016C288.969 83.664 288.681 83.36 288.297 83.104C287.929 82.832 287.521 82.624 287.073 82.48C286.625 82.336 286.177 82.264 285.729 82.264C285.137 82.264 284.593 82.408 284.097 82.696C283.617 82.968 283.233 83.344 282.945 83.824C282.657 84.304 282.513 84.856 282.513 85.48ZM302.919 79.96V91H299.919V82.792H295.359V87.16C295.359 88.024 295.207 88.744 294.903 89.32C294.599 89.88 294.095 90.304 293.391 90.592C292.703 90.864 291.775 91 290.607 91V88.216C291.087 88.216 291.495 88.112 291.831 87.904C292.183 87.68 292.359 87.224 292.359 86.536V79.96H302.919ZM305.62 85.48C305.62 84.328 305.884 83.32 306.412 82.456C306.956 81.592 307.684 80.92 308.596 80.44C309.524 79.96 310.572 79.72 311.74 79.72C312.908 79.72 313.948 79.96 314.86 80.44C315.788 80.92 316.516 81.592 317.044 82.456C317.588 83.32 317.86 84.328 317.86 85.48C317.86 86.616 317.588 87.624 317.044 88.504C316.516 89.368 315.788 90.04 314.86 90.52C313.948 91 312.908 91.24 311.74 91.24C310.572 91.24 309.524 91 308.596 90.52C307.684 90.04 306.956 89.368 306.412 88.504C305.884 87.624 305.62 86.616 305.62 85.48ZM308.788 85.48C308.788 86.104 308.916 86.656 309.172 87.136C309.444 87.6 309.804 87.968 310.252 88.24C310.7 88.496 311.196 88.624 311.74 88.624C312.284 88.624 312.78 88.496 313.228 88.24C313.676 87.968 314.028 87.6 314.284 87.136C314.556 86.656 314.692 86.104 314.692 85.48C314.692 84.856 314.556 84.304 314.284 83.824C314.028 83.344 313.676 82.976 313.228 82.72C312.78 82.464 312.284 82.336 311.74 82.336C311.196 82.336 310.7 82.464 310.252 82.72C309.804 82.976 309.444 83.344 309.172 83.824C308.916 84.304 308.788 84.856 308.788 85.48ZM322.256 85.24H325.952C326.72 85.24 327.408 85.32 328.016 85.48C328.624 85.64 329.104 85.92 329.456 86.32C329.808 86.72 329.984 87.28 329.984 88C329.984 88.832 329.704 89.544 329.144 90.136C328.6 90.712 327.696 91 326.432 91H322.256V88.912H325.448C326.008 88.912 326.408 88.784 326.648 88.528C326.904 88.272 327.032 87.984 327.032 87.664C327.032 87.488 327 87.336 326.936 87.208C326.872 87.064 326.776 86.936 326.648 86.824C326.536 86.696 326.376 86.608 326.168 86.56C325.976 86.496 325.736 86.464 325.448 86.464H322.256V85.24ZM322.256 85.72V84.376H325.208C325.416 84.376 325.6 84.352 325.76 84.304C325.936 84.24 326.08 84.152 326.192 84.04C326.304 83.928 326.392 83.8 326.456 83.656C326.52 83.512 326.552 83.36 326.552 83.2C326.552 82.88 326.432 82.608 326.192 82.384C325.952 82.16 325.624 82.048 325.208 82.048H322.256V79.96H325.712C326.4 79.96 327.024 80.064 327.584 80.272C328.16 80.464 328.624 80.784 328.976 81.232C329.328 81.664 329.504 82.24 329.504 82.96C329.504 83.584 329.328 84.104 328.976 84.52C328.624 84.92 328.16 85.224 327.584 85.432C327.024 85.624 326.4 85.72 325.712 85.72H322.256ZM320.456 79.96H323.456V91H320.456V79.96ZM331.495 85.48C331.495 84.328 331.759 83.32 332.287 82.456C332.831 81.592 333.559 80.92 334.471 80.44C335.399 79.96 336.447 79.72 337.615 79.72C338.783 79.72 339.823 79.96 340.735 80.44C341.663 80.92 342.391 81.592 342.919 82.456C343.463 83.32 343.735 84.328 343.735 85.48C343.735 86.616 343.463 87.624 342.919 88.504C342.391 89.368 341.663 90.04 340.735 90.52C339.823 91 338.783 91.24 337.615 91.24C336.447 91.24 335.399 91 334.471 90.52C333.559 90.04 332.831 89.368 332.287 88.504C331.759 87.624 331.495 86.616 331.495 85.48ZM334.663 85.48C334.663 86.104 334.791 86.656 335.047 87.136C335.319 87.6 335.679 87.968 336.127 88.24C336.575 88.496 337.071 88.624 337.615 88.624C338.159 88.624 338.655 88.496 339.103 88.24C339.551 87.968 339.903 87.6 340.159 87.136C340.431 86.656 340.567 86.104 340.567 85.48C340.567 84.856 340.431 84.304 340.159 83.824C339.903 83.344 339.551 82.976 339.103 82.72C338.655 82.464 338.159 82.336 337.615 82.336C337.071 82.336 336.575 82.464 336.127 82.72C335.679 82.976 335.319 83.344 335.047 83.824C334.791 84.304 334.663 84.856 334.663 85.48Z" fill="#161312"/>
<path d="M209.835 113.64V121H208.139V115.192H205.019V121H203.323V113.64H209.835ZM211.482 117.32C211.482 116.563 211.652 115.896 211.993 115.32C212.346 114.744 212.82 114.296 213.418 113.976C214.015 113.645 214.692 113.48 215.45 113.48C216.207 113.48 216.879 113.645 217.466 113.976C218.063 114.296 218.538 114.744 218.89 115.32C219.242 115.896 219.418 116.563 219.418 117.32C219.418 118.067 219.242 118.733 218.89 119.32C218.538 119.896 218.063 120.349 217.466 120.68C216.879 121 216.207 121.16 215.45 121.16C214.692 121.16 214.015 121 213.418 120.68C212.82 120.349 212.346 119.896 211.993 119.32C211.652 118.733 211.482 118.067 211.482 117.32ZM213.258 117.32C213.258 117.779 213.354 118.184 213.546 118.536C213.738 118.877 213.999 119.149 214.33 119.352C214.66 119.544 215.034 119.64 215.45 119.64C215.855 119.64 216.223 119.544 216.554 119.352C216.895 119.149 217.162 118.877 217.354 118.536C217.546 118.184 217.642 117.779 217.642 117.32C217.642 116.861 217.546 116.456 217.354 116.104C217.162 115.752 216.895 115.48 216.554 115.288C216.223 115.096 215.855 115 215.45 115C215.034 115 214.66 115.096 214.33 115.288C213.999 115.48 213.738 115.752 213.546 116.104C213.354 116.456 213.258 116.861 213.258 117.32ZM224.516 116.12L222.516 120.52L220.724 120.328L224.516 113.08L228.308 120.328L226.516 120.52L224.516 116.12ZM227.556 121H221.556V122.44H219.796V119.528H229.236V122.44H227.556V121ZM232.209 117.32C232.209 117.789 232.31 118.2 232.513 118.552C232.716 118.893 232.988 119.165 233.329 119.368C233.681 119.571 234.07 119.672 234.497 119.672C234.849 119.672 235.185 119.619 235.505 119.512C235.825 119.405 236.108 119.256 236.353 119.064C236.598 118.872 236.78 118.659 236.897 118.424V120.328C236.641 120.584 236.294 120.787 235.857 120.936C235.42 121.085 234.94 121.16 234.417 121.16C233.66 121.16 232.977 121 232.369 120.68C231.772 120.349 231.297 119.896 230.945 119.32C230.604 118.733 230.433 118.067 230.433 117.32C230.433 116.563 230.604 115.896 230.945 115.32C231.297 114.744 231.772 114.296 232.369 113.976C232.977 113.645 233.66 113.48 234.417 113.48C234.94 113.48 235.42 113.555 235.857 113.704C236.294 113.853 236.641 114.056 236.897 114.312V116.216C236.78 115.971 236.593 115.757 236.337 115.576C236.092 115.384 235.809 115.235 235.489 115.128C235.169 115.021 234.838 114.968 234.497 114.968C234.07 114.968 233.681 115.069 233.329 115.272C232.988 115.475 232.716 115.752 232.513 116.104C232.31 116.456 232.209 116.861 232.209 117.32ZM238.743 113.64H240.439V121H238.743V113.64ZM243.143 113.64H245.255L242.087 116.68L245.575 121H243.479L239.959 116.68L243.143 113.64ZM247.817 118.824C247.817 119.048 247.876 119.235 247.993 119.384C248.121 119.533 248.286 119.651 248.489 119.736C248.692 119.811 248.921 119.848 249.177 119.848C249.55 119.848 249.886 119.789 250.185 119.672C250.484 119.555 250.718 119.368 250.889 119.112C251.06 118.856 251.145 118.515 251.145 118.088L251.401 118.92C251.401 119.389 251.278 119.795 251.033 120.136C250.788 120.467 250.457 120.723 250.041 120.904C249.625 121.075 249.161 121.16 248.649 121.16C248.169 121.16 247.732 121.075 247.337 120.904C246.953 120.733 246.644 120.483 246.409 120.152C246.185 119.811 246.073 119.389 246.073 118.888C246.073 118.387 246.201 117.955 246.457 117.592C246.713 117.229 247.076 116.952 247.545 116.76C248.025 116.568 248.585 116.472 249.225 116.472C249.652 116.472 250.03 116.525 250.361 116.632C250.702 116.739 250.985 116.861 251.209 117C251.433 117.139 251.588 117.261 251.673 117.368V118.28C251.342 118.035 251.006 117.859 250.665 117.752C250.324 117.635 249.929 117.576 249.481 117.576C249.118 117.576 248.809 117.629 248.553 117.736C248.308 117.832 248.121 117.976 247.993 118.168C247.876 118.349 247.817 118.568 247.817 118.824ZM247.433 115.576L246.745 114.344C247.076 114.141 247.497 113.944 248.009 113.752C248.521 113.56 249.108 113.464 249.769 113.464C250.377 113.464 250.91 113.555 251.369 113.736C251.828 113.917 252.185 114.179 252.441 114.52C252.708 114.851 252.841 115.261 252.841 115.752V121H251.145V115.944C251.145 115.603 251.001 115.341 250.713 115.16C250.436 114.968 250.094 114.872 249.689 114.872C249.337 114.872 249.012 114.915 248.713 115C248.414 115.085 248.153 115.187 247.929 115.304C247.716 115.411 247.55 115.501 247.433 115.576ZM257.798 117.32V116.552C258.224 116.552 258.528 116.472 258.71 116.312C258.902 116.141 258.998 115.933 258.998 115.688C258.998 115.443 258.902 115.245 258.71 115.096C258.528 114.947 258.278 114.872 257.958 114.872C257.691 114.872 257.467 114.925 257.286 115.032C257.104 115.128 256.966 115.256 256.87 115.416C256.784 115.565 256.742 115.725 256.742 115.896H255.078C255.078 115.437 255.2 115.027 255.446 114.664C255.691 114.301 256.027 114.013 256.454 113.8C256.891 113.587 257.387 113.48 257.942 113.48C258.464 113.48 258.934 113.571 259.35 113.752C259.766 113.933 260.091 114.179 260.326 114.488C260.56 114.797 260.678 115.139 260.678 115.512C260.678 116.045 260.432 116.488 259.942 116.84C259.451 117.181 258.736 117.341 257.798 117.32ZM257.91 121.16C256.971 121.16 256.224 120.925 255.67 120.456C255.126 119.976 254.811 119.357 254.726 118.6H256.422C256.496 118.941 256.646 119.229 256.87 119.464C257.104 119.688 257.451 119.8 257.91 119.8C258.208 119.8 258.464 119.757 258.678 119.672C258.891 119.587 259.051 119.469 259.158 119.32C259.275 119.16 259.334 118.973 259.334 118.76C259.334 118.536 259.275 118.344 259.158 118.184C259.04 118.024 258.864 117.901 258.63 117.816C258.406 117.731 258.128 117.688 257.798 117.688V116.84C258.79 116.819 259.568 116.979 260.134 117.32C260.71 117.651 260.998 118.157 260.998 118.84C260.998 119.32 260.859 119.736 260.582 120.088C260.315 120.429 259.947 120.696 259.478 120.888C259.008 121.069 258.486 121.16 257.91 121.16ZM262.759 113.64H264.455V121H262.759V113.64ZM267.159 113.64H269.271L266.103 116.68L269.591 121H267.495L263.975 116.68L267.159 113.64ZM271.833 118.824C271.833 119.048 271.891 119.235 272.009 119.384C272.137 119.533 272.302 119.651 272.505 119.736C272.707 119.811 272.937 119.848 273.193 119.848C273.566 119.848 273.902 119.789 274.201 119.672C274.499 119.555 274.734 119.368 274.905 119.112C275.075 118.856 275.161 118.515 275.161 118.088L275.417 118.92C275.417 119.389 275.294 119.795 275.049 120.136C274.803 120.467 274.473 120.723 274.057 120.904C273.641 121.075 273.177 121.16 272.665 121.16C272.185 121.16 271.747 121.075 271.353 120.904C270.969 120.733 270.659 120.483 270.425 120.152C270.201 119.811 270.089 119.389 270.089 118.888C270.089 118.387 270.217 117.955 270.473 117.592C270.729 117.229 271.091 116.952 271.561 116.76C272.041 116.568 272.601 116.472 273.241 116.472C273.667 116.472 274.046 116.525 274.377 116.632C274.718 116.739 275.001 116.861 275.225 117C275.449 117.139 275.603 117.261 275.689 117.368V118.28C275.358 118.035 275.022 117.859 274.681 117.752C274.339 117.635 273.945 117.576 273.497 117.576C273.134 117.576 272.825 117.629 272.569 117.736C272.323 117.832 272.137 117.976 272.009 118.168C271.891 118.349 271.833 118.568 271.833 118.824ZM271.449 115.576L270.761 114.344C271.091 114.141 271.513 113.944 272.025 113.752C272.537 113.56 273.123 113.464 273.785 113.464C274.393 113.464 274.926 113.555 275.385 113.736C275.843 113.917 276.201 114.179 276.457 114.52C276.723 114.851 276.857 115.261 276.857 115.752V121H275.161V115.944C275.161 115.603 275.017 115.341 274.729 115.16C274.451 114.968 274.11 114.872 273.705 114.872C273.353 114.872 273.027 114.915 272.729 115C272.43 115.085 272.169 115.187 271.945 115.304C271.731 115.411 271.566 115.501 271.449 115.576Z" fill="#161312"/>
<rect x="27" y="160" width="435" height="47" rx="12" fill="#F6F8FA" stroke="#DB7B53" stroke-width="4"/>
<path d="M86.6863 185.248V183.112H95.1343V185.248H86.6863ZM93.7423 178.96H96.2863V190H93.7423V178.96ZM85.5583 178.96H88.1023V190H85.5583V178.96ZM100.293 185.08V183.304H107.229C107.165 182.776 107.021 182.32 106.797 181.936C106.589 181.536 106.293 181.232 105.909 181.024C105.525 180.8 105.053 180.688 104.493 180.688C103.917 180.688 103.397 180.816 102.933 181.072C102.469 181.312 102.101 181.672 101.829 182.152C101.557 182.616 101.421 183.168 101.421 183.808L101.373 184.48C101.373 185.296 101.501 185.976 101.757 186.52C102.029 187.048 102.397 187.448 102.861 187.72C103.341 187.976 103.893 188.104 104.517 188.104C105.029 188.104 105.477 188.032 105.861 187.888C106.261 187.744 106.613 187.544 106.917 187.288C107.221 187.016 107.477 186.704 107.685 186.352L109.917 187.264C109.549 187.856 109.125 188.376 108.645 188.824C108.181 189.272 107.605 189.624 106.917 189.88C106.245 190.12 105.405 190.24 104.397 190.24C103.261 190.24 102.269 189.992 101.421 189.496C100.573 189 99.9174 188.32 99.4534 187.456C98.9894 186.576 98.7574 185.584 98.7574 184.48C98.7574 184.272 98.7654 184.072 98.7814 183.88C98.7974 183.688 98.8214 183.496 98.8534 183.304C99.0134 182.392 99.3334 181.592 99.8134 180.904C100.309 180.216 100.957 179.68 101.757 179.296C102.557 178.912 103.477 178.72 104.517 178.72C105.653 178.72 106.629 178.952 107.445 179.416C108.277 179.864 108.917 180.512 109.365 181.36C109.813 182.192 110.037 183.192 110.037 184.36C110.037 184.456 110.037 184.568 110.037 184.696C110.037 184.808 110.021 184.936 109.989 185.08H100.293ZM114.191 184.24H117.695C118.463 184.24 119.151 184.32 119.759 184.48C120.367 184.64 120.847 184.92 121.199 185.32C121.551 185.72 121.727 186.28 121.727 187C121.727 187.832 121.447 188.544 120.887 189.136C120.343 189.712 119.439 190 118.175 190H114.191V188.08H117.383C118.023 188.08 118.487 187.944 118.775 187.672C119.063 187.4 119.207 187.08 119.207 186.712C119.207 186.52 119.167 186.344 119.087 186.184C119.007 186.024 118.895 185.88 118.751 185.752C118.623 185.624 118.439 185.528 118.199 185.464C117.975 185.4 117.703 185.368 117.383 185.368H114.191V184.24ZM114.191 184.72V183.472H117.143C117.383 183.472 117.599 183.44 117.791 183.376C117.999 183.312 118.167 183.216 118.295 183.088C118.423 182.96 118.527 182.816 118.607 182.656C118.687 182.496 118.727 182.328 118.727 182.152C118.727 181.784 118.583 181.48 118.295 181.24C118.023 181 117.639 180.88 117.143 180.88H114.191V178.96H117.455C118.143 178.96 118.767 179.064 119.327 179.272C119.903 179.464 120.367 179.784 120.719 180.232C121.071 180.664 121.247 181.24 121.247 181.96C121.247 182.584 121.071 183.104 120.719 183.52C120.367 183.92 119.903 184.224 119.327 184.432C118.767 184.624 118.143 184.72 117.455 184.72H114.191ZM112.679 178.96H115.223V190H112.679V178.96ZM124.809 185.08V183.304H131.745C131.681 182.776 131.537 182.32 131.313 181.936C131.105 181.536 130.809 181.232 130.425 181.024C130.041 180.8 129.569 180.688 129.009 180.688C128.433 180.688 127.913 180.816 127.449 181.072C126.985 181.312 126.617 181.672 126.345 182.152C126.073 182.616 125.937 183.168 125.937 183.808L125.889 184.48C125.889 185.296 126.017 185.976 126.273 186.52C126.545 187.048 126.913 187.448 127.377 187.72C127.857 187.976 128.409 188.104 129.033 188.104C129.545 188.104 129.993 188.032 130.377 187.888C130.777 187.744 131.129 187.544 131.433 187.288C131.737 187.016 131.993 186.704 132.201 186.352L134.433 187.264C134.065 187.856 133.641 188.376 133.161 188.824C132.697 189.272 132.121 189.624 131.433 189.88C130.761 190.12 129.921 190.24 128.913 190.24C127.777 190.24 126.785 189.992 125.937 189.496C125.089 189 124.433 188.32 123.969 187.456C123.505 186.576 123.273 185.584 123.273 184.48C123.273 184.272 123.281 184.072 123.297 183.88C123.313 183.688 123.337 183.496 123.369 183.304C123.529 182.392 123.849 181.592 124.329 180.904C124.825 180.216 125.473 179.68 126.273 179.296C127.073 178.912 127.993 178.72 129.033 178.72C130.169 178.72 131.145 178.952 131.961 179.416C132.793 179.864 133.433 180.512 133.881 181.36C134.329 182.192 134.553 183.192 134.553 184.36C134.553 184.456 134.553 184.568 134.553 184.696C134.553 184.808 134.537 184.936 134.505 185.08H124.809ZM139.571 195.28H136.955V178.96H139.571V195.28ZM148.715 184.48C148.715 185.696 148.467 186.744 147.971 187.624C147.475 188.488 146.819 189.152 146.003 189.616C145.187 190.064 144.299 190.288 143.339 190.288C142.395 190.288 141.571 190.056 140.867 189.592C140.179 189.112 139.643 188.44 139.259 187.576C138.891 186.696 138.707 185.664 138.707 184.48C138.707 183.28 138.891 182.248 139.259 181.384C139.643 180.52 140.179 179.856 140.867 179.392C141.571 178.912 142.395 178.672 143.339 178.672C144.299 178.672 145.187 178.904 146.003 179.368C146.819 179.816 147.475 180.472 147.971 181.336C148.467 182.2 148.715 183.248 148.715 184.48ZM146.027 184.48C146.027 183.744 145.875 183.12 145.571 182.608C145.267 182.08 144.859 181.688 144.347 181.432C143.851 181.16 143.299 181.024 142.691 181.024C142.195 181.024 141.707 181.16 141.227 181.432C140.747 181.688 140.347 182.072 140.027 182.584C139.723 183.096 139.571 183.728 139.571 184.48C139.571 185.232 139.723 185.864 140.027 186.376C140.347 186.888 140.747 187.28 141.227 187.552C141.707 187.808 142.195 187.936 142.691 187.936C143.299 187.936 143.851 187.808 144.347 187.552C144.859 187.28 145.267 186.888 145.571 186.376C145.875 185.848 146.027 185.216 146.027 184.48ZM152.311 185.248V183.112H160.759V185.248H152.311ZM159.367 178.96H161.911V190H159.367V178.96ZM151.183 178.96H153.727V190H151.183V178.96ZM164.382 184.48C164.382 183.344 164.638 182.344 165.15 181.48C165.678 180.616 166.39 179.944 167.286 179.464C168.182 178.968 169.198 178.72 170.334 178.72C171.47 178.72 172.478 178.968 173.358 179.464C174.254 179.944 174.966 180.616 175.494 181.48C176.022 182.344 176.286 183.344 176.286 184.48C176.286 185.6 176.022 186.6 175.494 187.48C174.966 188.344 174.254 189.024 173.358 189.52C172.478 190 171.47 190.24 170.334 190.24C169.198 190.24 168.182 190 167.286 189.52C166.39 189.024 165.678 188.344 165.15 187.48C164.638 186.6 164.382 185.6 164.382 184.48ZM167.046 184.48C167.046 185.168 167.19 185.776 167.478 186.304C167.766 186.816 168.158 187.224 168.654 187.528C169.15 187.816 169.71 187.96 170.334 187.96C170.942 187.96 171.494 187.816 171.99 187.528C172.502 187.224 172.902 186.816 173.19 186.304C173.478 185.776 173.622 185.168 173.622 184.48C173.622 183.792 173.478 183.184 173.19 182.656C172.902 182.128 172.502 181.72 171.99 181.432C171.494 181.144 170.942 181 170.334 181C169.71 181 169.15 181.144 168.654 181.432C168.158 181.72 167.766 182.128 167.478 182.656C167.19 183.184 167.046 183.792 167.046 184.48ZM179.442 185.08V183.304H186.378C186.314 182.776 186.17 182.32 185.946 181.936C185.738 181.536 185.442 181.232 185.058 181.024C184.674 180.8 184.202 180.688 183.642 180.688C183.066 180.688 182.546 180.816 182.082 181.072C181.618 181.312 181.25 181.672 180.978 182.152C180.706 182.616 180.57 183.168 180.57 183.808L180.522 184.48C180.522 185.296 180.65 185.976 180.906 186.52C181.178 187.048 181.546 187.448 182.01 187.72C182.49 187.976 183.042 188.104 183.666 188.104C184.178 188.104 184.626 188.032 185.01 187.888C185.41 187.744 185.762 187.544 186.066 187.288C186.37 187.016 186.626 186.704 186.834 186.352L189.066 187.264C188.698 187.856 188.274 188.376 187.794 188.824C187.33 189.272 186.754 189.624 186.066 189.88C185.394 190.12 184.554 190.24 183.546 190.24C182.41 190.24 181.418 189.992 180.57 189.496C179.722 189 179.066 188.32 178.602 187.456C178.138 186.576 177.906 185.584 177.906 184.48C177.906 184.272 177.914 184.072 177.93 183.88C177.946 183.688 177.97 183.496 178.002 183.304C178.162 182.392 178.482 181.592 178.962 180.904C179.458 180.216 180.106 179.68 180.906 179.296C181.706 178.912 182.626 178.72 183.666 178.72C184.802 178.72 185.778 178.952 186.594 179.416C187.426 179.864 188.066 180.512 188.514 181.36C188.962 182.192 189.186 183.192 189.186 184.36C189.186 184.456 189.186 184.568 189.186 184.696C189.186 184.808 189.17 184.936 189.138 185.08H179.442ZM203.271 184.48V183.328C203.911 183.328 204.367 183.208 204.639 182.968C204.927 182.712 205.071 182.4 205.071 182.032C205.071 181.664 204.927 181.368 204.639 181.144C204.367 180.92 203.991 180.808 203.511 180.808C203.111 180.808 202.775 180.888 202.503 181.048C202.231 181.192 202.023 181.384 201.879 181.624C201.751 181.848 201.687 182.088 201.687 182.344H199.191C199.191 181.656 199.375 181.04 199.743 180.496C200.111 179.952 200.615 179.52 201.255 179.2C201.911 178.88 202.655 178.72 203.487 178.72C204.271 178.72 204.975 178.856 205.599 179.128C206.223 179.4 206.711 179.768 207.063 180.232C207.415 180.696 207.591 181.208 207.591 181.768C207.591 182.568 207.223 183.232 206.487 183.76C205.751 184.272 204.679 184.512 203.271 184.48ZM203.439 190.24C202.031 190.24 200.911 189.888 200.079 189.184C199.263 188.464 198.791 187.536 198.663 186.4H201.207C201.319 186.912 201.543 187.344 201.879 187.696C202.231 188.032 202.751 188.2 203.439 188.2C203.887 188.2 204.271 188.136 204.591 188.008C204.911 187.88 205.151 187.704 205.311 187.48C205.487 187.24 205.575 186.96 205.575 186.64C205.575 186.304 205.487 186.016 205.311 185.776C205.135 185.536 204.871 185.352 204.519 185.224C204.183 185.096 203.767 185.032 203.271 185.032V183.76C204.759 183.728 205.927 183.968 206.775 184.48C207.639 184.976 208.071 185.736 208.071 186.76C208.071 187.48 207.863 188.104 207.447 188.632C207.047 189.144 206.495 189.544 205.791 189.832C205.087 190.104 204.303 190.24 203.439 190.24ZM211.936 185.248V183.112H220.384V185.248H211.936ZM218.992 178.96H221.536V190H218.992V178.96ZM210.808 178.96H213.352V190H210.808V178.96ZM226.479 186.736C226.479 187.072 226.567 187.352 226.743 187.576C226.935 187.8 227.183 187.976 227.487 188.104C227.791 188.216 228.135 188.272 228.519 188.272C229.079 188.272 229.583 188.184 230.031 188.008C230.479 187.832 230.831 187.552 231.087 187.168C231.343 186.784 231.471 186.272 231.471 185.632L231.855 186.88C231.855 187.584 231.671 188.192 231.303 188.704C230.935 189.2 230.439 189.584 229.815 189.856C229.191 190.112 228.495 190.24 227.727 190.24C227.007 190.24 226.351 190.112 225.759 189.856C225.183 189.6 224.719 189.224 224.367 188.728C224.031 188.216 223.863 187.584 223.863 186.832C223.863 186.08 224.055 185.432 224.439 184.888C224.823 184.344 225.367 183.928 226.071 183.64C226.791 183.352 227.631 183.208 228.591 183.208C229.231 183.208 229.799 183.288 230.295 183.448C230.807 183.608 231.231 183.792 231.567 184C231.903 184.208 232.135 184.392 232.263 184.552V185.92C231.767 185.552 231.263 185.288 230.751 185.128C230.239 184.952 229.647 184.864 228.975 184.864C228.431 184.864 227.967 184.944 227.583 185.104C227.215 185.248 226.935 185.464 226.743 185.752C226.567 186.024 226.479 186.352 226.479 186.736ZM225.903 181.864L224.871 180.016C225.367 179.712 225.999 179.416 226.767 179.128C227.535 178.84 228.415 178.696 229.407 178.696C230.319 178.696 231.119 178.832 231.807 179.104C232.495 179.376 233.031 179.768 233.415 180.28C233.815 180.776 234.015 181.392 234.015 182.128V190H231.471V182.416C231.471 181.904 231.255 181.512 230.823 181.24C230.407 180.952 229.895 180.808 229.287 180.808C228.759 180.808 228.271 180.872 227.823 181C227.375 181.128 226.983 181.28 226.647 181.456C226.327 181.616 226.079 181.752 225.903 181.864ZM240.922 186.88L241.33 184.6H244.69V186.88H240.922ZM243.322 178.96H245.938V190H243.322V178.96ZM239.218 178.96V182.248C239.218 182.808 239.282 183.264 239.41 183.616C239.538 183.952 239.754 184.2 240.058 184.36C240.378 184.52 240.802 184.6 241.33 184.6L240.922 186.88C239.818 186.88 238.946 186.712 238.306 186.376C237.682 186.024 237.242 185.496 236.986 184.792C236.73 184.088 236.602 183.2 236.602 182.128V178.96H239.218ZM249.989 185.08V183.304H256.925C256.861 182.776 256.717 182.32 256.493 181.936C256.285 181.536 255.989 181.232 255.605 181.024C255.221 180.8 254.749 180.688 254.189 180.688C253.613 180.688 253.093 180.816 252.629 181.072C252.165 181.312 251.797 181.672 251.525 182.152C251.253 182.616 251.117 183.168 251.117 183.808L251.069 184.48C251.069 185.296 251.197 185.976 251.453 186.52C251.725 187.048 252.093 187.448 252.557 187.72C253.037 187.976 253.589 188.104 254.213 188.104C254.725 188.104 255.173 188.032 255.557 187.888C255.957 187.744 256.309 187.544 256.613 187.288C256.917 187.016 257.173 186.704 257.381 186.352L259.613 187.264C259.245 187.856 258.821 188.376 258.341 188.824C257.877 189.272 257.301 189.624 256.613 189.88C255.941 190.12 255.101 190.24 254.093 190.24C252.957 190.24 251.965 189.992 251.117 189.496C250.269 189 249.613 188.32 249.149 187.456C248.685 186.576 248.453 185.584 248.453 184.48C248.453 184.272 248.461 184.072 248.477 183.88C248.493 183.688 248.517 183.496 248.549 183.304C248.709 182.392 249.029 181.592 249.509 180.904C250.005 180.216 250.653 179.68 251.453 179.296C252.253 178.912 253.173 178.72 254.213 178.72C255.349 178.72 256.325 178.952 257.141 179.416C257.973 179.864 258.613 180.512 259.061 181.36C259.509 182.192 259.733 183.192 259.733 184.36C259.733 184.456 259.733 184.568 259.733 184.696C259.733 184.808 259.717 184.936 259.685 185.08H249.989ZM263.358 185.248V183.112H271.806V185.248H263.358ZM270.414 178.96H272.958V190H270.414V178.96ZM262.23 178.96H264.774V190H262.23V178.96ZM286.277 181.36L276.365 190.84L276.485 187.6L286.397 178.12L286.277 181.36ZM278.909 178.96V187.912L276.365 190.84V178.96H278.909ZM286.397 178.12V190H283.853V181.048L286.397 178.12ZM290.512 185.08V183.304H297.448C297.384 182.776 297.24 182.32 297.016 181.936C296.808 181.536 296.512 181.232 296.128 181.024C295.744 180.8 295.272 180.688 294.712 180.688C294.136 180.688 293.616 180.816 293.152 181.072C292.688 181.312 292.32 181.672 292.048 182.152C291.776 182.616 291.64 183.168 291.64 183.808L291.592 184.48C291.592 185.296 291.72 185.976 291.976 186.52C292.248 187.048 292.616 187.448 293.08 187.72C293.56 187.976 294.112 188.104 294.736 188.104C295.248 188.104 295.696 188.032 296.08 187.888C296.48 187.744 296.832 187.544 297.136 187.288C297.44 187.016 297.696 186.704 297.904 186.352L300.136 187.264C299.768 187.856 299.344 188.376 298.864 188.824C298.4 189.272 297.824 189.624 297.136 189.88C296.464 190.12 295.624 190.24 294.616 190.24C293.48 190.24 292.488 189.992 291.64 189.496C290.792 189 290.136 188.32 289.672 187.456C289.208 186.576 288.976 185.584 288.976 184.48C288.976 184.272 288.984 184.072 289 183.88C289.016 183.688 289.04 183.496 289.072 183.304C289.232 182.392 289.552 181.592 290.032 180.904C290.528 180.216 291.176 179.68 291.976 179.296C292.776 178.912 293.696 178.72 294.736 178.72C295.872 178.72 296.848 178.952 297.664 179.416C298.496 179.864 299.136 180.512 299.584 181.36C300.032 182.192 300.256 183.192 300.256 184.36C300.256 184.456 300.256 184.568 300.256 184.696C300.256 184.808 300.24 184.936 300.208 185.08H290.512Z" fill="#161312"/>
<circle cx="55" cy="184" r="18" fill="#DB7B53"/>
<path d="M50.68 187.3L50.92 184.72H57.86L58.08 187.3H50.68ZM54.34 181.14L52.38 185.66L52.54 186.4L50.8 190H46.98L54.34 175.12L61.72 190H57.88L56.2 186.54L56.32 185.68L54.34 181.14Z" fill="white"/>
</svg>
